<svg width="46" height="70" viewBox="0 0 46 70" fill="none" xmlns="http://www.w3.org/2000/svg">
<path d="M16.5711 67.4569L17.032 59.8881C17.0712 59.2438 17.6152 58.7493 18.2563 58.7751L26.6558 59.1123C27.2595 59.1365 27.7473 59.6155 27.7859 60.2219L28.2488 67.4897C28.2834 68.0332 27.9457 68.534 27.4246 68.6822C24.0066 69.655 21.3029 69.6482 17.4352 68.6619C16.8959 68.5244 16.5371 68.0155 16.5711 67.4569Z" fill="#AB6A28"/>
<path d="M9.04771 18.2802L21.5127 1.22787C21.9681 0.604886 22.8848 0.579569 23.3734 1.17648L38.1268 19.1969C38.5586 19.7243 38.4594 20.5087 37.91 20.9105L33.3817 24.2233C32.858 24.6064 32.7393 25.3425 33.1156 25.8725L40.5394 36.3272C40.9396 36.8907 40.7769 37.6778 40.1865 38.0341L36.5224 40.2455C35.9168 40.611 35.7642 41.4262 36.1959 41.9884L44.4668 52.755C44.9421 53.3737 44.7045 54.2718 43.9792 54.5533C40.1507 56.039 29.4847 59.9153 22.4103 59.9153C15.3758 59.9153 5.55241 56.0827 1.96803 54.5786C1.26114 54.282 1.04707 53.3975 1.52027 52.7917L12.0649 39.2923C12.6729 38.5139 12.1216 37.3729 11.1374 37.3729H6.43858C5.47572 37.3729 4.91854 36.2751 5.48326 35.4906L15.1577 22.0518C15.7225 21.2673 15.1654 20.1695 14.2024 20.1695H9.99796C9.03115 20.1695 8.47497 19.0637 9.04771 18.2802Z" fill="#639629"/>
</svg>
