<svg width="70" height="54" viewBox="0 0 70 54" fill="none" xmlns="http://www.w3.org/2000/svg">
<g clip-path="url(#clip0_154_9612)">
<path d="M24.0984 12.0638C30.9836 11.6042 34.6176 4.59573 35.5738 1.14893C36.9126 4.97871 40.9672 12.6383 46.4754 12.6383C42.1404 15.7949 43.4164 19.4595 45.0744 21.5238C45.4865 22.0367 45.5113 22.7951 45.0464 23.2605L40.6234 27.6889C40.3384 27.9743 39.9247 28.0891 39.5336 27.9912L37.8689 27.5745L35.5738 27L31.5794 27.9998C31.2072 28.093 30.8131 27.9937 30.5292 27.7353L25.6476 23.292C25.1321 22.8229 25.1571 22.0094 25.6402 21.5068C29.7141 17.2682 26.4219 13.4954 24.0984 12.0638Z" fill="#8BC34A"/>
<path d="M17.7869 24.7021L28.6886 30.4468L29.7644 32.1702L31.5574 35.0426L21.2295 43.6596C19.3935 42.2809 15.6831 45.9575 14.3443 48.2553C13.8853 43.6596 5.35524 41.3617 1.14758 40.7873C7.11479 38.0298 8.6066 30.4468 8.6066 27C15.9509 31.1362 17.7869 27.1915 17.7869 24.7021Z" fill="#8BC34A"/>
<path d="M53.3607 24.7021L42.4591 30.4468L39.5902 40.2128L50.4918 43.0851C52.2132 43.6596 55.7705 45.6128 56.2296 48.8298C58.9837 41.9362 66.1749 40.5957 69.4263 40.7873C63.4591 37.5702 62.7323 30.6384 63.1148 27.5745C54.3935 30.7915 52.9782 27 53.3607 24.7021Z" fill="#8BC34A"/>
<path d="M35.5738 1.14893L36.1153 0.959158C36.0324 0.722185 35.8056 0.566526 35.555 0.574776C35.3043 0.583025 35.088 0.753273 35.0209 0.995181L35.5738 1.14893ZM24.0984 12.0638L24.0601 11.4906C23.8111 11.5073 23.6014 11.6832 23.5413 11.9258C23.4814 12.1685 23.5851 12.4221 23.7977 12.553L24.0984 12.0638ZM25.6402 21.5068L25.2267 21.1085L25.6402 21.5068ZM25.6475 23.292L25.2616 23.7171L25.6475 23.292ZM30.5292 27.7353L30.9151 27.3102L30.5292 27.7353ZM31.5794 27.9998L31.7186 28.5572L31.5794 27.9998ZM45.0744 21.5238L44.6273 21.8838L45.0744 21.5238ZM46.4754 12.6383L46.8129 13.1029C47.0138 12.9566 47.0979 12.6972 47.0211 12.4607C46.9442 12.224 46.724 12.0638 46.4754 12.0638V12.6383ZM36.1475 14.3617C36.1475 14.0445 35.8906 13.7872 35.5738 13.7872C35.2569 13.7872 35 14.0445 35 14.3617H36.1475ZM28.6885 30.4468L29.1751 30.1423L29.0929 30.0108L28.9558 29.9384L28.6885 30.4468ZM17.7869 24.7021L18.0541 24.1937C17.8763 24.1001 17.6624 24.1063 17.4904 24.2104C17.3182 24.3144 17.2131 24.501 17.2131 24.7021H17.7869ZM8.60655 27L8.88785 26.4993C8.71018 26.3992 8.49284 26.4011 8.31689 26.5041C8.14092 26.6072 8.03278 26.796 8.03278 27H8.60655ZM1.14753 40.7872L0.907088 40.2656C0.675583 40.3726 0.542362 40.6197 0.580071 40.8722C0.617779 41.1247 0.817373 41.322 1.07001 41.3564L1.14753 40.7872ZM14.3443 48.2553L13.7734 48.3125C13.798 48.5601 13.9793 48.7637 14.2223 48.8167C14.4652 48.8696 14.7146 48.7598 14.8399 48.5448L14.3443 48.2553ZM21.2295 43.6596L20.8852 44.1192C21.098 44.279 21.3926 44.2714 21.5968 44.1009L21.2295 43.6596ZM31.5574 35.0426L31.9247 35.4839L32.3092 35.1631L32.0439 34.7381L31.5574 35.0426ZM13.026 36.7919C12.7235 36.8864 12.5547 37.2085 12.6489 37.5114C12.7432 37.8143 13.065 37.9833 13.3675 37.8889L13.026 36.7919ZM42.459 30.4468L42.1918 29.9384C42.0545 30.0108 41.9524 30.1357 41.9085 30.2847L42.459 30.4468ZM53.3607 24.7021L53.9266 24.7966C53.9624 24.5813 53.8734 24.3643 53.6967 24.2365C53.5201 24.1087 53.2863 24.0922 53.0934 24.1937L53.3607 24.7021ZM63.1148 27.5745L63.6841 27.6457C63.709 27.4468 63.6284 27.2492 63.4715 27.1245C63.3148 26.9999 63.1043 26.9661 62.9164 27.0354L63.1148 27.5745ZM69.4262 40.7872L69.3925 41.3607C69.6613 41.3765 69.9048 41.2033 69.9782 40.944C70.0516 40.6848 69.9353 40.4092 69.6982 40.2815L69.4262 40.7872ZM56.2295 48.8298L55.6615 48.911C55.6982 49.1685 55.9033 49.3692 56.1612 49.4001C56.4192 49.4312 56.6658 49.2847 56.7622 49.0432L56.2295 48.8298ZM50.4918 43.0851L50.6732 42.5402C50.6615 42.5363 50.6497 42.5327 50.6378 42.5296L50.4918 43.0851ZM39.5902 40.2128L39.0397 40.0507L38.8731 40.6179L39.4442 40.7683L39.5902 40.2128ZM57.7694 37.8854C58.0701 37.9858 58.3949 37.8231 58.4951 37.5221C58.5954 37.2211 58.4329 36.8958 58.1323 36.7955L57.7694 37.8854ZM35.0209 0.995181C34.5614 2.65154 33.4485 5.18811 31.621 7.35608C29.7976 9.51906 27.3003 11.2744 24.0601 11.4906L24.1366 12.637C27.7816 12.3937 30.544 10.415 32.4979 8.09713C34.4477 5.78423 35.6299 3.09314 36.1267 1.30268L35.0209 0.995181ZM23.7977 12.553C24.8941 13.2286 26.1847 14.4409 26.7296 15.9302C26.9977 16.6636 27.0855 17.4628 26.8861 18.3132C26.6862 19.166 26.1885 20.1078 25.2267 21.1085L26.0535 21.9052C27.1288 20.7866 27.7473 19.6673 28.0032 18.5758C28.2598 17.4819 28.1431 16.4537 27.8071 15.5351C27.1434 13.7206 25.6262 12.3306 24.399 11.5746L23.7977 12.553ZM25.2616 23.7171L30.1433 28.1604L30.9151 27.3102L26.0336 22.8671L25.2616 23.7171ZM31.7186 28.5572L35.713 27.5574L35.4346 26.4427L31.4402 27.4425L31.7186 28.5572ZM35.4346 27.5574L37.7297 28.1318L38.008 27.0171L35.713 26.4427L35.4346 27.5574ZM37.7297 28.1318L39.3944 28.5484L39.6728 27.4338L38.008 27.0171L37.7297 28.1318ZM41.0291 28.0952L45.4521 23.6668L44.6406 22.8543L40.2176 27.2828L41.0291 28.0952ZM45.5216 21.1638C44.7414 20.1926 44.0874 18.8862 44.1013 17.4965C44.1148 16.1421 44.7636 14.5951 46.8129 13.1029L46.1379 12.1737C43.8521 13.8381 42.9715 15.7017 42.9537 17.485C42.9364 19.2327 43.7494 20.7908 44.6273 21.8838L45.5216 21.1638ZM35.0322 1.33871C35.717 3.29769 37.0922 6.22938 39.009 8.68367C40.9101 11.1175 43.4489 13.2128 46.4754 13.2128V12.0638C43.9937 12.0638 41.7512 10.3293 39.9131 7.9759C38.0909 5.64296 36.7693 2.82998 36.1153 0.959158L35.0322 1.33871ZM36.1475 27V14.3617H35V27H36.1475ZM28.9558 29.9384L18.0541 24.1937L17.5196 25.2105L28.4213 30.9552L28.9558 29.9384ZM17.2131 24.7021C17.2131 25.8513 16.7858 27.2024 15.6682 27.8357C14.5615 28.4628 12.5084 28.5384 8.88785 26.4993L8.32525 27.5007C12.0489 29.5978 14.586 29.7692 16.2335 28.8355C17.87 27.9082 18.3607 26.0423 18.3607 24.7021H17.2131ZM8.03278 27C8.03278 28.657 7.6714 31.3377 6.58561 33.9299C5.50064 36.5203 3.71738 38.967 0.907088 40.2656L1.38798 41.3089C4.5449 39.8501 6.49115 37.1265 7.64388 34.3743C8.79579 31.624 9.18032 28.7898 9.18032 27H8.03278ZM1.07001 41.3564C3.13737 41.6387 6.26503 42.3455 8.91664 43.5373C10.2426 44.1334 11.4215 44.8384 12.2884 45.65C13.1532 46.4597 13.6766 47.3447 13.7734 48.3125L14.9152 48.1981C14.7824 46.8681 14.0675 45.7425 13.0722 44.8108C12.0791 43.8811 10.7765 43.114 9.38663 42.4893C6.60653 41.2396 3.36535 40.5102 1.22506 40.2181L1.07001 41.3564ZM14.8399 48.5448C15.4723 47.4594 16.686 46.0211 17.9533 45.0318C18.5876 44.5365 19.2004 44.1815 19.7309 44.0236C20.2559 43.8672 20.6228 43.922 20.8852 44.1192L21.5738 43.2C20.9182 42.7078 20.1328 42.7052 19.4038 42.9222C18.6804 43.1376 17.9377 43.587 17.2475 44.1257C15.8659 45.2044 14.5551 46.7534 13.8486 47.9659L14.8399 48.5448ZM21.5968 44.1009L31.9247 35.4839L31.19 34.6013L20.8622 43.2183L21.5968 44.1009ZM32.0439 34.7381L30.2509 31.8658L29.2778 32.4747L31.0708 35.347L32.0439 34.7381ZM30.2509 31.8658L29.1751 30.1423L28.202 30.7513L29.2778 32.4747L30.2509 31.8658ZM29.5936 31.6217L13.026 36.7919L13.3675 37.8889L29.9351 32.7187L29.5936 31.6217ZM42.7263 30.9552L53.6279 25.2105L53.0934 24.1937L42.1918 29.9384L42.7263 30.9552ZM52.7947 24.6077C52.5816 25.888 52.8546 27.7003 54.5301 28.6999C56.1602 29.6724 58.9144 29.7361 63.3132 28.1136L62.9164 27.0354C58.5938 28.6299 56.2797 28.4063 55.1174 27.7129C54.0005 27.0465 53.7572 25.8142 53.9266 24.7966L52.7947 24.6077ZM62.5455 27.5032C62.3443 29.1142 62.4359 31.7033 63.3477 34.3131C64.263 36.9328 66.0162 39.6013 69.1543 41.293L69.6982 40.2815C66.8691 38.7562 65.2752 36.3503 64.431 33.9337C63.5832 31.5074 63.5027 29.0985 63.6841 27.6457L62.5455 27.5032ZM69.46 40.2138C67.7501 40.113 65.0443 40.4135 62.4018 41.6296C59.747 42.8514 57.1386 45.0074 55.6968 48.6164L56.7622 49.0432C58.0745 45.7586 60.4388 43.7976 62.881 42.6736C65.3355 41.544 67.8509 41.2699 69.3925 41.3607L69.46 40.2138ZM50.3104 43.6301C51.1133 43.8981 52.3683 44.4981 53.4683 45.4092C54.5704 46.3219 55.4599 47.4975 55.6615 48.911L56.7975 48.7486C56.5402 46.9451 55.4214 45.5356 54.1997 44.5238C52.976 43.5105 51.5916 42.8466 50.6732 42.5402L50.3104 43.6301ZM50.6378 42.5296L39.7361 39.6573L39.4442 40.7683L50.3458 43.6406L50.6378 42.5296ZM40.1406 40.3749L43.0095 30.6089L41.9085 30.2847L39.0397 40.0507L40.1406 40.3749ZM42.2776 32.7152L57.7694 37.8854L58.1323 36.7955L42.6404 31.6253L42.2776 32.7152ZM39.3944 28.5484C39.981 28.6953 40.6015 28.5233 41.0291 28.0952L40.2176 27.2828C40.0751 27.4255 39.8683 27.4828 39.6728 27.4338L39.3944 28.5484ZM30.1433 28.1604C30.5691 28.548 31.1602 28.6969 31.7186 28.5572L31.4402 27.4425C31.2542 27.4891 31.057 27.4395 30.9151 27.3102L30.1433 28.1604ZM45.4521 23.6668C46.1613 22.9567 46.0821 21.8617 45.5216 21.1638L44.6273 21.8838C44.8908 22.2117 44.8613 22.6335 44.6406 22.8543L45.4521 23.6668ZM25.2267 21.1085C24.5507 21.8119 24.475 23.0011 25.2616 23.7171L26.0336 22.8671C25.7893 22.6446 25.7636 22.207 26.0535 21.9052L25.2267 21.1085Z" fill="black"/>
<path d="M41.0378 51.4281C36.7527 50.2785 34.2096 45.8684 35.3579 41.5779C36.5061 37.2876 40.9107 34.7414 45.196 35.891C49.4812 37.0407 52.0242 41.4506 50.8761 45.7411C49.7278 50.0316 45.3231 52.5777 41.0378 51.4281Z" fill="#24262B"/>
<path d="M41.3349 50.3182C37.6619 49.3329 35.4821 45.5529 36.4663 41.8754C37.4505 38.1979 41.2259 36.0155 44.899 37.0008C48.572 37.9862 50.7518 41.7662 49.7675 45.4438C48.7834 49.1213 45.008 51.3037 41.3349 50.3182Z" fill="#EB4D4D"/>
<path d="M47.2536 45.9588C46.6414 45.7945 46.2781 45.1646 46.4421 44.5516C46.6062 43.9388 47.2354 43.575 47.8476 43.7392C48.4598 43.9035 48.823 44.5334 48.659 45.1464C48.495 45.7592 47.8657 46.123 47.2536 45.9588Z" fill="#24262B"/>
<path d="M30.2777 51.4281C34.563 50.2785 37.1061 45.8684 35.9578 41.5779C34.8096 37.2876 30.4049 34.7414 26.1197 35.891C21.8345 37.0407 19.2914 41.4506 20.4396 45.7411C21.5879 50.0316 25.9926 52.5777 30.2777 51.4281Z" fill="#24262B"/>
<path d="M29.9808 50.3182C33.6539 49.3329 35.8336 45.5529 34.8495 41.8754C33.8652 38.1979 30.0898 36.0155 26.4168 37.0008C22.7437 37.9862 20.564 41.7662 21.5482 45.4438C22.5324 49.1213 26.3078 51.3037 29.9808 50.3182Z" fill="#EB4D4D"/>
<path d="M24.062 45.9588C24.6742 45.7945 25.0375 45.1646 24.8734 44.5516C24.7094 43.9388 24.0802 43.575 23.468 43.7392C22.8558 43.9035 22.4925 44.5334 22.6566 45.1464C22.8206 45.7592 23.4499 46.123 24.062 45.9588Z" fill="#24262B"/>
<path d="M43.6066 34.4681C43.6066 38.9099 40.0102 42.5106 35.5738 42.5106C31.1374 42.5106 27.541 38.9099 27.541 34.4681C27.541 30.0263 31.1374 26.4255 35.5738 26.4255C40.0102 26.4255 43.6066 30.0263 43.6066 34.4681Z" fill="#24262B"/>
<path d="M42.459 34.4681C42.459 38.2753 39.3763 41.3617 35.5737 41.3617C31.7711 41.3617 28.6885 38.2753 28.6885 34.4681C28.6885 30.6609 31.7711 27.5745 35.5737 27.5745C39.3763 27.5745 42.459 30.6609 42.459 34.4681Z" fill="#EB4D4D"/>
<path d="M36.7213 29.8723C36.7213 30.5069 36.2076 31.0213 35.5738 31.0213C34.94 31.0213 34.4263 30.5069 34.4263 29.8723C34.4263 29.2378 34.94 28.7234 35.5738 28.7234C36.2076 28.7234 36.7213 29.2378 36.7213 29.8723Z" fill="#24262B"/>
</g>
<defs>
<clipPath id="clip0_154_9612">
<rect width="70" height="54" fill="white"/>
</clipPath>
</defs>
</svg>
