<svg width="70" height="70" viewBox="0 0 70 70" fill="none" xmlns="http://www.w3.org/2000/svg">
<path d="M35.3277 53.3784C35.4064 55.147 34.4814 56.674 33.2612 56.7876C32.036 56.9084 30.9781 55.573 30.8995 53.8117C30.8896 53.6696 30.8896 53.5134 30.8995 53.3784L32.5182 18.7106C32.5379 18.2347 32.8232 17.8726 33.153 17.9081C33.4531 17.9365 33.6894 18.2846 33.709 18.7106L35.3277 53.3784Z" fill="#8BC34A"/>
<path d="M32.708 49.99C35.6156 43.1994 41.8704 41.1094 42.135 41.0241C42.4798 40.9128 42.8444 41.1011 42.9545 41.4427C43.0658 41.7844 42.8787 42.1515 42.5365 42.2634C42.4773 42.2826 36.5737 44.2727 33.9053 50.5027C33.5668 51.2958 32.3682 50.782 32.708 49.99Z" fill="#8BC34A"/>
<path d="M50.7685 43.4797C45.8289 47.1986 40.0272 47.8239 37.8058 44.8735C35.5875 41.9272 37.7925 36.5245 42.7322 32.8055C47.6677 29.0896 53.4694 28.4644 55.6876 31.4107C57.9089 34.3611 55.7039 39.7638 50.7685 43.4797ZM39.7905 11.1491C39.8409 17.3321 36.8918 22.3674 33.1988 22.3975C29.5109 22.4276 26.4803 17.4411 26.4298 11.2581C26.3795 5.08032 29.3285 0.0451073 33.0164 0.0150292C36.7096 -0.0151857 39.7402 4.97136 39.7905 11.1491Z" fill="#8BC34A"/>
<path d="M32.6572 50.5026C30.4099 45.255 25.4365 43.5766 25.3863 43.5601C25.0447 43.4481 24.8576 43.081 24.9689 42.7393C25.0809 42.3977 25.4461 42.2094 25.7884 42.3207C26.0149 42.3939 31.3675 44.1817 33.8545 49.99C34.1946 50.7826 32.9954 51.2952 32.6572 50.5026Z" fill="#8BC34A"/>
<path d="M18.4262 44.4996C22.6213 47.658 27.5485 48.1891 29.4351 45.6833C31.3189 43.1811 29.4463 38.5928 25.2512 35.4343C21.0597 32.2786 16.1325 31.7476 14.2485 34.2498C12.3621 36.7556 14.2347 41.3439 18.4262 44.4996Z" fill="#8BC34A"/>
<path d="M32.6571 33.0132C35.1442 27.205 40.4969 25.4173 40.7233 25.3441C41.0662 25.2315 41.4313 25.4204 41.5428 25.7628C41.6541 26.1044 41.467 26.4715 41.1254 26.5835C41.075 26.6 36.1016 28.2784 33.8545 33.5261C33.5161 34.3192 32.3175 33.8054 32.6571 33.0132Z" fill="#8BC34A"/>
<path d="M48.0856 27.523C43.8905 30.6813 38.9633 31.2125 37.0767 28.7067C35.1929 26.2045 37.0655 21.6161 41.2606 18.4577C45.4521 15.302 50.3793 14.771 52.2633 17.2732C54.1497 19.779 52.2772 24.3673 48.0856 27.523Z" fill="#8BC34A"/>
<path d="M32.591 35.0079C30.3437 29.7602 25.3703 28.0819 25.3201 28.0653C24.9785 27.9534 24.7915 27.5863 24.9027 27.2446C25.014 26.903 25.3787 26.7159 25.7222 26.826C25.9488 26.8991 31.3013 28.687 33.7884 34.4951C34.1284 35.2878 32.9292 35.8003 32.591 35.0079Z" fill="#8BC34A"/>
<path d="M18.3596 29.0045C22.5546 32.1628 27.4818 32.694 29.3684 30.1882C31.2523 27.686 29.3796 23.0976 25.1846 19.9392C20.993 16.7835 16.0658 16.2525 14.1819 18.7547C12.2954 21.2605 14.168 25.8488 18.3596 29.0045Z" fill="#8BC34A"/>
<path d="M43.587 53.0734V55.1126C43.587 55.4842 43.2858 55.7854 42.9142 55.7854H23.3105C22.9389 55.7854 22.6377 55.4842 22.6377 55.1126V53.0734C22.6377 52.7018 22.9389 52.4006 23.3105 52.4006H42.9142C43.2858 52.4006 43.587 52.7018 43.587 53.0734Z" fill="#3A4C63"/>
<path d="M39.6765 68.9041L42.3061 55.7854H23.9187L26.5483 68.9041C26.6744 69.5327 27.2265 69.9853 27.8677 69.9853H38.3572C38.9984 69.9853 39.5506 69.5329 39.6765 68.9041Z" fill="#3A4C63"/>
<path opacity="0.4" d="M26.9064 65.9341L27.3299 68.0486C27.3908 68.3525 27.6865 68.5494 27.9903 68.4886C28.2942 68.4277 28.4912 68.132 28.4304 67.8281L28.0068 65.7136C27.9543 65.4514 27.7241 65.2627 27.4565 65.2627C27.1024 65.2627 26.8368 65.5869 26.9064 65.9341Z" fill="white"/>
<path opacity="0.08" d="M43.5879 53.0745V55.1131C43.5879 55.4832 43.2851 55.7859 42.9151 55.7859H42.3063L39.6757 68.9055C39.5513 69.5345 38.9995 69.9853 38.3571 69.9853H36.2983C36.9409 69.9853 37.4926 69.5345 37.6204 68.9055L40.2476 55.7859H40.8565C41.2299 55.7859 41.5293 55.4832 41.5293 55.1131V53.0745C41.5293 52.7011 41.2299 52.4017 40.8565 52.4017H42.9153C43.2851 52.4017 43.5879 52.7011 43.5879 53.0745Z" fill="black"/>
</svg>
