<svg width="70" height="70" viewBox="0 0 70 70" fill="none" xmlns="http://www.w3.org/2000/svg">
<path d="M40.4214 65.4686L58.5378 49.7373V37.4169L40.4214 53.1481V65.4686Z" fill="#78B82E"/>
<path d="M65.7842 9.58897L33.1736 37.564V54.8099L65.7842 26.8349V9.58897Z" fill="#78B82E"/>
<path d="M59.8049 52.7524H33.9387V70H59.8049V52.7524Z" fill="#78B82E"/>
<path d="M65.7993 4.51664L4.2019 15.7817V37.9552L65.7993 26.6901V4.51664Z" fill="#8BC34A"/>
<path d="M51.5363 9.3291L44.5259 10.6829V27.0322L51.5363 25.6784V23.34L47.0957 24.1966V19.4114L50.6255 18.7271V16.3936L47.0957 17.073V12.5192L51.5363 11.6626V9.3291ZM39.1599 11.7217L36.5901 12.2189V28.5682L43.3887 27.2537V24.9153L39.1599 25.7325V11.7217ZM32.7993 12.9524L29.0431 13.6761L26.4241 30.5325L28.7822 30.0746L29.2302 27.0224L32.3809 26.4168L32.824 29.2968L35.4184 28.7946L32.7993 12.9524ZM22.7269 14.7789C22.4526 14.7859 22.1581 14.8218 21.8457 14.8822C19.3466 15.3657 18.0648 17.1109 18.0648 19.7265C18.0648 24.3976 23.0863 24.053 23.0863 27.4162C23.0863 28.584 22.5696 29.1043 21.7521 29.2623C20.9347 29.4211 20.4229 29.1001 20.4229 27.9331V26.7664L17.991 27.234V28.2383C17.991 30.8542 19.2987 32.0986 21.8211 31.6106C24.3435 31.1229 25.6512 29.3724 25.6512 26.7565C25.6512 22.0856 20.6297 22.4251 20.6297 19.0619C20.6297 17.8941 21.0972 17.3642 21.9146 17.2059C22.732 17.0471 23.1995 17.4028 23.1995 18.5696V19.244L25.6315 18.7763V18.2594C25.6315 15.9708 24.6469 14.7295 22.7269 14.7789V14.7789ZM30.7908 16.2361L32.0314 24.2655L29.5551 24.743L30.7908 16.2361Z" fill="white"/>
<path d="M65.7245 1.99854C65.5973 2.00208 65.4706 2.01524 65.3454 2.03792L3.74881 13.3017C3.16822 13.4078 2.64327 13.7143 2.26543 14.1677C1.88759 14.6211 1.68082 15.1927 1.68115 15.7829V37.9561C1.68096 38.3256 1.76199 38.6906 1.91851 39.0253C2.07504 39.36 2.30323 39.6562 2.58693 39.893C2.87062 40.1297 3.20289 40.3012 3.56021 40.3952C3.91753 40.4893 4.29116 40.5037 4.65464 40.4373L31.7213 35.4897L31.5342 35.6472C31.2578 35.8839 31.0359 36.1777 30.8838 36.5082C30.7317 36.8388 30.653 37.1984 30.653 37.5623V54.8076V54.8323C30.653 55.2054 30.7359 55.574 30.8956 55.9112C31.0553 56.2485 31.288 56.5461 31.5767 56.7826C31.8654 57.019 32.203 57.1884 32.5652 57.2785C32.9273 57.3686 33.3049 57.3772 33.6708 57.3036L37.8997 56.4569V65.4758C37.8991 65.9596 38.0378 66.4334 38.2993 66.8405C38.5607 67.2477 38.9337 67.571 39.3739 67.7719C39.8141 67.9727 40.3027 68.0427 40.7816 67.9734C41.2604 67.9041 41.7092 67.6984 42.0744 67.381L59.4722 52.2723H58.5369C59.2054 52.2722 59.8464 52.0067 60.3191 51.534C60.7918 51.0613 61.0574 50.4202 61.0574 49.7517V37.4344V34.2246L67.3097 28.8585L66.5958 29.0997C67.0368 28.9522 67.4284 28.6856 67.7273 28.3294C68.0262 27.9732 68.2207 27.5412 68.2893 27.0813C68.293 27.0567 68.2962 27.0321 68.2992 27.0075C68.3013 26.9812 68.3029 26.955 68.3042 26.9287C68.3124 26.8551 68.3174 26.7812 68.3191 26.7071V4.53395C68.3192 4.19665 68.2516 3.86275 68.1203 3.55204C67.9891 3.24133 67.7968 2.96013 67.5548 2.72509C67.3129 2.49005 67.0263 2.30595 66.7119 2.1837C66.3975 2.06144 66.0618 2.00353 65.7247 2.01338V1.9986L65.7245 1.99854ZM65.7983 4.51911V26.6923L65.7834 26.6973V26.8352L58.5368 33.0529V37.4196V49.737V49.742H58.5317L40.42 65.4661V53.3703L33.1734 54.8226V54.8077V37.5624L40.4397 31.3299L4.20151 37.9563V15.7831L65.7981 4.51925L65.7983 4.51911Z" fill="#E9EDED"/>
</svg>
