<svg width="70" height="70" viewBox="0 0 70 70" fill="none" xmlns="http://www.w3.org/2000/svg">
<g clip-path="url(#clip0_160_7850)">
<path d="M66.3274 41.2429C69.4623 37.6712 69.4623 32.3287 66.3274 28.7571C64.6133 26.8041 63.7777 24.2316 64.0164 21.6441C64.4532 16.9098 61.3113 12.5845 56.6736 11.5375C54.1374 10.9649 51.9482 9.37444 50.6198 7.13934C48.1919 3.05427 43.1075 1.40378 38.741 3.27884C36.3538 4.30393 33.6461 4.30393 31.2589 3.27884C26.8924 1.40378 21.808 3.05427 19.3801 7.13934C18.0517 9.37444 15.8625 10.9649 13.3263 11.5375C8.6886 12.5845 5.5467 16.9098 5.98352 21.6441C6.22226 24.2316 5.38661 26.8041 3.67249 28.7571C0.537675 32.3287 0.537675 37.6712 3.67249 41.2429C5.38662 43.1958 6.22226 45.7683 5.98352 48.3559C5.5467 53.0902 8.6886 57.4155 13.3263 58.4625C15.8625 59.0351 18.0517 60.6255 19.3801 62.8606C21.808 66.9457 26.8924 68.5962 31.2589 66.7211C33.6461 65.696 36.3538 65.696 38.741 66.7211C43.1075 68.5962 48.1919 66.9457 50.6198 62.8606C51.9482 60.6255 54.1374 59.0351 56.6736 58.4625C61.3113 57.4155 64.4532 53.0902 64.0164 48.3559C63.7777 45.7683 64.6133 43.1958 66.3274 41.2429ZM38.346 48.3843C38.346 50.2323 36.848 51.7304 35 51.7304C33.152 51.7304 31.6539 50.2323 31.6539 48.3843C31.6539 46.5363 33.152 45.0382 35 45.0382C36.848 45.0382 38.346 46.5363 38.346 48.3843ZM38.346 35C38.346 36.848 36.848 38.3461 35 38.3461C33.152 38.3461 31.6539 36.848 31.6539 35V21.6157C31.6539 19.7677 33.152 18.2696 35 18.2696C36.848 18.2696 38.346 19.7677 38.346 21.6157V35Z" fill="#8BC34A"/>
<path d="M38.346 35C38.346 36.848 36.848 38.3461 35 38.3461C33.152 38.3461 31.6539 36.848 31.6539 35V21.6157C31.6539 19.7677 33.152 18.2696 35 18.2696C36.848 18.2696 38.346 19.7677 38.346 21.6157V35Z" fill="#8BC34A"/>
<path d="M38.346 48.3843C38.346 50.2323 36.848 51.7304 35 51.7304C33.152 51.7304 31.6539 50.2323 31.6539 48.3843C31.6539 46.5363 33.152 45.0382 35 45.0382C36.848 45.0382 38.346 46.5363 38.346 48.3843Z" fill="#8BC34A"/>
<path d="M31.8828 51.8984C31.9047 52.3578 32.0359 52.8063 32.2766 53.1453C32.5281 53.5063 32.8563 53.7031 33.2063 53.7031H58.8438C59.1828 53.7031 59.5219 53.5063 59.7734 53.1453C60.0031 52.8063 60.1453 52.3578 60.1672 51.8984H31.8828ZM60.0906 51.1109L57.0609 27.9453C57.05 27.825 56.9734 27.7375 56.8859 27.7375H54.1187V24.4016C54.1187 19.9391 50.4875 16.2969 46.0141 16.2969C43.8484 16.2969 41.8141 17.1391 40.2828 18.6703C38.7516 20.1906 37.9094 22.225 37.9094 24.3906V27.7266H35.1422C35.0547 27.7266 34.9781 27.825 34.9672 27.9344L31.9375 51.1109H60.0906ZM46.025 47.0641C42.4047 47.0641 39.4734 44.1328 39.4734 40.5125C39.4734 36.8922 42.4047 33.9609 46.025 33.9609C49.6453 33.9609 52.5766 36.8922 52.5766 40.5125C52.5656 44.1328 49.6344 47.0641 46.025 47.0641ZM39.3641 24.4016C39.3641 22.6188 40.0531 20.9563 41.3109 19.6984C42.5688 18.4406 44.2422 17.7516 46.0141 17.7516C49.6891 17.7516 52.675 20.7375 52.675 24.4016V27.7375H39.3641V24.4016Z" fill="#F9F9F9"/>
<path d="M43.9141 39.55C44.2203 39.55 44.5047 39.4297 44.7125 39.2219C44.9313 39.0031 45.0406 38.7188 45.0406 38.4235C45.0406 38.1172 44.9203 37.8328 44.7125 37.625C44.4938 37.4063 44.2094 37.2969 43.9141 37.2969C43.6078 37.2969 43.3234 37.4172 43.1156 37.625C42.8969 37.8438 42.7875 38.1281 42.7875 38.4235C42.7875 38.7297 42.9078 39.0141 43.1156 39.2219C43.3344 39.4406 43.6188 39.55 43.9141 39.55ZM48.125 41.486C47.8187 41.486 47.5344 41.6063 47.3266 41.8141C47.1188 42.0219 46.9984 42.3172 46.9984 42.6125C46.9984 42.9188 47.1188 43.2031 47.3266 43.4109C47.5453 43.6297 47.8297 43.7391 48.125 43.7391C48.4313 43.7391 48.7156 43.6188 48.9234 43.4109C49.1422 43.1922 49.2516 42.9078 49.2516 42.6125C49.2516 42.3063 49.1312 42.0219 48.9234 41.8141C48.7047 41.6063 48.4203 41.486 48.125 41.486ZM48.7922 37.1219C48.6281 37.1219 48.4641 37.1875 48.3438 37.3078L42.7984 42.8531C42.6781 42.9734 42.6125 43.1266 42.6125 43.3016C42.6125 43.4656 42.6781 43.6297 42.7984 43.75C42.9188 43.8703 43.0719 43.9359 43.2469 43.9359C43.4109 43.9359 43.575 43.8703 43.6953 43.75L49.2406 38.2047C49.3609 38.0844 49.4266 37.9313 49.4266 37.7563C49.4266 37.5922 49.3609 37.4281 49.2406 37.3078C49.1203 37.1875 48.9562 37.1219 48.7922 37.1219ZM23.5812 48.1031C22.0391 48.1031 20.7812 49.361 20.7812 50.9031C20.7812 52.4453 22.0391 53.7031 23.5812 53.7031C25.1234 53.7031 26.3813 52.4453 26.3813 50.9031C26.3813 49.361 25.1234 48.1031 23.5812 48.1031ZM30.0234 41.9891H32.3531L32.5609 40.425H29.6844L28.9078 36.8703H33.0203L33.2281 35.3063H28.5688L27.7922 31.7516H33.6875L33.8953 30.1875H16.45L15.1922 25.025C15.1156 24.675 14.7984 24.4344 14.4375 24.4344H10.6203C10.1938 24.4453 9.84375 24.7953 9.84375 25.2328C9.84375 25.6594 10.1938 26.0094 10.6203 26.0094H13.825L18.8453 46.7578C18.9328 47.1078 19.2391 47.3594 19.6 47.3594H31.6422L31.85 45.7953H30.8547L30.0234 41.9891ZM26.1953 31.7625L26.9719 35.3172H23.2422L22.4656 31.7625H26.1953ZM16.8219 31.7625H20.8687L21.6453 35.3172H17.6859L16.8219 31.7625ZM18.9219 40.425L18.0688 36.8703H21.9953L22.7719 40.425H18.9219ZM20.2234 45.7953L19.3047 41.9891H23.1109L23.9422 45.7953H20.2234ZM23.5922 36.8813H27.3109L28.0875 40.436H24.3578L23.5922 36.8813ZM25.5391 45.7953L24.7078 41.9891H28.4266L29.2578 45.7953H25.5391Z" fill="#F9F9F9"/>
</g>
<defs>
<clipPath id="clip0_160_7850">
<rect width="70" height="70" fill="white"/>
</clipPath>
</defs>
</svg>
