<svg width="70" height="33" viewBox="0 0 70 33" fill="none" xmlns="http://www.w3.org/2000/svg">
<g clip-path="url(#clip0_154_9537)">
<path d="M16.7605 12.6276C20.2549 7.79449 32.1935 -3.41809 41.8912 4.14803C42.5167 4.63614 43.3491 4.77416 44.1018 4.53296C47.4196 3.46963 52.6515 3.3896 54.7817 9.09749C55.0869 9.91502 55.7977 10.5209 56.6467 10.6714C62.2731 11.6683 70.0114 16.8025 64.5774 31.5H56.6901H50.7746H37.9577H23.6619H18.2394H2.95767C-0.564253 16.6615 8.89507 11.5919 16.7605 12.6276Z" fill="#AEDB81"/>
<path d="M50 29.4024L46.9516 19.9024M45 14.4024L46.9516 19.9024M46.9516 19.9024L51.5 16.4024M56.5 29.4024L59.5 22.9024" stroke="#B57F5F" stroke-width="2" stroke-linecap="round" stroke-linejoin="round"/>
<path d="M16.7606 12.6276L16.6337 13.6193L16.7606 12.6276ZM41.8913 4.14802L42.4924 3.35539L41.8913 4.14802ZM44.1019 4.53295L43.8048 3.57941L44.1019 4.53295ZM54.7818 9.09748L55.7038 8.74345V8.74344L54.7818 9.09748ZM56.6468 10.6714L56.4771 11.6564L56.6468 10.6714ZM0.985915 30.5C0.441409 30.5 0 30.9477 0 31.5C0 32.0523 0.441409 32.5 0.985915 32.5V30.5ZM24.3704 16.407L25.1205 15.7581L24.3704 16.407ZM34.6891 19L35.2543 18.1805L34.6891 19ZM26.4595 17.3392L26.55 18.335L26.4595 17.3392ZM68.5211 32.5C69.0656 32.5 69.507 32.0523 69.507 31.5C69.507 30.9477 69.0656 30.5 68.5211 30.5V32.5ZM17.5556 13.219C19.2338 10.8978 22.9837 7.00037 27.4572 4.62395C31.9165 2.25497 36.8712 1.49294 41.2901 4.94065L42.4924 3.35539C37.2138 -0.763028 31.3501 0.298173 26.5422 2.85224C21.7484 5.39885 17.7817 9.52429 15.9655 12.0362L17.5556 13.219ZM44.3989 5.48648C45.9464 4.9905 47.8786 4.74782 49.6232 5.2395C51.3106 5.71509 52.9061 6.89642 53.8598 9.45152L55.7038 8.74344C54.5271 5.59064 52.4416 3.95805 50.1511 3.31251C47.9178 2.68307 45.575 3.01207 43.8048 3.57941L44.3989 5.48648ZM56.4771 11.6564C59.1137 12.1236 62.1548 13.547 63.9189 16.4701C65.6656 19.3644 66.3066 23.9752 63.6544 31.1489L65.5006 31.8511C68.2822 24.3274 67.7711 19.0223 65.6006 15.4259C63.4474 11.8582 59.8062 10.216 56.8164 9.68626L56.4771 11.6564ZM2.95775 30.5H0.985915V32.5H2.95775V30.5ZM25.1205 15.7581C23.2034 13.4782 20.1274 12.0626 16.8875 11.6359L16.6337 13.6193C19.5277 14.0004 22.101 15.2492 23.6202 17.0559L25.1205 15.7581ZM16.8875 11.6359C12.731 11.0886 8.0631 12.1398 4.88668 15.4091C1.67175 18.7179 0.184199 24.0871 1.99922 31.7341L3.91627 31.266C2.20938 24.0745 3.69053 19.4895 6.29114 16.8129C8.93025 14.0966 12.9247 13.1309 16.6337 13.6193L16.8875 11.6359ZM18.2394 30.5H2.95775V32.5H18.2394V30.5ZM37.9577 30.5H23.662V32.5H37.9577V30.5ZM23.662 30.5H18.2394V32.5H23.662V30.5ZM38.916 31.7356C39.3801 29.7934 39.6083 27.2544 39.1662 24.788C38.7226 22.314 37.5864 19.835 35.2543 18.1805L34.1241 19.8195C35.9074 21.0846 36.8447 23.0184 37.2261 25.1458C37.6089 27.281 37.4136 29.5322 36.9995 31.2644L38.916 31.7356ZM35.2543 18.1805C33.1758 16.7061 30.2746 15.9785 26.3691 16.3434L26.55 18.335C30.1329 18.0002 32.5302 18.6888 34.1241 19.8195L35.2543 18.1805ZM50.7746 30.5H37.9577V32.5H50.7746V30.5ZM68.5211 30.5H64.5775V32.5H68.5211V30.5ZM64.5775 30.5H56.6901V32.5H64.5775V30.5ZM56.6901 30.5H50.7746V32.5H56.6901V30.5ZM23.6202 17.0559C24.3082 17.8742 25.374 18.4448 26.55 18.335L26.3691 16.3434C25.9468 16.3828 25.474 16.1785 25.1205 15.7581L23.6202 17.0559ZM53.8598 9.45151C54.2858 10.5931 55.2785 11.4441 56.4771 11.6564L56.8164 9.68626C56.3171 9.59778 55.8881 9.23694 55.7038 8.74345L53.8598 9.45151ZM41.2901 4.94065C42.1793 5.63443 43.3489 5.82299 44.3989 5.48648L43.8048 3.57941C43.3496 3.72531 42.8544 3.63783 42.4924 3.35539L41.2901 4.94065Z" fill="#AEDB81"/>
<path d="M36.3234 14.75L34.507 19M37.9577 10.5L36.3234 14.75L37.9577 10.5ZM36.3234 14.75L32.5352 10L36.3234 14.75Z" stroke="#B57F5F" stroke-width="2" stroke-linecap="round" stroke-linejoin="round"/>
<mask id="mask0_154_9537" style="mask-type:alpha" maskUnits="userSpaceOnUse" x="0" y="11" width="40" height="23">
<path d="M39.4366 11.498H0V33.498H39.4366V11.498Z" fill="white"/>
<path d="M2.95766 31.5C-1.93756 10.8755 18.2459 9.12353 24.3703 16.407C24.891 17.0263 25.6603 17.4139 26.4594 17.3392C30.2037 16.9894 32.8529 17.6975 34.6891 19C38.8047 21.9196 38.8359 27.8256 37.9577 31.5H23.6619H18.2394H2.95766Z" fill="black"/>
</mask>
<g mask="url(#mask0_154_9537)">
<path d="M2.95766 31.5C-1.93756 10.8755 18.2459 9.12353 24.3703 16.407C24.891 17.0263 25.6603 17.4139 26.4594 17.3392C30.2037 16.9894 32.8529 17.6975 34.6891 19C38.8047 21.9196 38.8359 27.8256 37.9577 31.5H23.6619H18.2394H2.95766Z" fill="#8BC34A"/>
<path d="M0.985878 31C0.713625 31 0.49292 31.2239 0.49292 31.5C0.49292 31.7762 0.713625 32 0.985878 32V31ZM2.95771 31H0.985878V32H2.95771V31ZM2.95771 31.5L1.99918 31.7341L2.18097 32.5H2.95771V31.5ZM24.3703 16.407L25.1205 15.7581L24.3703 16.407ZM37.9577 31.5V32.5H38.7331L38.9159 31.7356L37.9577 31.5ZM34.6891 19L35.2542 18.1806L34.6891 19ZM26.4595 17.3392L26.3691 16.3434L26.4595 17.3392ZM25.1205 15.7581C23.4103 13.7243 20.7791 12.3808 17.944 11.8113C15.1008 11.2402 11.9612 11.4274 9.16607 12.5593C6.35671 13.697 3.89286 15.7933 2.47682 19.0087C1.06535 22.2137 0.739566 26.4271 1.99918 31.7341L3.91624 31.266C2.72824 26.2607 3.08966 22.5209 4.2772 19.8244C5.46016 17.1382 7.50708 15.3847 9.89727 14.4167C12.3016 13.443 15.0502 13.2688 17.5609 13.7732C20.0797 14.2791 22.2681 15.448 23.6201 17.0559L25.1205 15.7581ZM18.2394 30.5H2.95771V32.5H18.2394V30.5ZM37.9577 30.5H23.6619V32.5H37.9577V30.5ZM23.6619 30.5H18.2394V32.5H23.6619V30.5ZM38.9159 31.7356C39.3801 29.7934 39.6082 27.2544 39.1661 24.788C38.7226 22.314 37.5864 19.835 35.2542 18.1806L34.1241 19.8195C35.9074 21.0846 36.8447 23.0184 37.2261 25.1458C37.6089 27.281 37.4136 29.5322 36.9995 31.2644L38.9159 31.7356ZM35.2542 18.1806C33.1757 16.7061 30.2746 15.9785 26.3691 16.3434L26.55 18.335C30.1329 18.0002 32.5301 18.6888 34.1241 19.8195L35.2542 18.1806ZM23.6201 17.0559C24.3082 17.8742 25.374 18.4448 26.55 18.335L26.3691 16.3434C25.9468 16.3829 25.4739 16.1785 25.1205 15.7581L23.6201 17.0559Z" fill="#8BC34A"/>
<path d="M18.2393 31L17.0293 27M17.0293 27L15.2816 20.5M17.0293 27L10.845 24.5M24.1548 31L28.0985 23.5" stroke="#B57F5F" stroke-width="2" stroke-linecap="round" stroke-linejoin="round"/>
<path d="M68.5211 32.5C69.0656 32.5 69.507 32.0523 69.507 31.5C69.507 30.9477 69.0656 30.5 68.5211 30.5V32.5ZM0.985915 30.5C0.441409 30.5 0 30.9477 0 31.5C0 32.0523 0.441409 32.5 0.985915 32.5V30.5ZM2.95775 30.5H0.985915V32.5H2.95775V30.5ZM18.2394 30.5H2.95775V32.5H18.2394V30.5ZM37.9577 30.5H23.662V32.5H37.9577V30.5ZM23.662 30.5H18.2394V32.5H23.662V30.5ZM50.7746 30.5H37.9577V32.5H50.7746V30.5ZM68.5211 30.5H56.6901V32.5H68.5211V30.5ZM56.6901 30.5H50.7746V32.5H56.6901V30.5Z" fill="#8BC34A"/>
</g>
</g>
<defs>
<clipPath id="clip0_154_9537">
<rect width="70" height="33" fill="white"/>
</clipPath>
</defs>
</svg>
