<svg width="58" height="71" viewBox="0 0 58 71" fill="none" xmlns="http://www.w3.org/2000/svg">
<path d="M29.0892 24.3028C29.7066 25.1735 31.2312 26.0005 31.2312 26.0005C26.8867 30.2904 26.4703 33.2708 27.697 35.9166C28.5188 36.9692 31.0905 37.9609 34.8026 33.5064C36.7459 34.3866 41.0053 35.0847 42.4967 30.8363C46.4514 32.6441 52.8241 29.2544 50.5191 22.475C57.694 25.4695 60.7786 13.0516 50.5191 13.5487C51.0741 10.7052 50.2241 5.18764 42.3838 5.86558C41.687 3.69992 39.0844 0.13692 34.2484 3.21026C32.4029 0.875144 27.6385 -2.39403 23.3448 3.21026C21.4052 1.87323 17.0061 0.532458 14.927 5.86558C12.1023 5.07464 6.40753 5.49268 6.22674 13.4924C0.860089 11.3456 -4.22432 22.2473 6.96149 23.3226C6.53594 26.4862 7.53329 32.418 14.927 30.8363C15.0868 32.1784 16.4318 34.9681 20.5339 35.3896C20.1407 33.3985 21.4683 31.1339 22.1812 30.2505L14.591 23.0878C14.591 23.0878 16.0589 22.1507 16.5498 21.5969C16.9271 21.1713 17.4739 20.1024 17.4739 20.1024L24.1692 26.6907C25.6486 23.621 26.9585 23.1303 28.3146 22.5755C28.3146 22.5755 28.6616 23.6997 29.0892 24.3028Z" fill="#8BC34A"/>
<path d="M31.1898 55.0872C31.2467 55.8134 31.1783 56.555 30.9921 57.2593C28.7966 65.5637 20.5342 64.7029 20.534 70.1158H41.867C41.6638 68.9885 40.7808 66.9292 38.7818 66.076C38.0745 65.7741 37.5815 64.8646 37.8568 64.1464C38.6783 62.0031 39.4169 58.3359 38.5909 53.7506C38.5676 53.6212 38.5968 53.4863 38.6738 53.3797L42.5008 48.0797C43.0803 47.277 42.9846 46.171 42.2757 45.4798C41.4991 44.7226 40.2602 44.7234 39.4846 45.4817L36.4736 48.4252C34.7977 42.9388 29.4908 39.7853 27.6971 35.9166C26.4704 33.2708 26.8868 30.2904 31.2313 26.0005C31.2313 26.0005 29.7067 25.1735 29.0893 24.3028C28.6617 23.6997 28.3147 22.5755 28.3147 22.5755C26.9586 23.1303 25.6487 23.621 24.1693 26.6907L17.474 20.1024C17.474 20.1024 16.9272 21.1713 16.5499 21.5969C16.059 22.1507 14.5911 23.0878 14.5911 23.0878L22.1813 30.2505C21.4684 31.1339 20.1408 33.3985 20.534 35.3896C24.364 47.5032 30.6218 47.8414 31.1898 55.0872Z" fill="#904C2A"/>
<path d="M17.5462 14.4622C18.7397 14.4622 19.7072 13.4947 19.7072 12.3012C19.7072 11.1077 18.7397 10.1402 17.5462 10.1402C16.3527 10.1402 15.3853 11.1077 15.3853 12.3012C15.3853 13.4947 16.3527 14.4622 17.5462 14.4622ZM39.8743 22.081C40.7182 22.9249 42.0864 22.9249 42.9303 22.081C43.7742 21.2371 43.7742 19.8689 42.9303 19.0249C42.0864 18.181 40.7182 18.181 39.8743 19.0249C39.0303 19.8689 39.0303 21.2371 39.8743 22.081ZM21.5089 11.8926C22.7023 11.8926 23.6698 10.9251 23.6698 9.73164C23.6698 8.53817 22.7023 7.57068 21.5089 7.57068C20.3154 7.57068 19.3479 8.53817 19.3479 9.73164C19.3479 10.9251 20.3154 11.8926 21.5089 11.8926ZM44.4932 23.066C45.3371 23.9099 46.7054 23.9099 47.5493 23.066C48.3932 22.2221 48.3932 20.8538 47.5493 20.0099C46.7054 19.166 45.3371 19.166 44.4932 20.0099C43.6493 20.8538 43.6493 22.2221 44.4932 23.066ZM21.5089 16.4745C22.7023 16.4745 23.6698 15.507 23.6698 14.3136C23.6698 13.1201 22.7023 12.1526 21.5089 12.1526C20.3154 12.1526 19.3479 13.1201 19.3479 14.3136C19.3479 15.507 20.3154 16.4745 21.5089 16.4745ZM41.2535 26.306C42.0974 27.1499 43.4656 27.1499 44.3095 26.306C45.1534 25.4621 45.1534 24.0938 44.3095 23.2499C43.4656 22.406 42.0974 22.406 41.2535 23.2499C40.4096 24.0938 40.4096 25.4621 41.2535 26.306Z" fill="#07B2CD" stroke="#332626" stroke-width="2"/>
</svg>
