<svg width="70" height="70" viewBox="0 0 70 70" fill="none" xmlns="http://www.w3.org/2000/svg">
<path d="M31.7562 55.5648C31.5472 55.5789 31.3421 55.589 31.1408 55.5954C31.1408 55.5954 33.7771 63.0357 31.1408 66.1898C30.0192 67.5315 27.4485 68.6898 27.4485 68.6898H42.2177C42.2177 68.6898 39.6218 67.112 38.5254 65.5648C35.9591 61.9433 38.5254 54.1395 38.5254 54.1395C36.4805 54.861 34.2049 55.3989 31.7562 55.5648Z" fill="#795548"/>
<path d="M31.1406 55.5954L31.1214 54.9708L30.2746 54.9975L30.5615 55.807L31.1406 55.5954ZM31.7559 55.5648L31.715 54.9411L31.7559 55.5648ZM31.1406 66.1898L30.6714 65.7853L31.1406 66.1898ZM27.4483 68.6898L27.1987 68.1184C26.9329 68.2381 26.786 68.5304 26.8462 68.8193C26.9065 69.1081 27.1575 69.3148 27.4483 69.3148V68.6898ZM42.2175 68.6898V69.3148C42.4942 69.3148 42.7369 69.1271 42.8106 68.8563C42.8843 68.5853 42.7708 68.2978 42.5334 68.1534L42.2175 68.6898ZM38.5252 65.5648L39.0246 65.1996L38.5252 65.5648ZM38.5252 54.1395L39.1088 54.3375L39.5052 53.132L38.3232 53.5491L38.5252 54.1395ZM31.1596 56.2201C31.3685 56.2135 31.5808 56.203 31.7968 56.1884L31.715 54.9411C31.5132 54.9548 31.3153 54.9646 31.1214 54.9708L31.1596 56.2201ZM31.1406 55.5954C30.5615 55.807 30.5615 55.8069 30.5614 55.8069C30.5615 55.8069 30.5615 55.8071 30.5616 55.8074C30.5617 55.8079 30.5621 55.8089 30.5626 55.8104C30.5637 55.8133 30.5653 55.8179 30.5675 55.8243C30.5718 55.8369 30.5786 55.8565 30.5873 55.8825C30.6051 55.9346 30.6309 56.0129 30.6633 56.1141C30.728 56.3168 30.8182 56.6115 30.9187 56.9758C31.12 57.7058 31.3605 58.7076 31.5205 59.8016C31.6809 60.8989 31.7568 62.0668 31.641 63.1354C31.5248 64.2086 31.2213 65.1274 30.6714 65.7853L31.6096 66.5943C32.3779 65.6751 32.7335 64.481 32.8644 63.2721C32.9958 62.0586 32.907 60.775 32.7379 59.618C32.5683 58.4576 32.3145 57.4024 32.1039 56.6386C31.9983 56.2561 31.9031 55.945 31.834 55.7284C31.7994 55.6201 31.7713 55.5354 31.7515 55.4769C31.7417 55.4478 31.7339 55.4251 31.7285 55.4095C31.7258 55.4016 31.7237 55.3956 31.7222 55.3913C31.7215 55.3891 31.7209 55.3874 31.7204 55.3861C31.7201 55.3855 31.72 55.385 31.7199 55.3846C31.7198 55.3844 31.7196 55.3843 31.7196 55.3841C31.7196 55.3839 31.7195 55.3838 31.1406 55.5954ZM30.6714 65.7853C30.1836 66.3688 29.3403 66.9494 28.567 67.4011C28.1894 67.6216 27.8449 67.8021 27.5951 67.9273C27.4704 67.9898 27.3697 68.0383 27.3011 68.0708C27.2666 68.087 27.2403 68.0993 27.2229 68.1074C27.2142 68.1114 27.2078 68.1143 27.2037 68.1161C27.2016 68.1171 27.2001 68.1178 27.1994 68.1181C27.1989 68.1183 27.1987 68.1184 27.1985 68.1185C27.1985 68.1185 27.1984 68.1185 27.1985 68.1185C27.1987 68.1185 27.1987 68.1184 27.4483 68.6898C27.6977 69.261 27.6979 69.261 27.698 69.261C27.698 69.2609 27.6981 69.2609 27.6981 69.2609C27.6983 69.2608 27.6986 69.2606 27.6988 69.2605C27.6993 69.2604 27.6999 69.26 27.7008 69.2596C27.7024 69.2589 27.7047 69.2579 27.7076 69.2566C27.7132 69.254 27.7214 69.2503 27.7318 69.2455C27.7526 69.2359 27.7825 69.2219 27.8207 69.2039C27.8969 69.1679 28.0059 69.1154 28.1397 69.0483C28.4069 68.9144 28.7753 68.7214 29.1806 68.4846C29.9731 68.0218 30.9758 67.3525 31.6096 66.5943L30.6714 65.7853ZM27.4483 69.3148H42.2175V68.0648H27.4483V69.3148ZM42.2175 68.6898C42.5334 68.1534 42.5335 68.1535 42.5335 68.1535C42.5335 68.1535 42.5335 68.1535 42.5334 68.1535C42.5333 68.1534 42.5331 68.1531 42.5326 68.1529C42.5317 68.1524 42.5301 68.1514 42.528 68.1501C42.5238 68.1475 42.5172 68.1435 42.5083 68.1379C42.4905 68.1269 42.4635 68.1101 42.4287 68.0881C42.3587 68.044 42.2566 67.9786 42.1302 67.8951C41.8772 67.7279 41.5286 67.4893 41.1473 67.2041C40.3696 66.6226 39.5132 65.8893 39.0246 65.1996L38.0256 65.9299C38.6334 66.7875 39.6231 67.6166 40.4175 68.2108C40.8223 68.5134 41.1913 68.766 41.4592 68.943C41.5932 69.0315 41.7025 69.1015 41.7788 69.1498C41.817 69.1739 41.847 69.1925 41.8678 69.2054C41.8782 69.2118 41.8863 69.2168 41.8918 69.2203C41.8947 69.2219 41.8969 69.2233 41.8985 69.2243C41.8993 69.2248 41.8999 69.2251 41.9004 69.2254C41.9007 69.2256 41.9009 69.2258 41.9011 69.2258C41.9012 69.2259 41.9012 69.2259 41.9013 69.2259C41.9013 69.226 41.9014 69.226 42.2175 68.6898ZM31.7968 56.1884C34.3086 56.0183 36.6384 55.4669 38.727 54.7299L38.3232 53.5491C36.3221 54.2551 34.1008 54.7795 31.715 54.9411L31.7968 56.1884ZM39.0246 65.1996C38.47 64.4171 38.1694 63.3716 38.0549 62.1905C37.9409 61.0145 38.016 59.7515 38.1726 58.578C38.3289 57.4073 38.5637 56.3436 38.7601 55.5718C38.8581 55.1864 38.9461 54.8753 39.0092 54.6615C39.0409 54.5548 39.0662 54.4724 39.0833 54.4174C39.0919 54.3899 39.0986 54.3693 39.1029 54.3558C39.105 54.349 39.1066 54.3441 39.1077 54.3411C39.1082 54.3395 39.1084 54.3385 39.1087 54.3379C39.1088 54.3376 39.1088 54.3374 39.1088 54.3374C39.1089 54.3373 39.1088 54.3374 39.1089 54.3373C39.1088 54.3374 39.1088 54.3375 38.5252 54.1395C37.9414 53.9415 37.9414 53.9416 37.9413 53.9419C37.9413 53.942 37.9412 53.9421 37.9412 53.9424C37.9411 53.9428 37.9408 53.9433 37.9407 53.944C37.9402 53.9453 37.9396 53.947 37.939 53.9493C37.9375 53.9538 37.9354 53.96 37.9328 53.9681C37.9275 53.9845 37.92 54.0081 37.9105 54.0386C37.8913 54.0998 37.864 54.1885 37.8304 54.3021C37.7633 54.5294 37.6709 54.8563 37.5684 55.2591C37.3638 56.0636 37.1175 57.1773 36.953 58.4101C36.7888 59.6403 36.7035 61.0073 36.83 62.313C36.9562 63.6135 37.2971 64.9016 38.0256 65.9299L39.0246 65.1996Z" fill="#795548"/>
<path d="M17.0834 6.58023C19.3031 2.61929 22.4637 2.32191 24.3265 2.82993C24.774 2.95198 25.2254 3.08323 25.6886 3.06806C31.0225 2.8933 35.1645 -1.69111 39.5949 4.40335C40.126 5.13393 40.8397 5.73769 41.7086 5.9514C48.6353 7.65483 56.1743 6.32779 56.5446 14.7871C56.5839 15.6856 56.8391 16.586 57.4267 17.2589C62.8292 23.4461 69.5133 25.4381 62.8454 36.5759C62.276 37.5268 62.1116 38.6893 62.3481 39.7759C64.5949 50.0946 56.8678 50.2817 51.1182 48.6414C49.7886 48.2621 48.348 48.5181 47.2456 49.3631C45.4152 50.7664 42.38 52.7793 38.5252 54.1394C36.4803 54.861 34.2047 55.3989 31.756 55.5646C31.547 55.5787 31.342 55.589 31.1406 55.5954C26.7294 55.7349 24.1026 54.0484 22.6747 52.2305C21.5249 50.7665 19.9212 49.3942 18.0777 49.3564C14.4261 49.2812 11.6563 48.7611 9.60206 47.9211C2.23059 44.907 4.07485 37.7753 7.461 32.3216C8.54122 30.5818 8.29886 28.2771 6.98381 26.7129C-0.205902 18.161 8.20749 11.5589 14.8604 8.67003C15.8127 8.25646 16.571 7.49446 17.0834 6.58023Z" fill="#8BC34A"/>
<path d="M24.3266 2.82991L24.4861 2.22629L24.3266 2.82991ZM17.0836 6.58021L17.6183 6.88937L17.0836 6.58021ZM14.8605 8.67001L14.6186 8.09533L14.8605 8.67001ZM6.98398 26.7129L6.51599 27.1187L6.98398 26.7129ZM7.46117 32.3216L6.94064 31.9882L7.46117 32.3216ZM9.60223 47.9211L9.83207 47.3414L9.60223 47.9211ZM18.0779 49.3564L18.0655 49.9812L18.0779 49.3564ZM51.1184 48.6414L51.2848 48.0397L51.1184 48.6414ZM62.3483 39.7759L61.7474 39.9109L62.3483 39.7759ZM39.5951 4.40334L39.1001 4.77456L39.5951 4.40334ZM25.6887 3.06805L25.6689 2.44337L25.6887 3.06805ZM62.8455 36.5759L63.3713 36.9005L62.8455 36.5759ZM57.4268 17.2589L57.8873 16.8442L57.4268 17.2589ZM56.5447 14.7871L55.93 14.8149L56.5447 14.7871ZM41.7088 5.95139L41.5641 6.55884L41.7088 5.95139ZM40.238 14.9545C39.9062 15.0294 39.6971 15.3632 39.7708 15.7002C39.8445 16.0372 40.1733 16.2496 40.505 16.1747L40.238 14.9545ZM47.1566 22.5802C47.233 22.9165 47.5633 23.1262 47.8945 23.0486C48.2257 22.971 48.4321 22.6355 48.3558 22.2991L47.1566 22.5802ZM55.0758 32.7851C54.9238 32.4764 54.5541 32.3512 54.2502 32.5056C53.9462 32.66 53.8229 33.0354 53.9749 33.3441L55.0758 32.7851ZM48.8933 38.6969C48.5574 38.7494 48.327 39.0685 48.3787 39.4096C48.4304 39.7509 48.7446 39.9849 49.0805 39.9324L48.8933 38.6969ZM29.4153 24.3267C29.082 24.2591 28.7578 24.4786 28.6912 24.8171C28.6245 25.1555 28.8406 25.4849 29.1739 25.5525L29.4153 24.3267ZM34.2239 30.4762C34.1757 30.818 34.4096 31.1345 34.746 31.1834C35.0825 31.2321 35.3942 30.9947 35.4422 30.653L34.2239 30.4762ZM18.2207 18.7519C18.2545 19.0954 18.5561 19.3459 18.8943 19.3115C19.2325 19.2772 19.4793 18.9709 19.4454 18.6275L18.2207 18.7519ZM24.9312 13.6871C25.2697 13.7184 25.569 13.465 25.5997 13.1212C25.6305 12.7775 25.381 12.4735 25.0426 12.4422L24.9312 13.6871ZM15.053 32.7431C14.8782 32.4471 14.5002 32.3511 14.2087 32.5287C13.9173 32.7062 13.8228 33.0902 13.9977 33.3862L15.053 32.7431ZM21.5698 42.3736C21.8738 42.2192 21.997 41.8439 21.845 41.5351C21.693 41.2264 21.3233 41.1012 21.0193 41.2556L21.5698 42.3736ZM37.8628 39.9377C38.2016 39.9642 38.4975 39.7067 38.5236 39.3626C38.5497 39.0184 38.296 38.718 37.9572 38.6915L37.8628 39.9377ZM29.9125 45.6212C29.9433 45.965 30.2426 46.2184 30.581 46.1871C30.9195 46.1559 31.169 45.8519 31.1382 45.5081L29.9125 45.6212ZM22.6748 52.2305L23.1559 51.8407L22.6748 52.2305ZM31.1408 55.5954L31.1599 56.22L31.1408 55.5954ZM31.7562 55.5646L31.797 56.1882L31.7562 55.5646ZM38.5254 54.1394L38.7273 54.7297L38.5254 54.1394ZM47.2458 49.3631L46.8751 48.8642L47.2458 49.3631ZM24.4861 2.22629C23.4476 1.94307 22.0572 1.88594 20.6188 2.44556C19.1708 3.0089 17.721 4.17924 16.5487 6.27105L17.6183 6.88937C18.6658 5.02025 19.9061 4.06142 21.0591 3.61285C22.2215 3.16055 23.3428 3.20874 24.167 3.43352L24.4861 2.22629ZM14.6186 8.09533C11.2501 9.55805 7.35437 11.9909 5.22035 15.2195C4.14427 16.8475 3.50296 18.6991 3.63186 20.7322C3.7607 22.7645 4.65434 24.9044 6.51599 27.1187L7.45198 26.3071C5.71877 24.2455 4.96794 22.3531 4.86009 20.652C4.7523 18.9517 5.28206 17.3689 6.24222 15.9162C8.18069 12.9835 11.8181 10.6709 15.1025 9.24469L14.6186 8.09533ZM6.94064 31.9882C5.22319 34.7544 3.84284 38.0247 3.88227 41.0445C3.90216 42.5684 4.28436 44.0401 5.17736 45.3371C6.06963 46.6331 7.44206 47.7116 9.37241 48.5009L9.83207 47.3414C8.07667 46.6236 6.91534 45.6802 6.186 44.6209C5.4574 43.5626 5.13013 42.3454 5.11293 41.0279C5.07816 38.3647 6.313 35.3425 7.9817 32.655L6.94064 31.9882ZM9.37241 48.5009C11.5183 49.3784 14.3682 49.9052 18.0655 49.9812L18.0903 48.7315C14.4843 48.6574 11.7945 48.1437 9.83207 47.3414L9.37241 48.5009ZM50.952 49.2431C53.8554 50.0715 57.4124 50.4916 59.9938 49.2589C61.3167 48.6272 62.3738 47.5646 62.9307 45.9519C63.4804 44.3604 63.5252 42.2861 62.9492 39.641L61.7474 39.9109C62.2949 42.4251 62.2164 44.2437 61.7694 45.5382C61.3297 46.8114 60.5169 47.6279 59.4701 48.1277C57.3122 49.1581 54.131 48.8517 51.2848 48.0397L50.952 49.2431ZM40.0901 4.03211C38.9335 2.44102 37.7562 1.49347 36.5227 1.01514C35.2886 0.536574 34.0668 0.554467 32.8733 0.769329C31.7012 0.980339 30.487 1.39781 29.3158 1.74611C28.1199 2.10181 26.9218 2.40231 25.6689 2.44337L25.7085 3.69272C27.1226 3.64639 28.4426 3.30831 29.6618 2.94574C30.9058 2.57576 32.0042 2.19527 33.0881 2.00014C34.1506 1.80886 35.1284 1.81245 36.0837 2.18291C37.0396 2.5536 38.0415 3.31842 39.1001 4.77456L40.0901 4.03211ZM63.3713 36.9005C65.0622 34.0764 65.9408 31.7771 66.1823 29.8061C66.4266 27.8131 66.0148 26.1907 65.1957 24.7486C64.39 23.3302 63.1963 22.0989 61.9131 20.867C60.6124 19.6184 59.2141 18.3639 57.8873 16.8442L56.9664 17.6736C58.3408 19.2475 59.8039 20.5622 61.0677 21.7754C62.3488 23.0052 63.4224 24.128 64.1296 25.3732C64.8234 26.5947 65.1701 27.9454 64.961 29.6517C64.7492 31.38 63.963 33.5064 62.3198 36.2511L63.3713 36.9005ZM57.1595 14.7594C57.0628 12.5481 56.4932 10.9058 55.5234 9.6849C54.5568 8.46763 53.2436 7.73399 51.7785 7.24234C50.3214 6.75334 48.6666 6.48899 46.985 6.24241C45.2858 5.99326 43.5503 5.76119 41.8537 5.34394L41.5641 6.55884C43.3307 6.9933 45.1351 7.23414 46.8091 7.47959C48.5008 7.72765 50.0527 7.97963 51.3924 8.42922C52.7242 8.87615 53.798 9.50334 54.5655 10.4697C55.3301 11.4324 55.8416 12.7964 55.93 14.8149L57.1595 14.7594ZM40.505 16.1747C41.2742 16.0011 42.5792 16.07 43.8635 16.9301C45.135 17.7819 46.4454 19.4509 47.1566 22.5802L48.3558 22.2991C47.5899 18.9285 46.1311 16.9516 44.541 15.8866C42.9638 14.8302 41.3151 14.7115 40.238 14.9545L40.505 16.1747ZM53.9749 33.3441C54.3196 34.0444 54.4887 35.1294 53.9287 36.131C53.3722 37.1265 51.9989 38.2116 48.8933 38.6969L49.0805 39.9324C52.3749 39.4176 54.1812 38.2111 54.999 36.7482C55.8133 35.2916 55.5516 33.7516 55.0758 32.7851L53.9749 33.3441ZM29.1739 25.5525C30.1371 25.7481 31.5504 26.2499 32.6458 27.0939C33.729 27.9284 34.4274 29.0286 34.2239 30.4762L35.4422 30.653C35.7309 28.6006 34.6859 27.0967 33.3897 26.098C32.1055 25.1085 30.5034 24.5477 29.4153 24.3267L29.1739 25.5525ZM19.4454 18.6275C19.3531 17.6902 19.5264 16.3296 20.2956 15.282C21.032 14.279 22.3957 13.453 24.9312 13.6871L25.0426 12.4422C22.1626 12.1763 20.3468 13.1212 19.3089 14.5347C18.3037 15.9039 18.1078 17.6056 18.2207 18.7519L19.4454 18.6275ZM13.9977 33.3862C16.2213 37.1501 17.8319 39.4242 18.9524 40.7392C19.5103 41.3941 19.9643 41.8322 20.3277 42.0975C20.5081 42.2291 20.6901 42.3361 20.8704 42.3981C21.0361 42.455 21.3039 42.5087 21.5698 42.3736L21.0193 41.2556C21.1826 41.1727 21.3005 41.2264 21.2649 41.2141C21.2439 41.2069 21.1734 41.1755 21.046 41.0825C20.7941 40.8986 20.4122 40.5425 19.8831 39.9214C18.829 38.6842 17.2602 36.4791 15.053 32.7431L13.9977 33.3862ZM37.9572 38.6915C36.5498 38.5815 34.4465 38.7726 32.7309 39.7545C31.8634 40.251 31.0822 40.9577 30.5561 41.9397C30.0285 42.9237 29.7801 44.142 29.9125 45.6212L31.1382 45.5081C31.0245 44.2374 31.2426 43.2732 31.637 42.5372C32.0326 41.7991 32.6283 41.248 33.3351 40.8435C34.7682 40.0232 36.6036 39.8394 37.8628 39.9377L37.9572 38.6915ZM22.1938 52.6202C23.7493 54.6005 26.5657 56.3654 31.1599 56.22L31.1216 54.9706C26.8935 55.1044 24.4562 53.4962 23.1559 51.8407L22.1938 52.6202ZM31.1599 56.22C31.3687 56.2134 31.581 56.2029 31.797 56.1882L31.7152 54.941C31.5135 54.9546 31.3156 54.9645 31.1216 54.9706L31.1599 56.22ZM31.797 56.1882C34.3088 56.0182 36.6386 55.4667 38.7273 54.7297L38.3234 53.549C36.3223 54.2551 34.101 54.7795 31.7152 54.941L31.797 56.1882ZM38.7273 54.7297C42.6619 53.3415 45.754 51.2897 47.6165 49.862L46.8751 48.8642C45.0767 50.2429 42.0986 52.2169 38.3234 53.549L38.7273 54.7297ZM57.8873 16.8442C57.4225 16.312 57.195 15.567 57.1595 14.7594L55.93 14.8149C55.9733 15.8042 56.256 16.86 56.9664 17.6736L57.8873 16.8442ZM39.1001 4.77456C39.6852 5.57947 40.5101 6.29965 41.5641 6.55884L41.8537 5.34394C41.1696 5.1757 40.5673 4.68836 40.0901 4.03211L39.1001 4.77456ZM62.9492 39.641C62.7446 38.7014 62.8897 37.7051 63.3713 36.9005L62.3198 36.2511C61.6628 37.3484 61.4789 38.6771 61.7474 39.9109L62.9492 39.641ZM18.0655 49.9812C19.622 50.0132 21.0714 51.1912 22.1938 52.6202L23.1559 51.8407C21.9786 50.3419 20.2207 48.7752 18.0903 48.7315L18.0655 49.9812ZM6.51599 27.1187C7.66948 28.4907 7.86638 30.4972 6.94064 31.9882L7.9817 32.655C9.21641 30.6664 8.92858 28.0634 7.45198 26.3071L6.51599 27.1187ZM51.2848 48.0397C49.7765 47.6094 48.136 47.8976 46.8751 48.8642L47.6165 49.862C48.5602 49.1385 49.8011 48.9147 50.952 49.2431L51.2848 48.0397ZM16.5487 6.27105C16.0909 7.08795 15.4269 7.74431 14.6186 8.09533L15.1025 9.24469C16.1989 8.7686 17.0514 7.90096 17.6183 6.88937L16.5487 6.27105ZM24.167 3.43352C24.5882 3.54839 25.1355 3.7115 25.7085 3.69272L25.6689 2.44337C25.3157 2.45494 24.9601 2.35554 24.4861 2.22629L24.167 3.43352Z" fill="#8BC34A"/>
<path d="M40.1043 14.3444C39.4408 14.4943 39.0224 15.1619 39.1699 15.8359C39.3173 16.5098 39.9748 16.9346 40.6383 16.7849L40.1043 14.3444ZM46.5567 22.7208C46.7096 23.3934 47.3704 23.8129 48.0326 23.6576C48.695 23.5024 49.108 22.8313 48.9551 22.1586L46.5567 22.7208ZM55.626 32.5056C55.322 31.8881 54.5827 31.6379 53.9747 31.9466C53.3668 32.2554 53.1203 33.0063 53.4243 33.6238L55.626 32.5056ZM48.7995 38.0793C48.1277 38.1841 47.6669 38.8224 47.7702 39.5048C47.8736 40.1871 48.5021 40.6551 49.1738 40.5501L48.7995 38.0793ZM29.5358 23.714C28.8692 23.5785 28.2208 24.0176 28.0875 24.6945C27.9542 25.3715 28.3865 26.03 29.053 26.1654L29.5358 23.714ZM33.6144 30.3879C33.5183 31.0713 33.9859 31.7045 34.6587 31.8021C35.3317 31.8998 35.9551 31.4249 36.0512 30.7415L33.6144 30.3879ZM17.6082 18.8141C17.6758 19.501 18.2789 20.0021 18.9554 19.9335C19.6317 19.8648 20.1252 19.2523 20.0575 18.5653L17.6082 18.8141ZM24.8752 14.3095C25.5522 14.372 26.1508 13.8654 26.2123 13.1779C26.2739 12.4903 25.775 11.8823 25.0981 11.8198L24.8752 14.3095ZM15.5806 32.4215C15.2308 31.8296 14.4748 31.6376 13.8919 31.9928C13.309 32.348 13.1201 33.1159 13.4698 33.7078L15.5806 32.4215ZM21.8448 42.9328C22.4527 42.624 22.6992 41.8731 22.3952 41.2556C22.0912 40.6381 21.3519 40.3879 20.7439 40.6966L21.8448 42.9328ZM37.8154 40.561C38.4931 40.6139 39.0848 40.0989 39.1369 39.4105C39.1891 38.7223 38.6819 38.1213 38.0042 38.0684L37.8154 40.561ZM29.2995 45.6779C29.361 46.3654 29.9597 46.872 30.6366 46.8095C31.3135 46.747 31.8125 46.139 31.7509 45.4515L29.2995 45.6779ZM40.6383 16.7849C41.2536 16.646 42.3867 16.6899 43.5245 17.4519C44.6367 18.1969 45.873 19.712 46.5567 22.7208L48.9551 22.1586C48.1619 18.6674 46.629 16.5366 44.8797 15.3649C43.156 14.2104 41.3353 14.0666 40.1043 14.3444L40.6383 16.7849ZM53.4243 33.6238C53.7034 34.1908 53.8262 35.0483 53.3934 35.8225C52.9674 36.5843 51.8107 37.6088 48.7995 38.0793L49.1738 40.5501C52.5627 40.0206 54.5854 38.7534 55.5339 37.0569C56.4753 35.3728 56.1673 33.6053 55.626 32.5056L53.4243 33.6238ZM29.053 26.1654C29.9538 26.3484 31.2726 26.8206 32.2736 27.5918C33.2502 28.3443 33.7755 29.2426 33.6144 30.3879L36.0512 30.7415C36.3824 28.3866 35.1642 26.6809 33.7613 25.6C32.3827 24.5379 30.6862 23.9476 29.5358 23.714L29.053 26.1654ZM20.0575 18.5653C19.9755 17.7326 20.1375 16.5425 20.7887 15.6556C21.3744 14.8579 22.5122 14.0914 24.8752 14.3095L25.0981 11.8198C22.0458 11.538 20.004 12.5424 18.8154 14.1613C17.6922 15.691 17.4851 17.5634 17.6082 18.8141L20.0575 18.5653ZM13.4698 33.7078C15.7016 37.4856 17.3332 39.7943 18.4868 41.1483C19.0591 41.82 19.5492 42.2991 19.9684 42.6051C20.175 42.756 20.413 42.9009 20.673 42.9901C20.9035 43.0694 21.3643 43.1768 21.8448 42.9328L20.7439 40.6966C21.1219 40.5048 21.4326 40.612 21.4619 40.6221C21.5206 40.6423 21.506 40.6488 21.405 40.575C21.2088 40.4319 20.863 40.1166 20.3482 39.5124C19.3274 38.3143 17.7795 36.1438 15.5806 32.4215L13.4698 33.7078ZM38.0042 38.0684C36.5227 37.9526 34.2854 38.1474 32.4286 39.21C31.4806 39.7525 30.6068 40.5371 30.0153 41.6409C29.4214 42.7491 29.1577 44.0943 29.2995 45.6779L31.7509 45.4515C31.6464 44.2851 31.8494 43.4479 32.1773 42.8361C32.5076 42.2199 33.0106 41.7466 33.6371 41.388C34.929 40.6486 36.6302 40.4684 37.8154 40.561L38.0042 38.0684Z" fill="#69A038"/>
</svg>
