<svg width="20" height="20" viewBox="0 0 20 20" fill="none" xmlns="http://www.w3.org/2000/svg">
<path d="M6.99425 3.02842C8.07172 1.82771 9.75264 1.37061 11.2893 1.86048C12.8259 2.35034 13.9328 3.69615 14.1175 5.29923L14.2412 5.3017C15.4433 5.34969 16.8177 6.105 17.2069 8.2293L17.8365 13.1225C18.0781 14.822 17.7633 16.1332 17.0312 17.0049C16.2991 17.8766 15.0985 18.3014 13.3707 18.3014H6.70142C5.33662 18.4727 3.97676 17.9489 3.07894 16.9063C2.18113 15.8636 1.86457 14.4405 2.23568 13.1152L2.25388 13.0301C2.34048 12.7268 2.63985 12.5268 2.96045 12.5731C3.31018 12.6237 3.55273 12.9484 3.50219 13.2983C3.2734 14.2573 3.47389 15.2684 4.05126 16.0672C4.76063 16.74 5.7189 17.0853 6.6941 17.0195H13.3707C14.6958 17.0195 15.6109 16.7412 16.0868 16.1625C16.5626 15.5838 16.753 14.6169 16.5626 13.2983L15.9404 8.45638C15.7207 7.28435 15.0399 6.55184 14.1175 6.55184H5.94737C5.06886 6.55184 4.38802 7.28435 4.11715 8.50766L3.94144 9.58446C3.86075 9.91348 3.5393 10.1239 3.2057 10.066C2.8721 10.0081 2.6402 9.7017 2.67493 9.36471L2.85795 8.26593C3.34113 6.03175 4.7687 5.29923 5.94737 5.29923H12.8144C12.7138 4.65009 12.3933 4.05526 11.9066 3.61444C10.75 2.57943 8.97402 2.67779 7.93865 3.83419V3.90745L7.86687 3.97379C7.71479 4.09435 7.51463 4.14108 7.32214 4.09686C7.09758 4.04528 6.91758 3.87774 6.84995 3.65735C6.78231 3.43697 6.83732 3.19722 6.99425 3.02842ZM12.4486 8.60295L12.5435 8.61754C12.639 8.63964 12.7304 8.67673 12.8144 8.72742C12.8892 8.78652 12.9557 8.85552 13.012 8.93252C13.0438 8.96805 13.0664 9.01079 13.0779 9.05705C13.1002 9.10067 13.115 9.14771 13.1218 9.19623C13.1294 9.24477 13.1294 9.29419 13.1218 9.34273C13.1243 9.43882 13.1043 9.53415 13.0633 9.62109C13.0266 9.71551 12.966 9.79879 12.8876 9.86282C12.7524 10.0008 12.5682 10.0798 12.3751 10.0826C12.2774 10.0787 12.1809 10.0589 12.0896 10.024C11.9369 9.93321 11.8225 9.79003 11.7675 9.62109C11.7287 9.53363 11.7112 9.43826 11.7162 9.34273C11.7088 9.29418 11.7088 9.24478 11.7162 9.19623V9.05705L11.7894 8.93252C11.8103 8.88987 11.8403 8.85235 11.8773 8.82264L11.9871 8.72742C12.0279 8.69969 12.0722 8.67752 12.1189 8.66149C12.1629 8.64028 12.2097 8.62548 12.258 8.61754C12.3519 8.59566 12.4496 8.59566 12.5435 8.61754L12.4486 8.60295ZM7.77055 8.61028L7.86544 8.62486C7.91393 8.63165 7.96094 8.64651 8.00454 8.66881C8.04951 8.68344 8.09162 8.70575 8.12899 8.73474C8.17285 8.76005 8.21239 8.79219 8.24612 8.82997C8.28314 8.85967 8.31314 8.89719 8.33398 8.93985C8.36242 8.97884 8.38694 9.02055 8.40718 9.06437L8.45111 9.20355C8.45508 9.25231 8.45508 9.3013 8.45111 9.35006C8.45111 9.75461 8.12334 10.0826 7.71902 10.0826C7.53103 10.076 7.35276 9.99734 7.2212 9.86282C7.15192 9.79381 7.09716 9.71162 7.06014 9.62109C7.02514 9.53252 7.00773 9.43797 7.0089 9.34273C7.00134 9.29419 7.00134 9.24477 7.0089 9.19623C7.01568 9.14771 7.03053 9.10067 7.05282 9.05705C7.06744 9.01205 7.08973 8.96992 7.11871 8.93252C7.13955 8.88987 7.16955 8.85235 7.20656 8.82264C7.23861 8.78806 7.27562 8.75844 7.31637 8.73474C7.35375 8.70575 7.39585 8.68344 7.44083 8.66881C7.48442 8.64651 7.53144 8.63165 7.57992 8.62486C7.67384 8.60299 7.77152 8.60299 7.86544 8.62486L7.77055 8.61028Z" fill="white"/>
</svg>
