<svg width="29" height="31" viewBox="0 0 29 31" fill="none" xmlns="http://www.w3.org/2000/svg">
<path d="M9.24002 3.29968C11.1256 1.19842 14.0672 0.398513 16.7563 1.25578C19.4455 2.11304 21.3824 4.4682 21.7057 7.27359L21.9221 7.27791C24.0259 7.3619 26.431 8.68369 27.1121 12.4012L28.2139 20.9644C28.6367 23.9384 28.0858 26.233 26.8047 27.7585C25.5235 29.2839 23.4224 30.0274 20.3989 30.0274H8.72756C6.33917 30.3271 3.95941 29.4106 2.38823 27.5859C0.817046 25.7613 0.26307 23.2707 0.912514 20.9515L0.944361 20.8025C1.09591 20.2719 1.61982 19.9218 2.18086 20.0029C2.7929 20.0914 3.21736 20.6596 3.12891 21.272C2.72852 22.9502 3.07939 24.7196 4.08978 26.1176C5.33119 27.295 7.00815 27.8993 8.71475 27.7841H20.3989C22.7178 27.7841 24.3192 27.297 25.152 26.2843C25.9847 25.2716 26.3178 23.5794 25.9847 21.272L24.8957 12.7986C24.5114 10.7476 23.3199 9.46565 21.7057 9.46565H7.40797C5.87058 9.46565 4.67911 10.7476 4.20508 12.8883L3.8976 14.7727C3.75639 15.3485 3.19385 15.7167 2.61005 15.6154C2.02625 15.5141 1.62043 14.9779 1.68121 14.3882L2.0015 12.4653C2.84706 8.5555 5.34531 7.27359 7.40797 7.27359H19.4252C19.2492 6.13759 18.6884 5.09664 17.8366 4.32521C15.8125 2.51395 12.7046 2.68608 10.8927 4.70978V4.83797L10.7671 4.95408C10.501 5.16505 10.1507 5.24683 9.81383 5.16945C9.42085 5.07918 9.10584 4.78598 8.98749 4.40031C8.86913 4.01463 8.96539 3.59508 9.24002 3.29968ZM18.7851 13.0551L18.9512 13.0806C19.1183 13.1193 19.2783 13.1842 19.4252 13.2729C19.5562 13.3764 19.6726 13.4971 19.7711 13.6319C19.8267 13.694 19.8663 13.7688 19.8864 13.8498C19.9254 13.9261 19.9514 14.0084 19.9633 14.0933C19.9765 14.1783 19.9765 14.2648 19.9633 14.3497C19.9676 14.5179 19.9325 14.6847 19.8608 14.8368C19.7966 15.0021 19.6906 15.1478 19.5533 15.2599C19.3168 15.5014 18.9944 15.6396 18.6565 15.6444C18.4855 15.6376 18.3167 15.603 18.1569 15.5419C17.8897 15.3831 17.6894 15.1325 17.5932 14.8368C17.5254 14.6838 17.4946 14.5169 17.5035 14.3497C17.4905 14.2648 17.4905 14.1783 17.5035 14.0933V13.8498L17.6316 13.6319C17.6681 13.5572 17.7206 13.4915 17.7853 13.4396L17.9775 13.2729C18.0489 13.2244 18.1265 13.1856 18.2081 13.1575C18.2852 13.1204 18.3671 13.0945 18.4515 13.0806C18.6159 13.0423 18.7868 13.0423 18.9512 13.0806L18.7851 13.0551ZM10.5985 13.0679L10.7646 13.0934C10.8495 13.1053 10.9317 13.1313 11.008 13.1704C11.0867 13.196 11.1604 13.235 11.2258 13.2857C11.3026 13.33 11.3718 13.3863 11.4308 13.4524C11.4956 13.5044 11.5481 13.57 11.5845 13.6447C11.6343 13.7129 11.6772 13.7859 11.7127 13.8626L11.7895 14.1062C11.7965 14.1915 11.7965 14.2772 11.7895 14.3625C11.7895 15.0705 11.2159 15.6444 10.5084 15.6444C10.1794 15.633 9.86741 15.4953 9.63718 15.2599C9.51594 15.1391 9.42011 14.9953 9.35532 14.8368C9.29407 14.6818 9.2636 14.5164 9.26564 14.3497C9.25243 14.2648 9.25243 14.1783 9.26564 14.0933C9.27752 14.0084 9.3035 13.9261 9.34251 13.8498C9.3681 13.771 9.40711 13.6973 9.45782 13.6319C9.49428 13.5572 9.54678 13.4915 9.61156 13.4396C9.66765 13.379 9.73241 13.3272 9.80373 13.2857C9.86913 13.235 9.94282 13.196 10.0215 13.1704C10.0978 13.1313 10.1801 13.1053 10.2649 13.0934C10.4293 13.0552 10.6002 13.0552 10.7646 13.0934L10.5985 13.0679Z" fill="#7184C8"/>
</svg>
