<svg width="47" height="46" viewBox="0 0 47 46" fill="none" xmlns="http://www.w3.org/2000/svg">
<g clip-path="url(#clip0_41_6880)">
<path d="M38.8333 8.12207V3.83333C38.8307 1.71733 37.116 0.00268333 35 0H4.33333C2.21733 0.00268333 0.502683 1.71733 0.5 3.83333V20.7C0.505942 22.6579 1.99002 24.2953 3.93773 24.4939L6.81963 31.9748C7.58093 33.9501 9.79928 34.9341 11.7748 34.1738L29.7713 27.2412C28.5278 30.4894 28.8816 34.1331 30.7262 37.0816L31.1667 37.7859V45.2333C31.1667 45.6569 31.5098 46 31.9333 46H45.7333C46.1569 46 46.5 45.6569 46.5 45.2333V19.9266C46.4927 17.2753 45.4372 14.735 43.5627 12.8599L38.8333 8.12207ZM38.8333 12.7071L41.1602 18.7473C41.6161 19.9329 41.0252 21.2633 39.8398 21.7197L38.5098 22.2333C38.7222 21.75 38.8322 21.2275 38.8333 20.7V12.7071ZM2.03333 20.7V3.83333C2.03333 2.56335 3.06335 1.53333 4.33333 1.53333H35C36.27 1.53333 37.3 2.56335 37.3 3.83333V8.70627H37.2933L37.3 8.72371V20.7C37.2941 20.8338 37.2766 20.9664 37.2479 21.0971L30.2252 14.0737C28.6466 12.5316 26.1301 12.5197 24.5373 14.0457C22.9442 15.5727 22.8485 18.0874 24.3219 19.73L27.3157 23H4.33333C3.06335 23 2.03333 21.97 2.03333 20.7ZM11.8551 24.5333L6.40333 26.6323L5.5968 24.5333H11.8551ZM11.2234 32.7426C10.0381 33.1995 8.70697 32.6086 8.25023 31.4234L6.95687 28.06L16.1086 24.5333V24.5287H28.721L29.7175 25.6151L11.2234 32.7426ZM44.9667 44.4667H32.7V38.3333H44.9667V44.4667ZM44.9667 36.8H32.3588L32.0263 36.2687C30.157 33.2814 30.0826 29.5082 31.8321 26.45C31.9977 26.1606 31.9571 25.7972 31.7317 25.5515L25.4491 18.6975C24.5122 17.6721 24.5649 16.0868 25.5679 15.1263C26.5713 14.1657 28.1573 14.1814 29.1409 15.1612L41.358 27.3754L42.442 26.2913L39.6054 23.4546L40.392 23.148C42.3657 22.3865 43.3494 20.17 42.59 18.1951L39.995 11.4569L42.4786 13.9457C44.0656 15.5323 44.9605 17.6824 44.9667 19.9266V36.8Z" fill="#3D4F3C"/>
<path d="M34.2334 39.8667H35.7667V41.4H34.2334V39.8667Z" fill="#3D4F3C"/>
<path fill-rule="evenodd" clip-rule="evenodd" d="M11.2498 8.63814C11.2498 9.73225 10.3478 10.6191 9.23488 10.6191H5.51496C4.40208 10.6191 3.5 9.73225 3.5 8.63814V4.98097C3.5 3.88686 4.40208 3 5.51496 3H9.23488C10.3478 3 11.2498 3.88686 11.2498 4.98097V8.63814ZM5.04997 7.57147V8.63814C5.04997 8.89053 5.25825 9.09529 5.51496 9.09529H9.23488C9.4916 9.09529 9.69987 8.89053 9.69987 8.63814V7.57147H8.14991V6.04765H9.69987V4.98097C9.69987 4.72859 9.4916 4.52382 9.23488 4.52382H5.51496C5.25825 4.52382 5.04997 4.72859 5.04997 4.98097V6.04765H6.59994V7.57147H5.04997ZM28.3 3.76193H26.7501V6.04766H28.3V3.76193ZM34.5002 3.76196H32.9502V6.04769H34.5002V3.76196ZM21.3255 12.9048H18.2256V14.4286H21.3255V12.9048ZM4.27539 17.4763H7.37533V19.0001H4.27539V17.4763ZM18.2256 17.4763H21.3255V19.0001H18.2256V17.4763ZM13.5752 12.9048H16.6751V14.4286H13.5752V12.9048ZM12.0257 12.9048H8.92578V14.4286H12.0257V12.9048ZM4.27539 12.9048H7.37533V14.4286H4.27539V12.9048ZM29.8496 3.76196H31.3996V6.04769H29.8496V3.76196ZM23.6504 3.76196H25.2003V6.04769H23.6504V3.76196Z" fill="#3D4F3C"/>
</g>
<defs>
<clipPath id="clip0_41_6880">
<rect width="46" height="46" fill="white" transform="translate(0.5)"/>
</clipPath>
</defs>
</svg>
