<svg width="36" height="36" viewBox="0 0 36 36" fill="none" xmlns="http://www.w3.org/2000/svg">
<g filter="url(#filter0_b_93_3183)">
<rect width="36" height="36" rx="5" fill="#67AF28"/>
</g>
<path fill-rule="evenodd" clip-rule="evenodd" d="M6 4C4.89543 4 4 4.89543 4 6V14C4 15.1046 4.89543 16 6 16H14C15.1046 16 16 15.1046 16 14V6C16 4.89543 15.1046 4 14 4H6ZM22 4C20.8954 4 20 4.89543 20 6V14C20 15.1046 20.8954 16 22 16H30C31.1046 16 32 15.1046 32 14V6C32 4.89543 31.1046 4 30 4H22ZM4 22C4 20.8954 4.89543 20 6 20H14C15.1046 20 16 20.8954 16 22V30C16 31.1046 15.1046 32 14 32H6C4.89543 32 4 31.1046 4 30V22ZM22 20C20.8954 20 20 20.8954 20 22V30C20 31.1046 20.8954 32 22 32H30C31.1046 32 32 31.1046 32 30V22C32 20.8954 31.1046 20 30 20H22Z" fill="white"/>
<defs>
<filter id="filter0_b_93_3183" x="-27" y="-27" width="90" height="90" filterUnits="userSpaceOnUse" color-interpolation-filters="sRGB">
<feFlood flood-opacity="0" result="BackgroundImageFix"/>
<feGaussianBlur in="BackgroundImage" stdDeviation="13.5"/>
<feComposite in2="SourceAlpha" operator="in" result="effect1_backgroundBlur_93_3183"/>
<feBlend mode="normal" in="SourceGraphic" in2="effect1_backgroundBlur_93_3183" result="shape"/>
</filter>
</defs>
</svg>
