<svg width="41" height="40" viewBox="0 0 41 40" fill="none" xmlns="http://www.w3.org/2000/svg">
<path d="M20.5 40C31.5457 40 40.5 31.0457 40.5 20C40.5 8.9543 31.5457 0 20.5 0C9.4543 0 0.5 8.9543 0.5 20C0.5 31.0457 9.4543 40 20.5 40Z" fill="#7184C8"/>
<path fill-rule="evenodd" clip-rule="evenodd" d="M33.5214 28.7285C33.2276 28.901 32.8853 29 32.52 29H8.48C8.11465 29 7.77241 28.901 7.47863 28.7285L15.5 20.7071L17.4798 22.6869C18.2449 23.452 19.2618 23.8333 20.5 23.8333C21.7382 23.8333 22.7551 23.452 23.5202 22.6869L25.5 20.7071L33.5214 28.7285ZM34.2285 28.0214L26.2071 20L34.2285 11.9786C34.401 12.2724 34.5 12.6147 34.5 12.98V27.02C34.5 27.3853 34.401 27.7276 34.2285 28.0214ZM6.77152 28.0214C6.59895 27.7276 6.5 27.3853 6.5 27.02V12.98C6.5 12.6147 6.59895 12.2724 6.77152 11.9786L14.7929 20L6.77152 28.0214ZM33.5214 11.2715L22.8131 21.9798C22.2449 22.548 21.4841 22.8333 20.5 22.8333C19.5159 22.8333 18.7551 22.548 18.1869 21.9798L7.47863 11.2715C7.77241 11.099 8.11465 11 8.48 11H32.52C32.8853 11 33.2276 11.099 33.5214 11.2715Z" fill="white"/>
</svg>
