<svg width="31" height="29" viewBox="0 0 31 29" fill="none" xmlns="http://www.w3.org/2000/svg">
<path d="M15.5085 2.16214C17.9078 0.628026 20.8443 0.235531 23.5509 1.0872C25.9049 1.81926 27.8624 3.5008 28.9682 5.74091C30.2612 8.45597 30.4372 11.5844 29.4572 14.4322C28.5551 17.0538 27.0762 19.4304 25.1336 21.38C23.8599 22.6891 22.4874 23.8945 21.0288 24.985L20.9516 25.0506C20.467 25.3768 19.8153 25.2487 19.4847 24.7622C19.3166 24.5272 19.2491 24.2329 19.2976 23.9464C19.346 23.6599 19.5064 23.4056 19.742 23.2415C21.1107 22.2102 22.4012 21.0752 23.6023 19.8463C25.3322 18.1439 26.6533 16.0579 27.4627 13.7506C28.2412 11.4514 28.0836 8.93034 27.0252 6.75031C26.1734 5.03534 24.6727 3.74785 22.8689 3.18465C20.5681 2.45172 18.0616 2.89603 16.1391 4.37757C15.7569 4.666 15.2345 4.666 14.8523 4.37757C12.9306 2.89397 10.4231 2.44948 8.12247 3.18465C6.30657 3.73541 4.79089 5.01901 3.92759 6.7372C2.89304 8.91562 2.74505 11.4222 3.51582 13.7112C4.32864 16.013 5.64933 18.094 7.37614 19.7938C9.92768 22.2863 12.7413 24.4844 15.7659 26.3484C16.1506 26.6202 16.3198 27.1135 16.185 27.5702C16.0502 28.027 15.642 28.3434 15.174 28.3541C14.963 28.3553 14.7566 28.2913 14.5821 28.1705C11.4313 26.2292 8.50108 23.9387 5.84488 21.3407C3.89152 19.3975 2.40716 17.0193 1.50846 14.3929C0.562267 11.5491 0.756496 8.43963 2.0489 5.74091C3.15472 3.5008 5.11218 1.81926 7.46622 1.0872C10.1728 0.235531 13.1093 0.628026 15.5085 2.16214ZM21.0066 6.47465L21.1703 6.47502C23.089 7.09206 24.4547 8.82475 24.6318 10.8666L24.64 11.0377C24.6331 11.2649 24.5556 11.4858 24.4163 11.6671C24.2421 11.8938 23.986 12.0399 23.7053 12.0726C23.116 12.1502 22.5757 11.7286 22.4957 11.1287C22.442 9.91728 21.65 8.8695 20.5141 8.50693C20.0918 8.2383 19.9042 7.71052 20.0598 7.2287C20.2154 6.74688 20.674 6.43569 21.1703 6.47502L21.0066 6.47465Z" fill="#7184C8"/>
</svg>
