<svg width="18" height="16" viewBox="0 0 18 16" fill="none" xmlns="http://www.w3.org/2000/svg">
<path d="M9.00499 0.949759C10.376 0.0731226 12.054 -0.15116 13.6006 0.335505C14.9458 0.753829 16.0643 1.71471 16.6962 2.99477C17.4351 4.54623 17.5357 6.33393 16.9756 7.96124C16.4602 9.4593 15.6151 10.8173 14.505 11.9314C13.7772 12.6795 12.9929 13.3682 12.1594 13.9914L12.1153 14.0289C11.8384 14.2153 11.466 14.1421 11.2771 13.8641C11.181 13.7298 11.1424 13.5616 11.1701 13.3979C11.1978 13.2342 11.2895 13.0889 11.4241 12.9951C12.2062 12.4058 12.9436 11.7572 13.63 11.055C14.6185 10.0822 15.3734 8.8902 15.8359 7.57171C16.2808 6.25789 16.1907 4.8173 15.5859 3.57157C15.0992 2.59159 14.2416 1.85588 13.2109 1.53405C11.8962 1.11523 10.4639 1.36913 9.36528 2.21572C9.14688 2.38054 8.84839 2.38054 8.62998 2.21572C7.5319 1.36795 6.099 1.11395 4.78437 1.53405C3.74672 1.84877 2.88061 2.58226 2.3873 3.56408C1.79613 4.80889 1.71156 6.24121 2.152 7.54924C2.61647 8.86456 3.37115 10.0537 4.3579 11.025C5.81592 12.4493 7.42369 13.7053 9.15205 14.7705C9.37187 14.9258 9.46854 15.2077 9.39151 15.4687C9.31448 15.7297 9.08127 15.9105 8.81381 15.9166C8.69324 15.9173 8.5753 15.8807 8.47557 15.8117C6.67514 14.7024 5.00072 13.3935 3.48289 11.9089C2.36669 10.7985 1.51848 9.43955 1.00494 7.93876C0.464257 6.31371 0.575245 4.5369 1.31376 2.99477C1.94566 1.71471 3.06421 0.753829 4.40937 0.335505C5.95597 -0.15116 7.63396 0.0731226 9.00499 0.949759ZM12.1468 3.41405L12.2403 3.41426C13.3367 3.76686 14.1171 4.75696 14.2183 5.92371L14.223 6.02149C14.219 6.15135 14.1747 6.27754 14.0951 6.38117C13.9956 6.51071 13.8493 6.59418 13.6888 6.61287C13.3521 6.6572 13.0434 6.4163 12.9977 6.07353C12.9669 5.38127 12.5144 4.78254 11.8653 4.57535C11.624 4.42185 11.5168 4.12026 11.6057 3.84494C11.6946 3.56961 11.9566 3.39179 12.2403 3.41426L12.1468 3.41405Z" fill="white"/>
</svg>
