<svg width="18" height="16" viewBox="0 0 18 16" fill="none" xmlns="http://www.w3.org/2000/svg">
<path d="M9.0023 0.949759C10.3733 0.0731226 12.0513 -0.15116 13.5979 0.335505C14.9431 0.753829 16.0616 1.71471 16.6935 2.99477C17.4324 4.54623 17.533 6.33393 16.9729 7.96124C16.4575 9.4593 15.6124 10.8173 14.5023 11.9314C13.7745 12.6795 12.9902 13.3682 12.1567 13.9914L12.1126 14.0289C11.8357 14.2153 11.4633 14.1421 11.2744 13.8641C11.1783 13.7298 11.1397 13.5616 11.1675 13.3979C11.1952 13.2342 11.2868 13.0889 11.4214 12.9951C12.2036 12.4058 12.9409 11.7572 13.6273 11.055C14.6158 10.0822 15.3707 8.8902 15.8332 7.57171C16.2781 6.25789 16.1881 4.8173 15.5832 3.57157C15.0965 2.59159 14.2389 1.85588 13.2082 1.53405C11.8935 1.11523 10.4612 1.36913 9.3626 2.21572C9.1442 2.38054 8.8457 2.38054 8.6273 2.21572C7.52922 1.36795 6.09631 1.11395 4.78169 1.53405C3.74403 1.84877 2.87792 2.58226 2.38461 3.56408C1.79344 4.80889 1.70887 6.24121 2.14932 7.54924C2.61378 8.86456 3.36847 10.0537 4.35521 11.025C5.81323 12.4493 7.421 13.7053 9.14936 14.7705C9.36918 14.9258 9.46585 15.2077 9.38883 15.4687C9.3118 15.7297 9.07859 15.9105 8.81112 15.9166C8.69056 15.9173 8.57261 15.8807 8.47289 15.8117C6.67245 14.7024 4.99804 13.3935 3.48021 11.9089C2.364 10.7985 1.5158 9.43955 1.00225 7.93876C0.461572 6.31371 0.57256 4.5369 1.31108 2.99477C1.94298 1.71471 3.06152 0.753829 4.40669 0.335505C5.95328 -0.15116 7.63128 0.0731226 9.0023 0.949759ZM12.1441 3.41405L12.2376 3.41426C13.334 3.76686 14.1144 4.75696 14.2156 5.92371L14.2203 6.02149C14.2164 6.15135 14.172 6.27754 14.0924 6.38117C13.9929 6.51071 13.8466 6.59418 13.6862 6.61287C13.3494 6.6572 13.0407 6.4163 12.995 6.07353C12.9642 5.38127 12.5117 4.78254 11.8626 4.57535C11.6213 4.42185 11.5141 4.12026 11.603 3.84494C11.6919 3.56961 11.954 3.39179 12.2376 3.41426L12.1441 3.41405Z" fill="white"/>
</svg>
