<svg width="17" height="17" viewBox="0 0 17 17" fill="none" xmlns="http://www.w3.org/2000/svg">
<path d="M8.50531 1.80243C9.80778 0.969625 11.4019 0.756557 12.8711 1.21889C14.1491 1.6163 15.2117 2.52913 15.812 3.74519C16.5139 5.21908 16.6094 6.91739 16.0774 8.46333C15.5877 9.88649 14.7849 11.1766 13.7303 12.235C13.0389 12.9457 12.2939 13.6 11.502 14.192L11.4601 14.2276C11.197 14.4047 10.8433 14.3351 10.6638 14.071C10.5725 13.9435 10.5359 13.7837 10.5622 13.6282C10.5885 13.4726 10.6756 13.3346 10.8035 13.2455C11.5465 12.6857 12.247 12.0695 12.8991 11.4024C13.8382 10.4782 14.5553 9.34585 14.9947 8.09328C15.4173 6.84515 15.3318 5.4766 14.7572 4.29315C14.2948 3.36217 13.4801 2.66324 12.5009 2.3575C11.252 1.95963 9.89125 2.20083 8.84759 3.00509C8.64011 3.16167 8.35654 3.16167 8.14906 3.00509C7.10588 2.19971 5.74462 1.95841 4.49573 2.3575C3.50995 2.65649 2.68715 3.3533 2.21851 4.28604C1.6569 5.4686 1.57656 6.82931 1.99498 8.07193C2.43622 9.32149 3.15317 10.4512 4.09058 11.3739C5.4757 12.727 7.00308 13.9202 8.64502 14.9321C8.85385 15.0797 8.94569 15.3474 8.87251 15.5954C8.79933 15.8433 8.57778 16.0151 8.32369 16.0209C8.20915 16.0216 8.09711 15.9868 8.00237 15.9213C6.29195 14.8674 4.70126 13.624 3.25932 12.2136C2.19893 11.1588 1.39313 9.86773 0.905265 8.44198C0.391618 6.89818 0.497057 5.21021 1.19865 3.74519C1.79895 2.52913 2.86157 1.6163 4.13948 1.21889C5.60874 0.756557 7.20284 0.969625 8.50531 1.80243ZM11.49 4.1435L11.5789 4.14371C12.6204 4.47867 13.3618 5.41927 13.4579 6.52768L13.4624 6.62058C13.4587 6.74394 13.4166 6.86382 13.3409 6.96227C13.2464 7.08533 13.1074 7.16463 12.955 7.18239C12.6351 7.2245 12.3418 6.99564 12.2983 6.67001C12.2692 6.01236 11.8393 5.44357 11.2226 5.24674C10.9933 5.10092 10.8915 4.81441 10.976 4.55285C11.0605 4.29129 11.3094 4.12236 11.5789 4.14371L11.49 4.1435Z" fill="#67AF28"/>
</svg>
