<svg width="48" height="29" viewBox="0 0 48 29" fill="none" xmlns="http://www.w3.org/2000/svg">
<path d="M46.3158 0H1.68421C0.754047 0 0 0.741928 0 1.65714V27.3429C0 28.2581 0.754047 29 1.68421 29H46.3158C47.246 29 48 28.2581 48 27.3429V1.65714C48 0.741928 47.246 0 46.3158 0Z" fill="#F3F2F2"/>
<path d="M23.9543 20.6101C24.8233 19.8384 25.518 18.8959 25.9935 17.8434C26.469 16.7909 26.7147 15.652 26.7147 14.5002C26.7147 13.3484 26.469 12.2095 25.9935 11.157C25.518 10.1045 24.8233 9.16197 23.9543 8.3903C22.9489 7.48492 21.734 6.83474 20.4152 6.49624C19.0964 6.15774 17.7135 6.14115 16.3867 6.44792C15.0599 6.75469 13.8293 7.37553 12.8017 8.25653C11.7742 9.13753 10.9808 10.252 10.4904 11.5033C9.99999 12.7545 9.82748 14.1046 9.98783 15.4363C10.1482 16.768 10.6365 18.0411 11.4105 19.145C12.1845 20.2488 13.2206 21.15 14.4289 21.7704C15.6373 22.3908 16.9813 22.7115 18.3442 22.7047C20.4166 22.7321 22.4221 21.9833 23.9543 20.6101Z" fill="#07A9E2"/>
<path d="M9.92969 14.5014C9.94194 16.6865 10.835 18.7776 12.4127 20.3156C13.9904 21.8535 16.124 22.7126 18.3448 22.7042C20.4241 22.7242 22.432 21.9588 23.955 20.5657C24.8243 19.7984 25.5196 18.8595 25.9955 17.8102C26.4715 16.7609 26.7175 15.6247 26.7175 14.4757C26.7175 13.3266 26.4715 12.1904 25.9955 11.1411C25.5196 10.0918 24.8243 9.15297 23.955 8.38567C22.4157 7.01913 20.418 6.25969 18.3448 6.25293" fill="#009DDD"/>
<path d="M23.9539 8.39147C22.4147 7.02206 20.4155 6.26046 18.3404 6.25293H17.9396C16.6079 7.18597 15.5216 8.41792 14.7705 9.84663C14.0195 11.2753 13.6255 12.8596 13.6211 14.4681C13.6168 16.0766 14.0022 17.6629 14.7454 19.0956C15.4887 20.5282 16.5684 21.7658 17.8949 22.7059H18.2958C20.3751 22.7258 22.383 21.9604 23.9059 20.5673C24.7717 19.7993 25.4648 18.8617 25.9405 17.8146C26.4163 16.7675 26.6642 15.634 26.6684 14.487C26.6726 13.3401 26.433 12.2049 25.9649 11.1544C25.4969 10.104 24.8107 9.16143 23.9505 8.38733L23.9539 8.39147Z" fill="#0284CC"/>
<path d="M29.7029 6.25137C27.6117 6.2392 25.5927 7.00277 24.0481 8.3899C23.7452 8.65911 23.4636 8.9508 23.206 9.26239H24.8978C25.1305 9.53518 25.3389 9.82708 25.521 10.1349H22.5382C22.3579 10.4162 22.1943 10.7075 22.0481 11.0074H26.0111C26.1488 11.2903 26.2678 11.5818 26.3673 11.8799H21.7357C21.6464 12.1856 21.558 12.4474 21.4688 12.7523H26.6334C26.7608 13.3256 26.8204 13.9114 26.8111 14.4981C26.8226 15.3901 26.6717 16.2768 26.3656 17.1164H21.734C21.8335 17.4145 21.9525 17.706 22.0902 17.9889H26.0532C25.9166 18.2935 25.7525 18.5855 25.5631 18.8614H22.5803C22.7624 19.1692 22.9708 19.4611 23.2035 19.7339H24.8953C24.6377 20.0455 24.3561 20.3371 24.0532 20.6064C25.6087 21.9759 27.6206 22.7368 29.7079 22.7449C31.9313 22.7449 34.0636 21.8759 35.6357 20.329C37.2079 18.7821 38.0911 16.6841 38.0911 14.4965C38.0911 12.3089 37.2079 10.2108 35.6357 8.66396C34.0636 7.11708 31.9313 6.24805 29.7079 6.24805L29.7029 6.25137Z" fill="#FF2957"/>
<path d="M29.7029 6.2521C27.6117 6.23993 25.5927 7.0035 24.0481 8.39063C23.7452 8.65984 23.4636 8.95153 23.206 9.26312H24.8978C25.1305 9.53591 25.3389 9.82781 25.521 10.1356H22.5382C22.3579 10.4169 22.1943 10.7082 22.0481 11.0081H26.0111C26.1488 11.291 26.2678 11.5825 26.3673 11.8806H21.7357C21.6464 12.1863 21.558 12.4482 21.4688 12.7531H26.6334C26.7608 13.3263 26.8204 13.9121 26.8111 14.4989C26.8226 15.3908 26.6717 16.2775 26.3656 17.1172H21.734C21.8335 17.4152 21.9525 17.7067 22.0902 17.9896H26.0532C25.9166 18.2943 25.7525 18.5862 25.5631 18.8621H22.5803C22.7624 19.1699 22.9708 19.4618 23.2035 19.7346H24.8953C24.6377 20.0462 24.3561 20.3379 24.0532 20.6071C25.6087 21.9767 27.6206 22.7375 29.7079 22.7456C30.8052 22.7489 31.8925 22.5392 32.9073 22.1285C33.9222 21.7179 34.8448 21.1143 35.6223 20.3524C36.3998 19.5905 37.0169 18.6851 37.4384 17.6883C37.8598 16.6914 38.0773 15.6225 38.0784 14.5428" fill="#ED1C2E"/>
<path d="M24.0078 20.6015C24.8768 19.8315 25.5716 18.8903 26.0472 17.8391C26.5228 16.7879 26.7685 15.6501 26.7685 14.4995C26.7685 13.3488 26.5228 12.211 26.0472 11.1598C25.5716 10.1086 24.8768 9.1675 24.0078 8.39746V20.6015Z" fill="#0466B5"/>
<path d="M35.1797 16.288C35.1797 16.2361 35.1954 16.1853 35.2247 16.1421C35.254 16.0989 35.2957 16.0653 35.3445 16.0454C35.3932 16.0255 35.4469 16.0203 35.4987 16.0304C35.5505 16.0406 35.598 16.0656 35.6354 16.1023C35.6727 16.139 35.6981 16.1858 35.7084 16.2368C35.7187 16.2877 35.7135 16.3406 35.6933 16.3886C35.6731 16.4366 35.6388 16.4776 35.5949 16.5064C35.551 16.5353 35.4994 16.5507 35.4466 16.5507C35.3774 16.546 35.3122 16.5169 35.2631 16.4686C35.2141 16.4203 35.1844 16.3562 35.1797 16.288ZM35.4466 16.5068C35.5805 16.5068 35.6243 16.4189 35.6243 16.288C35.6265 16.2645 35.6234 16.2408 35.6153 16.2186C35.6071 16.1964 35.5941 16.1763 35.5771 16.1596C35.5602 16.1429 35.5397 16.1301 35.5172 16.1221C35.4946 16.1141 35.4705 16.111 35.4466 16.1132C35.3937 16.108 35.3409 16.1234 35.2993 16.1561C35.2578 16.1888 35.2309 16.2361 35.2243 16.288C35.2357 16.3419 35.2627 16.3912 35.3022 16.4301C35.3417 16.469 35.3919 16.4956 35.4466 16.5068ZM35.4466 16.375H35.402V16.1563H35.5359L35.5805 16.2002C35.5805 16.2441 35.5805 16.2441 35.5359 16.2441L35.5805 16.3319H35.5359L35.4913 16.2441H35.4466V16.3759V16.375ZM35.4466 16.2433H35.4913V16.1994H35.4466V16.2433Z" fill="white"/>
<path d="M24.0481 8.38967C23.7452 8.65887 23.4636 8.95056 23.206 9.26215H24.8978C25.1304 9.53494 25.3389 9.82684 25.521 10.1346H22.5382C22.3579 10.4159 22.1943 10.7073 22.0481 11.0071H26.0111C26.1488 11.2901 26.2678 11.5815 26.3673 11.8796H21.7357C21.6464 12.1854 21.558 12.4472 21.4688 12.7521H26.6334C26.7608 13.3253 26.8204 13.9112 26.8111 14.4979C26.8225 15.3898 26.6717 16.2766 26.3656 17.1162H21.734C21.8335 17.4143 21.9525 17.7057 22.0902 17.9887H26.0532C25.9166 18.2933 25.7525 18.5853 25.5631 18.8612H22.5803C22.7623 19.169 22.9708 19.4609 23.2035 19.7336H24.8953C24.6377 20.0452 24.3561 20.3369 24.0532 20.6061C25.6087 21.9756 27.6206 22.7365 29.7079 22.7447H30.1087C31.4303 21.8082 32.5067 20.5761 33.2491 19.1499C33.9915 17.7237 34.3786 16.1442 34.3786 14.5418C34.3786 12.9394 33.9915 11.36 33.2491 9.93374C32.5067 8.50751 31.4303 7.27538 30.1087 6.33895H29.7079C27.6223 6.27377 25.5927 7.00916 24.0481 8.38967Z" fill="#D1094B"/>
<path d="M17.2758 16.5593H16.2072L16.8304 13.3611L15.4055 16.5593H14.4708L14.2931 13.3611L13.67 16.5593H12.7344L13.5361 12.3535H15.1832L15.2725 14.9817L16.4304 12.3535H18.1238L17.2758 16.5593Z" fill="white"/>
<path d="M16.2985 14.7162L16.9217 13.3582L16.4316 15.8994C16.47 16.1378 16.5298 16.3723 16.6101 16.6004H17.3225L18.1242 12.3945H16.5655C16.3685 13.094 16.2638 13.8156 16.2539 14.5414C16.2985 14.5869 16.2985 14.6333 16.2985 14.7162Z" fill="#DCE5E5"/>
<path d="M28.9899 16.5145C28.7459 16.5971 28.4901 16.6415 28.2321 16.6462C27.6982 16.6462 27.4304 16.3836 27.4304 15.9005C27.4262 15.7965 27.4413 15.6926 27.475 15.5939L27.5196 15.2434L27.5643 14.9808L28.0544 12.3965H29.0784L28.9445 13.1853H29.4784L29.3445 13.9741H28.8106L28.5436 15.376C28.5359 15.422 28.5209 15.4664 28.499 15.5078C28.499 15.6826 28.6329 15.7704 28.8552 15.7704C28.9891 15.7704 29.0775 15.7704 29.1222 15.7265L28.9883 16.5153L28.9899 16.5145Z" fill="#DCE5E5"/>
<path d="M32.0604 13.1845C31.9711 13.1406 31.9711 13.1406 31.9265 13.1406C31.8819 13.1406 31.8372 13.1406 31.8372 13.0967H31.7025C31.3463 13.0967 31.124 13.2284 30.8124 13.6659L30.9016 13.1406H29.9669L29.3438 16.5576H30.4124C30.7686 14.4547 30.9463 14.1042 31.4364 14.1042H31.5703L31.7042 14.1481L32.0604 13.1845Z" fill="#DCE5E5"/>
<path d="M24.8453 14.2368C24.8453 14.6748 25.1125 14.9814 25.647 15.1565C26.0925 15.3313 26.1371 15.3752 26.1371 15.5509C26.1371 15.7696 25.9586 15.8575 25.5139 15.8575C25.1976 15.8567 24.883 15.8123 24.5792 15.7257L24.4453 16.5145H24.4899L24.6676 16.5584H24.9346C25.1257 16.5903 25.3193 16.605 25.5131 16.6024C26.6264 16.6024 27.1603 16.2519 27.1603 15.4631C27.1603 14.9808 26.9379 14.7173 26.4024 14.4994C25.9569 14.3246 25.9123 14.2807 25.9123 14.149C25.9123 13.9739 26.0902 13.8863 26.4462 13.8863C26.6996 13.8814 26.953 13.8961 27.2041 13.9302L27.3379 13.1414C27.0278 13.1049 26.7154 13.0903 26.4032 13.0975C25.2453 13.0975 24.8453 13.6228 24.8453 14.2368Z" fill="#DCE5E5"/>
<path d="M20.7078 16.5586H19.8657V16.2081C19.7177 16.3456 19.5424 16.4515 19.3509 16.5194C19.1593 16.5873 18.9556 16.6155 18.7525 16.6025C18.6279 16.6092 18.5034 16.59 18.3869 16.5461C18.2704 16.5023 18.1646 16.4348 18.0764 16.348C17.9882 16.2612 17.9196 16.1571 17.875 16.0425C17.8304 15.9279 17.8109 15.8053 17.8177 15.6828C17.8177 14.8542 18.4855 14.3686 19.6434 14.3686H20.0889C20.1179 14.2992 20.133 14.225 20.1335 14.1499C20.1335 13.9312 19.955 13.8433 19.4657 13.8433C19.1828 13.8464 18.9009 13.8758 18.6236 13.9312L18.4897 13.9751H18.4005L18.5344 13.2294C18.9398 13.1155 19.3591 13.0564 19.7807 13.0537C20.6708 13.0537 21.1609 13.4042 21.1609 14.0612C21.1633 14.2978 21.1333 14.5336 21.0716 14.7622L20.8493 15.9885L20.8047 16.2073L20.76 16.3821V16.5138L20.7154 16.5577L20.7078 16.5586ZM19.95 15.0249H19.7276C19.1491 15.0249 18.8375 15.2005 18.8375 15.5502C18.8331 15.5973 18.8393 15.6448 18.8557 15.6893C18.872 15.7338 18.8981 15.7742 18.9321 15.8076C18.9661 15.8411 19.0072 15.8668 19.0524 15.8828C19.0976 15.8989 19.1459 15.905 19.1937 15.9007C19.3037 15.8972 19.4118 15.8711 19.511 15.8241C19.6101 15.7771 19.6982 15.7102 19.7696 15.6277C19.8409 15.5453 19.894 15.4491 19.9254 15.3452C19.9567 15.2414 19.9657 15.1323 19.9516 15.0249H19.95Z" fill="#DCE5E5"/>
<path d="M24.1359 16.4698C23.7865 16.5567 23.4276 16.6009 23.0672 16.6015C21.9093 16.6015 21.2862 16.0762 21.2862 15.0679C21.2611 14.8155 21.2895 14.5607 21.3694 14.3196C21.4494 14.0785 21.5792 13.8564 21.7507 13.6671C21.9222 13.4778 22.1317 13.3255 22.3659 13.2198C22.6002 13.114 22.8542 13.0572 23.1119 13.0528C23.2869 13.0319 23.4644 13.0482 23.6324 13.1006C23.8005 13.153 23.9551 13.2402 24.086 13.3565C24.2168 13.4727 24.3208 13.6152 24.3908 13.7744C24.4609 13.9335 24.4954 14.1056 24.4921 14.2791C24.4842 14.5598 24.4392 14.8383 24.3582 15.1076H22.2655V15.2394C22.2655 15.6338 22.5771 15.8525 23.1556 15.8525C23.5249 15.8691 23.8924 15.7939 24.2243 15.6338L24.135 16.4623L24.1359 16.4698ZM23.602 14.4547V14.2799C23.6041 14.2179 23.5925 14.1563 23.5679 14.0992C23.5434 14.0421 23.5066 13.9909 23.4599 13.9492C23.4133 13.9075 23.358 13.8763 23.2979 13.8577C23.2378 13.8391 23.1743 13.8336 23.1119 13.8416C22.9447 13.8491 22.7857 13.915 22.6634 14.0273C22.541 14.1396 22.4633 14.2912 22.4441 14.4547H23.602Z" fill="#DCE5E5"/>
<path d="M35.3566 15.0238C35.331 15.2628 35.2576 15.4945 35.1407 15.7055C35.0238 15.9165 34.8656 16.1027 34.6753 16.2533C34.4849 16.4039 34.2662 16.516 34.0316 16.5832C33.7971 16.6503 33.5514 16.6711 33.3086 16.6445C33.0904 16.6687 32.8694 16.6451 32.6616 16.5753C32.4537 16.5054 32.2642 16.3911 32.1067 16.2405C31.9492 16.09 31.8275 15.9069 31.7506 15.7045C31.6736 15.5022 31.6431 15.2855 31.6614 15.0702C31.6452 14.8014 31.6871 14.5323 31.7843 14.2806C31.8815 14.0289 32.0318 13.8003 32.2253 13.6099C32.4188 13.4195 32.6511 13.2717 32.907 13.176C33.1628 13.0804 33.4363 13.0392 33.7094 13.0551C33.9228 13.0374 34.1375 13.0642 34.3396 13.1338C34.5416 13.2035 34.7265 13.3143 34.882 13.4591C35.0375 13.6039 35.1602 13.7794 35.242 13.9741C35.3238 14.1687 35.3628 14.3782 35.3566 14.5888V15.0271V15.0238ZM34.2433 14.5855C34.2433 14.235 34.1094 13.9284 33.6648 13.9284C33.1309 13.9284 32.8227 14.5416 32.8227 15.1116C32.8227 15.5499 33.045 15.8573 33.4012 15.8573C33.604 15.8144 33.7889 15.7124 33.9319 15.5646C34.0749 15.4169 34.1693 15.2301 34.2029 15.0288C34.2377 14.8853 34.2527 14.7379 34.2475 14.5904L34.2433 14.5855Z" fill="white"/>
<path d="M31.7056 15.4616C31.7574 15.1428 31.7872 14.8208 31.7948 14.498V14.4102C31.7405 14.6401 31.7106 14.8751 31.7056 15.1111C31.6606 15.2238 31.6606 15.349 31.7056 15.4616Z" fill="white"/>
</svg>
