<svg width="48" height="29" viewBox="0 0 48 29" fill="none" xmlns="http://www.w3.org/2000/svg">
<path d="M46.3158 0H1.68421C0.754047 0 0 0.741928 0 1.65714V27.3429C0 28.2581 0.754047 29 1.68421 29H46.3158C47.246 29 48 28.2581 48 27.3429V1.65714C48 0.741928 47.246 0 46.3158 0Z" fill="#F3F2F2"/>
<path d="M38.1351 14.5006C38.1351 16.6981 37.2479 18.8056 35.6686 20.3594C34.0893 21.9133 31.9474 22.7863 29.714 22.7863C27.4806 22.7863 25.3387 21.9133 23.7594 20.3594C22.1802 18.8056 21.293 16.6981 21.293 14.5006C21.293 12.3031 22.1802 10.1955 23.7594 8.64167C25.3387 7.0878 27.4806 6.21484 29.714 6.21484C31.9474 6.21484 34.0893 7.0878 35.6686 8.64167C37.2479 10.1955 38.1351 12.3031 38.1351 14.5006Z" fill="#FFB600"/>
<path d="M29.714 6.21484C31.9456 6.22053 34.0842 7.09531 35.6622 8.64795C37.2402 10.2006 38.1293 12.3048 38.1351 14.5006C38.1351 16.6981 37.2479 18.8056 35.6686 20.3594C34.0893 21.9133 31.9474 22.7863 29.714 22.7863C27.4806 22.7863 25.3387 21.9133 23.7594 20.3594C22.1802 18.8056 21.293 16.6981 21.293 14.5006" fill="#F7981D"/>
<path d="M29.7148 6.21484C31.9465 6.22053 34.0851 7.09531 35.6631 8.64795C37.2411 10.2006 38.1301 12.3048 38.1359 14.5006C38.1368 15.5889 37.9196 16.6667 37.4967 17.6724C37.0738 18.6781 36.4536 19.5918 35.6714 20.3614C34.8893 21.131 33.9606 21.7412 32.9385 22.1573C31.9164 22.5734 30.821 22.7871 29.7148 22.7863" fill="#FF8500"/>
<path d="M18.1969 6.21484C15.9634 6.22649 13.8262 7.11062 12.2553 8.67272C10.6845 10.2348 9.80859 12.347 9.82043 14.5445C9.83227 16.742 10.7308 18.8449 12.3185 20.3905C13.9061 21.9361 16.0527 22.7979 18.2861 22.7863C20.3764 22.7775 22.3905 22.0128 23.9451 20.6378C24.2496 20.3673 24.5325 20.0743 24.7914 19.7612H23.0533C22.831 19.4942 22.6227 19.2163 22.4293 18.9284H25.4145C25.6041 18.6512 25.7681 18.3578 25.9046 18.0518H21.94C21.7946 17.7708 21.6754 17.4774 21.5838 17.1752H26.2154C26.5003 16.326 26.6506 15.4387 26.6609 14.5445C26.6477 13.9564 26.5881 13.3702 26.4823 12.7912H21.3177C21.371 12.4942 21.4456 12.2013 21.5409 11.9146H26.1724C26.0808 11.6124 25.9616 11.319 25.8162 11.038H21.8954C22.0415 10.7367 22.2051 10.444 22.3855 10.1613H25.3707C25.188 9.84144 24.9632 9.54668 24.7021 9.2847H23.0533C23.3127 8.98565 23.5957 8.70722 23.8996 8.45198C22.3605 7.05232 20.3363 6.2838 18.2406 6.3035C18.2415 6.21484 18.2415 6.21484 18.1969 6.21484Z" fill="#FF5050"/>
<path d="M9.86719 14.5003C9.8663 15.5886 10.0835 16.6665 10.5064 17.6721C10.9293 18.6778 11.5495 19.5916 12.3317 20.3611C13.1138 21.1307 14.0425 21.741 15.0646 22.1571C16.0867 22.5732 17.1821 22.7869 18.2882 22.786C20.3786 22.7773 22.3927 22.0126 23.9472 20.6375C24.2517 20.3671 24.5346 20.074 24.7935 19.7609H23.0554C22.8331 19.494 22.6248 19.2161 22.4314 18.9282H25.4167C25.6062 18.6509 25.7702 18.3575 25.9068 18.0516H21.9421C21.7968 17.7705 21.6775 17.4771 21.5859 17.1749H26.2175C26.5025 16.3258 26.6527 15.4384 26.663 14.5442C26.6499 13.9561 26.5902 13.3699 26.4845 12.791H21.3198C21.3731 12.494 21.4477 12.201 21.543 11.9143H26.1746C26.083 11.6121 25.9637 11.3187 25.8183 11.0377H21.8975C22.0436 10.7365 22.2073 10.4438 22.3876 10.1611H25.3729C25.1901 9.84148 24.9653 9.54701 24.7042 9.28528H23.0554C23.3148 8.98623 23.5978 8.7078 23.9017 8.45257C22.3627 7.0529 20.3384 6.28438 18.2428 6.30408H18.199" fill="#E52836"/>
<path d="M18.3705 22.7859C20.4608 22.7771 22.4749 22.0124 24.0295 20.6374C24.334 20.3669 24.6169 20.0739 24.8758 19.7608H23.1385C22.9162 19.4938 22.7079 19.2159 22.5145 18.928H25.4998C25.6893 18.6508 25.8533 18.3574 25.9899 18.0514H22.0244C21.879 17.7704 21.7598 17.477 21.6682 17.1748H26.2998C26.5847 16.3256 26.735 15.4383 26.7452 14.5441C26.7321 13.956 26.6724 13.3698 26.5667 12.7908H21.397C21.4504 12.4938 21.5249 12.2009 21.6202 11.9142H26.2518C26.1602 11.612 26.0409 11.3186 25.8956 11.0376H21.9747C22.1209 10.7363 22.2845 10.4436 22.4648 10.1609H25.4501C25.2674 9.84104 25.0426 9.54629 24.7815 9.2843H23.1326C23.392 8.98526 23.675 8.70682 23.9789 8.45159C22.4399 7.05192 20.4157 6.28341 18.32 6.3031H18.2812" fill="#CB2026"/>
<path d="M21.3488 16.6049L21.4827 15.8592C21.4093 15.8781 21.3348 15.8928 21.2596 15.9031C20.948 15.9031 20.9033 15.7274 20.948 15.6404L21.2149 14.1059H21.705L21.8389 13.2732H21.3934L21.4827 12.7471H20.5918C20.5918 12.7471 20.057 15.6404 20.057 15.9909C20.0434 16.0882 20.0521 16.1873 20.0825 16.2808C20.1128 16.3743 20.1641 16.46 20.2325 16.5315C20.3009 16.603 20.3847 16.6586 20.4778 16.6941C20.5708 16.7296 20.6708 16.7441 20.7703 16.7366C20.9706 16.735 21.1681 16.69 21.3488 16.6049Z" fill="white"/>
<path d="M21.676 15.2012C21.6535 15.4081 21.6785 15.6174 21.7489 15.8136C21.8194 16.0098 21.9335 16.188 22.0831 16.3352C22.2326 16.4823 22.4137 16.5946 22.6132 16.664C22.8126 16.7333 23.0252 16.7578 23.2355 16.7357C23.5533 16.7556 23.8718 16.7108 24.1711 16.604L24.3496 15.7713C24.0539 15.8996 23.7369 15.9739 23.4141 15.9908C22.4339 15.9908 22.6124 15.289 22.6124 15.289H24.4389C24.5023 15.0295 24.547 14.7659 24.5728 14.5002C24.5855 14.3301 24.5608 14.1593 24.5003 13.9994C24.4399 13.8396 24.3452 13.6944 24.2226 13.5738C24.1 13.4532 23.9525 13.36 23.79 13.3005C23.6275 13.241 23.4539 13.2167 23.281 13.2292C22.3446 13.1414 21.676 14.1058 21.676 15.2012ZM23.2355 13.9302C23.7256 13.9302 23.6364 14.5002 23.6364 14.5441H22.6562C22.6562 14.5002 22.7454 13.9302 23.2355 13.9302Z" fill="white"/>
<path d="M28.9349 16.6037L29.1134 15.6392C28.8764 15.757 28.6196 15.8314 28.3555 15.8588C27.7315 15.8588 27.4646 15.3765 27.4646 14.8504C27.4646 13.7981 27.9993 13.228 28.6233 13.228C28.9107 13.2375 29.1892 13.3288 29.425 13.4907L29.5589 12.5702C29.2323 12.4408 28.8858 12.3666 28.5341 12.3506C27.5092 12.3506 26.4844 13.2272 26.4844 14.8935C26.4844 15.9897 27.0191 16.7346 28.0844 16.7346C28.3718 16.7212 28.657 16.6773 28.9349 16.6037Z" fill="white"/>
<path d="M16.4044 13.1391C16.0403 13.1365 15.6785 13.196 15.3349 13.3148L15.201 14.0605C15.5134 13.9411 15.8461 13.8815 16.1813 13.8849C16.4928 13.8849 16.7606 13.9288 16.7606 14.1914C16.7606 14.3671 16.716 14.411 16.716 14.411H16.3109C15.553 14.411 14.7109 14.7176 14.7109 15.726C14.7109 16.5148 15.2457 16.6904 15.5573 16.6904C15.9097 16.6852 16.2459 16.5435 16.4928 16.296L16.4482 16.6465H17.2499L17.6061 14.2353C17.6163 14.0812 17.5914 13.9268 17.5333 13.7834C17.4752 13.6399 17.3854 13.511 17.2703 13.406C17.1552 13.301 17.0177 13.2226 16.868 13.1764C16.7182 13.1302 16.5598 13.1175 16.4044 13.1391ZM16.5829 15.112C16.5829 15.2437 16.4937 15.9447 15.9589 15.9447C15.9118 15.9458 15.865 15.9375 15.8213 15.9203C15.7775 15.9031 15.7378 15.8773 15.7045 15.8446C15.6712 15.8118 15.645 15.7727 15.6275 15.7297C15.61 15.6866 15.6016 15.6405 15.6027 15.5942C15.6027 15.3746 15.7366 15.0681 16.4044 15.0681C16.4614 15.0903 16.5212 15.105 16.5821 15.112H16.5829Z" fill="white"/>
<path d="M18.4766 16.6918C18.6432 16.7197 18.8139 16.7108 18.9766 16.6659C19.1393 16.621 19.2898 16.5412 19.4173 16.4321C19.5449 16.3231 19.6462 16.1875 19.714 16.0353C19.7819 15.883 19.8145 15.7178 19.8096 15.5516C19.8096 14.4554 18.7402 14.675 18.7402 14.2367C18.7402 14.0171 18.9187 13.9301 19.2303 13.9301C19.3642 13.9301 19.8543 13.974 19.8543 13.974L19.9882 13.1852C19.7109 13.121 19.4266 13.0915 19.1418 13.0974C18.4732 13.0974 17.8054 13.3601 17.8054 14.2375C17.8054 15.2459 18.9195 15.1581 18.9195 15.5525C18.9195 15.8151 18.6079 15.859 18.3848 15.859C18.1126 15.8522 17.8428 15.8078 17.5831 15.7273L17.4492 16.5161C17.4964 16.6039 17.7187 16.6918 18.4766 16.6918Z" fill="white"/>
<path d="M36.3992 12.4404L36.2173 13.6245C36.1134 13.5002 35.9854 13.3975 35.8409 13.3222C35.6963 13.247 35.538 13.2007 35.3752 13.1862C34.5735 13.1862 33.8594 14.1506 33.8594 15.2907C33.8594 15.9925 34.2156 16.7374 34.9735 16.7374C35.1311 16.7371 35.2871 16.706 35.4324 16.6458C35.5777 16.5856 35.7094 16.4976 35.8198 16.3869L35.7752 16.6935H36.6661L37.3347 12.4852L36.3992 12.4404ZM35.9983 14.7604C35.9983 15.2427 35.7752 15.8566 35.2851 15.8566C34.9735 15.8566 34.7949 15.594 34.7949 15.1548C34.7949 14.453 35.1065 14.0147 35.5082 14.0147C35.8198 14.0147 35.9983 14.2376 35.9983 14.7604Z" fill="white"/>
<path d="M11.5143 16.6488L12.049 13.4919L12.1383 16.6488H12.7623L13.921 13.4919L13.4309 16.6488H14.3665L15.0798 12.4404H13.6086L12.7177 15.0272L12.673 12.4404H11.3812L10.668 16.6488H11.5143Z" fill="white"/>
<path d="M25.4411 16.6471C25.7081 15.2004 25.7527 14.0163 26.3767 14.2359C26.4273 13.886 26.5324 13.5459 26.6883 13.2275H26.5098C26.1089 13.2275 25.7965 13.7537 25.7965 13.7537L25.8858 13.2714H25.0395L24.4609 16.691H25.4411V16.6471Z" fill="white"/>
<path d="M31.0099 13.14C30.6458 13.1374 30.2839 13.1968 29.9404 13.3156L29.8065 14.0613C30.1189 13.942 30.4516 13.8824 30.7867 13.8857C31.0983 13.8857 31.3661 13.9296 31.3661 14.1923C31.3661 14.3679 31.3215 14.4118 31.3215 14.4118H30.9164C30.1585 14.4118 29.3164 14.7184 29.3164 15.7268C29.3164 16.5156 29.8511 16.6912 30.1627 16.6912C30.5152 16.6861 30.8514 16.5443 31.0983 16.2968L31.0537 16.6473H31.8554L32.2116 14.2362C32.2248 14.0813 32.2021 13.9255 32.145 13.7806C32.088 13.6357 31.9981 13.5055 31.8823 13.3998C31.7665 13.2942 31.6278 13.2159 31.4766 13.1708C31.3254 13.1258 31.1658 13.1153 31.0099 13.14ZM31.233 15.1128C31.233 15.2445 31.1438 15.9455 30.609 15.9455C30.5619 15.9467 30.5151 15.9384 30.4714 15.9212C30.4276 15.9039 30.3879 15.8782 30.3546 15.8454C30.3213 15.8126 30.2951 15.7735 30.2776 15.7305C30.2601 15.6874 30.2517 15.6414 30.2528 15.595C30.2528 15.3755 30.3867 15.0689 31.0545 15.0689C31.1876 15.1128 31.1876 15.1128 31.2322 15.1128H31.233Z" fill="white"/>
<path d="M33.0123 16.6471C33.2793 15.2004 33.3239 14.0163 33.9479 14.2359C33.9985 13.886 34.1036 13.5459 34.2595 13.2275H34.081C33.6801 13.2275 33.3677 13.7537 33.3677 13.7537L33.457 13.2714H32.6106L32.0312 16.691H33.0115L33.0123 16.6471Z" fill="white"/>
<path d="M19.9672 15.9909C19.9536 16.0882 19.9623 16.1873 19.9926 16.2808C20.023 16.3743 20.0743 16.46 20.1427 16.5315C20.2111 16.603 20.2949 16.6586 20.3879 16.6941C20.481 16.7296 20.5809 16.7441 20.6805 16.7366C20.9101 16.7377 21.1376 16.6929 21.3491 16.6049L21.483 15.8592C21.4095 15.8781 21.335 15.8928 21.2598 15.9031C20.9482 15.9031 20.9036 15.7274 20.9482 15.6404L21.2152 14.1059H21.7053L21.8392 13.2732H21.3937L21.483 12.7471" fill="#DCE5E5"/>
<path d="M22.125 15.2012C22.125 16.4283 22.5259 16.7357 23.2391 16.7357C23.5569 16.7557 23.8754 16.7108 24.1747 16.604L24.3532 15.7713C24.0574 15.8996 23.7404 15.9739 23.4176 15.9908C22.4374 15.9908 22.616 15.289 22.616 15.289H24.4425C24.5059 15.0295 24.5506 14.7659 24.5764 14.5002C24.5889 14.3302 24.5641 14.1594 24.5036 13.9996C24.4431 13.8398 24.3484 13.6947 24.2258 13.5741C24.1033 13.4535 23.9558 13.3603 23.7934 13.3008C23.631 13.2413 23.4574 13.2169 23.2846 13.2292C22.3482 13.1414 22.125 14.1058 22.125 15.2012ZM23.2391 13.9302C23.7292 13.9302 23.8185 14.5002 23.8185 14.5441H22.6597C22.6597 14.5002 22.749 13.9302 23.2391 13.9302Z" fill="#DCE5E5"/>
<path d="M28.9383 16.6037L29.1169 15.6392C28.8798 15.757 28.623 15.8314 28.359 15.8588C27.735 15.8588 27.468 15.3765 27.468 14.8504C27.468 13.7981 28.0027 13.228 28.6267 13.228C28.9142 13.2375 29.1926 13.3288 29.4285 13.4907L29.5623 12.5702C29.2357 12.4408 28.8892 12.3666 28.5375 12.3506C27.5127 12.3506 26.9375 13.2272 26.9375 14.8935C26.9375 15.9897 27.0268 16.7346 28.0962 16.7346C28.3809 16.7206 28.6632 16.6767 28.9383 16.6037Z" fill="#DCE5E5"/>
<path d="M15.201 14.104C15.5134 13.9847 15.8461 13.925 16.1813 13.9284C16.4928 13.9284 16.7606 13.9723 16.7606 14.2349C16.7606 14.4106 16.716 14.4545 16.716 14.4545H16.3109C15.553 14.4545 14.7109 14.7611 14.7109 15.7694C14.7109 16.5582 15.2457 16.7339 15.5573 16.7339C15.9097 16.7287 16.2459 16.587 16.4928 16.3395L16.4482 16.69H17.2499L17.6061 14.2789C17.6061 13.2705 16.7151 13.2266 16.3589 13.2266L15.201 14.104ZM17.0276 15.1116C16.9318 15.3256 16.7842 15.5134 16.5978 15.6585C16.4114 15.8036 16.1918 15.9017 15.9581 15.9443C15.911 15.9454 15.8642 15.9371 15.8204 15.9199C15.7767 15.9027 15.737 15.8769 15.7036 15.8442C15.6703 15.8114 15.6441 15.7723 15.6266 15.7293C15.6092 15.6862 15.6007 15.6401 15.6019 15.5938C15.6019 15.3742 15.7358 15.0676 16.4036 15.0676C16.6099 15.1002 16.8186 15.1151 17.0276 15.1124V15.1116Z" fill="#DCE5E5"/>
<path d="M17.4961 16.6039C17.832 16.6791 18.1768 16.7087 18.5209 16.6918C18.6877 16.7202 18.8589 16.7118 19.022 16.6672C19.1851 16.6225 19.3361 16.5427 19.464 16.4336C19.5919 16.3245 19.6936 16.1887 19.7616 16.0362C19.8296 15.8837 19.8623 15.7182 19.8574 15.5516C19.8574 14.4554 18.7879 14.675 18.7879 14.2367C18.7879 14.0171 18.9664 13.9301 19.278 13.9301C19.4119 13.9301 19.902 13.974 19.902 13.974L20.0359 13.1852C19.7587 13.121 19.4743 13.0915 19.1896 13.0974C18.5209 13.0974 18.2986 13.3601 18.2986 14.2375C18.2986 15.2459 18.9672 15.1581 18.9672 15.5525C18.9672 15.8151 18.6557 15.859 18.4325 15.859" fill="#DCE5E5"/>
<path d="M36.2198 13.6237C36.1154 13.4989 35.9868 13.3959 35.8415 13.3206C35.6962 13.2454 35.5371 13.1994 35.3735 13.1853C34.5718 13.1853 34.304 14.1498 34.304 15.2899C34.304 15.9917 34.2148 16.7366 34.9727 16.7366C35.1303 16.7363 35.2863 16.7052 35.4316 16.645C35.5769 16.5848 35.7086 16.4968 35.819 16.3861L35.7743 16.6927H36.6653L37.3339 12.4844L36.2198 13.6237ZM36.1752 14.7638C36.1752 15.246 35.7743 15.86 35.2842 15.86C34.9727 15.86 34.7941 15.5973 34.7941 15.1582C34.7941 14.4564 35.1057 14.0181 35.5074 14.0181C35.6025 14.0193 35.6962 14.0402 35.7826 14.0792C35.869 14.1183 35.9462 14.1747 36.0091 14.2449C36.072 14.315 36.1192 14.3974 36.1479 14.4866C36.1765 14.5758 36.1858 14.67 36.1752 14.7629V14.7638Z" fill="#DCE5E5"/>
<path d="M11.5143 16.6488L12.049 13.4919L12.1383 16.6488H12.7623L13.921 13.4919L13.4309 16.6488H14.3665L15.0798 12.4404H13.9648L12.7177 15.0272L12.673 12.4404H12.1838L10.668 16.6488H11.5143Z" fill="#DCE5E5"/>
<path d="M24.5039 16.6471H25.4395C25.7073 15.2004 25.7511 14.0163 26.3751 14.2359C26.4257 13.886 26.5308 13.5459 26.6867 13.2275H26.5081C26.1073 13.2275 25.7949 13.7537 25.7949 13.7537L25.8841 13.2714" fill="#DCE5E5"/>
<path d="M29.8065 14.104C30.1189 13.9846 30.4516 13.925 30.7867 13.9284C31.0983 13.9284 31.3661 13.9723 31.3661 14.2349C31.3661 14.4106 31.3215 14.4545 31.3215 14.4545H30.9164C30.1585 14.4545 29.3164 14.7611 29.3164 15.7694C29.3164 16.5582 29.8511 16.7339 30.1627 16.7339C30.5152 16.7287 30.8514 16.587 31.0983 16.3395L31.0537 16.69H31.8554L32.2116 14.2789C32.2116 13.2705 31.3206 13.2266 30.9636 13.2266L29.8065 14.104ZM31.6322 15.1116C31.5364 15.3256 31.3889 15.5134 31.2025 15.6585C31.0161 15.8036 30.7965 15.9017 30.5627 15.9443C30.5156 15.9454 30.4688 15.9371 30.4251 15.9199C30.3813 15.9027 30.3416 15.8769 30.3083 15.8442C30.275 15.8114 30.2488 15.7723 30.2313 15.7293C30.2138 15.6862 30.2054 15.6401 30.2065 15.5938C30.2065 15.3742 30.3404 15.0676 31.0082 15.0676C31.2149 15.0989 31.4239 15.1139 31.633 15.1124L31.6322 15.1116Z" fill="#DCE5E5"/>
<path d="M32.0781 16.6471H33.0137C33.2806 15.2004 33.3253 14.0163 33.9493 14.2359C33.9999 13.886 34.105 13.5459 34.2608 13.2275H34.0823C33.6815 13.2275 33.3691 13.7537 33.3691 13.7537L33.4583 13.2714" fill="#DCE5E5"/>
</svg>
