<svg width="47" height="46" viewBox="0 0 47 46" fill="none" xmlns="http://www.w3.org/2000/svg">
<g clip-path="url(#clip0_41_6899)">
<path d="M45.7333 34.5H39.094C37.8984 33.558 36.4946 32.9151 35 32.6251C35.502 31.4157 35.7625 30.12 35.7667 28.8104C35.7337 24.5439 33.9518 20.4769 30.837 17.5603L30.7205 17.4484C31.0091 17.0583 31.1655 16.5853 31.1667 16.1V9.93907C32.5591 9.73782 33.5598 8.49467 33.4592 7.09148C33.3586 5.68752 32.1905 4.60019 30.7833 4.6H28.1L29.5739 1.06164C29.6728 0.825125 29.6467 0.554683 29.5045 0.341358C29.3627 0.128225 29.1231 0 28.8667 0H18.1333C17.8769 0 17.6373 0.128225 17.4955 0.341358C17.3533 0.554683 17.3272 0.825125 17.4261 1.06164L17.6795 1.6698L14.7493 4.6H1.26667C0.843083 4.6 0.5 4.94308 0.5 5.36667V17.6333C0.5 18.0569 0.843083 18.4 1.26667 18.4H15.3733C12.7381 21.2294 11.2609 24.9443 11.2333 28.8104C11.2391 30.8729 11.8687 32.8854 13.0404 34.5826C11.6393 34.2551 10.2089 34.9999 9.67317 36.3354C9.13439 37.6719 9.65017 39.2016 10.8883 39.9387L19.7127 45.2333C20.5464 45.734 21.5 45.9996 22.4727 46H45.7333C46.1569 46 46.5 45.6569 46.5 45.2333V35.2667C46.5 34.8431 46.1569 34.5 45.7333 34.5ZM27.7167 1.53333L26.4384 4.6H20.5616L19.2833 1.53333H27.7167ZM2.03333 6.13333H11.2333V16.8667H2.03333V6.13333ZM12.7667 6.13333H15.0667C15.27 6.13333 15.4649 6.05245 15.6087 5.9087L18.3175 3.19987L19.3428 5.66164C19.4616 5.94742 19.7405 6.13333 20.05 6.13333H30.7833C31.4185 6.13333 31.9333 6.64815 31.9333 7.28333C31.9333 7.91852 31.4185 8.43333 30.7833 8.43333H30.4C29.9764 8.43333 29.6333 8.77642 29.6333 9.2V16.1C29.6333 16.5236 29.2903 16.8667 28.8667 16.8667H12.7667V6.13333ZM17.2271 18.6655L17.5012 18.4H29.4988L29.7729 18.6655C32.5869 21.293 34.1992 24.9604 34.2333 28.8104C34.231 30.0702 33.9504 31.3135 33.4103 32.4515C31.735 32.4158 30.0795 32.8218 28.6098 33.6275L28.4161 33.7333H22.7333C21.7779 33.7333 20.877 34.178 20.2971 34.937C19.7165 35.6956 19.5229 36.6815 19.7732 37.6031L16.7913 36.2373C14.3144 34.57 12.8109 31.7956 12.7667 28.8104C12.8008 24.9604 14.4131 21.293 17.2271 18.6655ZM20.5016 43.9208L11.677 38.6254C11.0859 38.2732 10.8395 37.5427 11.0969 36.9045C11.2362 36.5543 11.5135 36.2764 11.8639 36.1365C12.2143 35.9962 12.6064 36.0061 12.9489 36.1637L20.8801 39.7973C20.9807 39.8427 21.0896 39.8667 21.2 39.8667H28.8667C29.2903 39.8667 29.6333 39.5236 29.6333 39.1C29.6333 38.6764 29.2903 38.3333 28.8667 38.3333H22.7333C21.8864 38.3333 21.2 37.647 21.2 36.8C21.2 35.953 21.8864 35.2667 22.7333 35.2667H28.6116C28.7398 35.2667 28.8663 35.2343 28.9788 35.1731L29.3443 34.9738C32.1252 33.4439 35.5482 33.7036 38.0667 35.6354V44.4667H22.4744C21.7796 44.4665 21.098 44.2777 20.5016 43.9208ZM44.9667 44.4667H39.6V36.0333H44.9667V44.4667Z" fill="#3D4F3C"/>
<path fill-rule="evenodd" clip-rule="evenodd" d="M14.7254 1.5358C13.8656 1.5358 13.1689 2.22326 13.1689 3.0716H11.6123C11.6123 1.37531 13.0062 0 14.7254 0V1.5358ZM42.0942 16.8832C42.4687 16.8208 42.7425 16.5006 42.7425 16.1261C42.7425 15.7515 42.4687 15.4313 42.0942 15.3689C40.8256 15.1602 39.8315 14.1794 39.6201 12.9277C39.5568 12.5582 39.2323 12.2881 38.8527 12.2881C38.4731 12.2881 38.1485 12.5582 38.0853 12.9277C37.8738 14.1794 36.8798 15.1602 35.6112 15.3689C35.2366 15.4313 34.9629 15.7515 34.9629 16.1261C34.9629 16.5006 35.2366 16.8208 35.6112 16.8832C36.8798 17.0919 37.8738 18.0727 38.0853 19.3244C38.1485 19.6939 38.4731 19.964 38.8527 19.964C39.2323 19.964 39.5568 19.6939 39.6201 19.3244C39.8315 18.0727 40.8256 17.0919 42.0942 16.8832ZM38.8527 17.2226C38.549 16.7964 38.1733 16.4257 37.7413 16.1261C38.1733 15.8264 38.549 15.4557 38.8527 15.0295C39.1564 15.4557 39.5321 15.8264 39.964 16.1261C39.5321 16.4257 39.1564 16.7964 38.8527 17.2226ZM10.0555 13.8215H8.5V15.3572H10.0555V13.8215ZM23.287 26.8765H24.8436C25.2736 26.8765 25.6219 27.2202 25.6219 27.6444C25.6219 28.0687 25.2736 28.4123 24.8436 28.4123H21.7305V29.9481H23.287V31.4839H24.8436V29.9481C26.1328 29.9481 27.1784 28.9165 27.1784 27.6444C27.1784 26.3724 26.1328 25.3407 24.8436 25.3407H23.287C22.8571 25.3407 22.5088 24.9971 22.5088 24.5728C22.5088 24.1486 22.8571 23.8049 23.287 23.8049H26.4001V22.2691H24.8436V20.7333H23.287V22.2691C21.9978 22.2691 20.9522 23.3008 20.9522 24.5728C20.9522 25.8449 21.9978 26.8765 23.287 26.8765ZM40.1338 26.6385C40.5599 28.3187 40.4916 30.0837 39.9361 31.7266L38.4587 31.2413C38.9208 29.8756 38.9778 28.4077 38.6239 27.0109L38.4424 26.2947L39.9523 25.9226L40.1338 26.6385ZM43.5224 41.4666H41.9669V43.0023H43.5224V41.4666Z" fill="#3D4F3C"/>
</g>
<defs>
<clipPath id="clip0_41_6899">
<rect width="46" height="46" fill="white" transform="translate(0.5)"/>
</clipPath>
</defs>
</svg>
