<svg width="16" height="16" viewBox="0 0 16 16" fill="none" xmlns="http://www.w3.org/2000/svg">
<path d="M2.60461 15.2729H13.3954C14.3355 15.2729 15.1775 14.7868 15.6475 13.9728C16.1175 13.1587 16.1176 12.1865 15.6475 11.3723L10.252 2.02723C9.78198 1.21314 8.94008 0.727051 7.99998 0.727051C7.05988 0.727051 6.21797 1.21314 5.74796 2.02723L0.352571 11.3723C-0.117519 12.1865 -0.117519 13.1586 0.352571 13.9728C0.822659 14.7869 1.66456 15.2729 2.60461 15.2729ZM7.99998 1.47439C8.66991 1.47439 9.2698 1.8208 9.60478 2.4009L15.0002 11.746C15.3352 12.3262 15.3351 13.0189 15.0002 13.5991C14.6653 14.1792 14.0654 14.5256 13.3954 14.5256H2.60466C1.93473 14.5256 1.33484 14.1792 0.999862 13.5991C0.664909 13.019 0.664909 12.3261 0.999862 11.746L6.39526 2.4009C6.73015 1.82072 7.33005 1.47439 7.99998 1.47439ZM1.47738 11.7882L6.67978 2.77734C6.95533 2.30001 7.44887 2.01512 7.99998 2.01512C8.55116 2.01512 9.0447 2.30009 9.32026 2.77734L14.5227 11.7882C14.7983 12.2656 14.7982 12.8354 14.5227 13.3127C14.2471 13.79 13.7536 14.0749 13.2024 14.0749H2.79758C2.24639 14.0749 1.75285 13.79 1.4773 13.3127C1.20174 12.8354 1.20182 12.2655 1.47738 11.7882ZM8.94217 5.5892C8.94217 5.06973 8.51953 4.64709 8.00006 4.64709C7.48058 4.64709 7.05794 5.06973 7.05794 5.5892V8.64663C7.05794 9.16613 7.48058 9.58875 8.00006 9.58875C8.51953 9.58875 8.94217 9.16611 8.94217 8.64663V5.5892ZM8.00006 12.3677C8.53239 12.3677 8.96549 11.9346 8.96549 11.4023C8.96549 10.87 8.53239 10.4369 8.00006 10.4369C7.46772 10.4369 7.03462 10.87 7.03462 11.4023C7.03462 11.9346 7.46772 12.3677 8.00006 12.3677Z" fill="#3D4F3C"/>
</svg>
