<svg width="25" height="25" viewBox="0 0 25 25" fill="none" xmlns="http://www.w3.org/2000/svg">
<path d="M24.7819 23.7251L18.7065 17.6497C20.3363 15.7761 21.323 13.3315 21.323 10.6596C21.323 4.77827 16.5391 0 10.6633 0C4.78193 0 0.00366211 4.78381 0.00366211 10.6596C0.00366211 16.5355 4.78748 21.3193 10.6633 21.3193C13.3351 21.3193 15.7797 20.3326 17.6533 18.7029L23.7287 24.7783C23.8728 24.9224 24.0669 25 24.2553 25C24.4438 25 24.6378 24.9279 24.7819 24.7783C25.0702 24.49 25.0702 24.0133 24.7819 23.7251ZM1.49479 10.6596C1.49479 5.60421 5.60787 1.49667 10.6578 1.49667C15.7132 1.49667 19.8207 5.60976 19.8207 10.6596C19.8207 15.7095 15.7132 19.8282 10.6578 19.8282C5.60787 19.8282 1.49479 15.7151 1.49479 10.6596Z" fill="#67AF28"/>
</svg>
