<?xml version="1.0" encoding="UTF-8" standalone="no"?>
<svg
   xmlns:dc="http://purl.org/dc/elements/1.1/"
   xmlns:cc="http://creativecommons.org/ns#"
   xmlns:rdf="http://www.w3.org/1999/02/22-rdf-syntax-ns#"
   xmlns:svg="http://www.w3.org/2000/svg"
   xmlns="http://www.w3.org/2000/svg"
   xmlns:sodipodi="http://sodipodi.sourceforge.net/DTD/sodipodi-0.dtd"
   xmlns:inkscape="http://www.inkscape.org/namespaces/inkscape"
   width="21.546268"
   height="18.116899"
   viewBox="0 0 21.546268 18.116899"
   fill="none"
   version="1.1"
   id="svg11"
   sodipodi:docname="star-g.svg"
   inkscape:version="1.0.2-2 (e86c870879, 2021-01-15)">
  <metadata
     id="metadata15">
    <rdf:RDF>
      <cc:Work
         rdf:about="">
        <dc:format>image/svg+xml</dc:format>
        <dc:type
           rdf:resource="http://purl.org/dc/dcmitype/StillImage" />
      </cc:Work>
    </rdf:RDF>
  </metadata>
  <sodipodi:namedview
     pagecolor="#ffffff"
     bordercolor="#666666"
     borderopacity="1"
     objecttolerance="10"
     gridtolerance="10"
     guidetolerance="10"
     inkscape:pageopacity="0"
     inkscape:pageshadow="2"
     inkscape:window-width="1920"
     inkscape:window-height="1017"
     id="namedview13"
     showgrid="false"
     inkscape:zoom="31.513578"
     inkscape:cx="10.91878"
     inkscape:cy="8.3958177"
     inkscape:window-x="1592"
     inkscape:window-y="-8"
     inkscape:window-maximized="1"
     inkscape:current-layer="svg11" />
  <path
     fill-rule="evenodd"
     clip-rule="evenodd"
     d="m 10.4173,0.985211 2.1429,4.342179 c 0.149,0.302 0.4372,0.51126 0.7705,0.55962 l 4.792,0.69634 c 0.8394,0.12207 1.1743,1.15332 0.5671,1.74504 l -3.4675,3.37991 c -0.2409,0.235 -0.3511,0.5739 -0.294,0.9056 l 0.8184,4.7726 c 0.1435,0.8358 -0.734,1.4731 -1.4847,1.0788 L 9.97614,16.2122 c -0.29803,-0.1566 -0.65433,-0.1566 -0.95237,0 l -4.2859,2.2531 C 3.98722,18.86 3.10975,18.2223 3.25322,17.3865 L 4.07164,12.6139 C 4.12871,12.2822 4.01853,11.9433 3.77756,11.7083 L 0.310084,8.32839 C -0.297092,7.73628 0.037806,6.70503 0.87723,6.58335 L 5.66924,5.88701 C 6.00255,5.83865 6.29068,5.62939 6.4397,5.32739 L 8.58265,0.985211 c 0.37493,-0.760555 1.45925,-0.760555 1.83465,0 z m 27,0 2.1429,4.342179 c 0.149,0.302 0.4372,0.51126 0.7705,0.55962 l 4.792,0.69634 c 0.8394,0.12207 1.1743,1.15332 0.5671,1.74504 l -3.4675,3.37991 c -0.2409,0.235 -0.3511,0.5739 -0.294,0.9056 l 0.8184,4.7726 c 0.1435,0.8358 -0.734,1.4731 -1.4847,1.0788 l -4.2859,-2.2531 c -0.298,-0.1566 -0.6543,-0.1566 -0.9523,0 l -4.2859,2.2531 c -0.7507,0.3947 -1.6282,-0.243 -1.4847,-1.0788 l 0.8184,-4.7726 c 0.0571,-0.3317 -0.0531,-0.6706 -0.294,-0.9056 L 27.3101,8.32839 C 26.7029,7.73628 27.0378,6.70503 27.8772,6.58335 l 4.792,-0.69634 c 0.3334,-0.04836 0.6215,-0.25762 0.7705,-0.55962 l 2.143,-4.342179 c 0.3749,-0.760555 1.4592,-0.760555 1.8346,0 z M 66.5602,5.32739 64.4173,0.985211 c -0.3754,-0.760555 -1.4597,-0.760555 -1.8346,0 l -2.143,4.342179 c -0.149,0.302 -0.4371,0.51126 -0.7705,0.55962 l -4.792,0.69634 c -0.8394,0.12168 -1.1743,1.15293 -0.5671,1.74504 l 3.4675,3.37991 c 0.2409,0.235 0.3511,0.5739 0.294,0.9056 l -0.8184,4.7726 c -0.1435,0.8358 0.734,1.4735 1.4847,1.0788 l 4.2859,-2.2531 c 0.298,-0.1566 0.6543,-0.1566 0.9523,0 l 4.2859,2.2531 c 0.7507,0.3943 1.6282,-0.243 1.4847,-1.0788 l -0.8184,-4.7726 c -0.0571,-0.3317 0.0531,-0.6706 0.294,-0.9056 L 72.6898,8.32839 C 73.297,7.73667 72.9621,6.70542 72.1227,6.58335 L 67.3307,5.88701 C 66.9974,5.83865 66.7092,5.62939 66.5602,5.32739 Z M 91.4173,0.985211 93.5602,5.32739 c 0.149,0.302 0.4372,0.51126 0.7705,0.55962 l 4.792,0.69634 c 0.8394,0.12207 1.1743,1.15332 0.5671,1.74504 l -3.4674,3.37991 c -0.241,0.235 -0.3512,0.5739 -0.2941,0.9056 l 0.8184,4.7726 c 0.1435,0.8358 -0.734,1.4731 -1.4847,1.0788 l -4.2859,-2.2531 c -0.298,-0.1566 -0.6543,-0.1566 -0.9523,0 l -4.2859,2.2531 c -0.7507,0.3947 -1.6282,-0.243 -1.4847,-1.0788 l 0.8184,-4.7726 c 0.0571,-0.3317 -0.0531,-0.6706 -0.294,-0.9056 L 81.3101,8.32839 C 80.7029,7.73628 81.0378,6.70503 81.8772,6.58335 l 4.792,-0.69634 c 0.3334,-0.04836 0.6215,-0.25762 0.7705,-0.55962 l 2.143,-4.342179 c 0.3749,-0.760555 1.4592,-0.760555 1.8346,0 z M 120.56,5.32739 118.417,0.985211 c -0.375,-0.760555 -1.459,-0.760555 -1.834,0 L 114.44,5.32739 c -0.149,0.302 -0.437,0.51126 -0.771,0.55962 l -4.792,0.69634 c -0.839,0.12168 -1.174,1.15293 -0.567,1.74504 l 3.468,3.37991 c 0.241,0.235 0.351,0.5739 0.294,0.9056 l -0.819,4.7726 c -0.143,0.8358 0.734,1.4735 1.485,1.0788 l 4.286,-2.2531 c 0.298,-0.1566 0.654,-0.1566 0.952,0 l 4.286,2.2531 c 0.751,0.3943 1.628,-0.243 1.485,-1.0788 l -0.819,-4.7726 c -0.057,-0.3317 0.053,-0.6706 0.294,-0.9056 l 3.468,-3.37991 c 0.607,-0.59172 0.272,-1.62297 -0.567,-1.74504 L 121.331,5.88701 C 120.997,5.83865 120.709,5.62939 120.56,5.32739 Z"
     fill="url(#paint0_linear_154_8200)"
     id="path2"
     clip-path="url(#clipPath871)"
     style="fill:url(#paint0_linear_154_8200)"
     transform="translate(-25.798403,-0.41479475)" />
  <defs
     id="defs9">
    <linearGradient
       id="paint0_linear_154_8200"
       x1="-37.629601"
       y1="0.414812"
       x2="120.66"
       y2="45.646099"
       gradientUnits="userSpaceOnUse">
      <stop
         offset="0.0001"
         stop-color="#67AF28"
         id="stop4" />
      <stop
         offset="1"
         stop-color="#6CDA0D"
         id="stop6" />
    </linearGradient>
    <clipPath
       clipPathUnits="userSpaceOnUse"
       id="clipPath871">
      <rect
         style="fill:#ffffff;stroke:#3d4f3c;stroke-linecap:square;paint-order:fill markers stroke"
         id="rect873"
         width="21.546268"
         height="18.499962"
         x="25.798403"
         y="0.031732354" />
    </clipPath>
  </defs>
</svg>
