<svg width="40" height="40" viewBox="0 0 40 40" fill="none" xmlns="http://www.w3.org/2000/svg">
<g clip-path="url(#clip0_121_8481)">
<mask id="mask0_121_8481" style="mask-type:alpha" maskUnits="userSpaceOnUse" x="0" y="0" width="40" height="40">
<path d="M0.0375977 39.9999V0.0249023H40.0001V39.9999H0.0375977Z" fill="white"/>
</mask>
<g mask="url(#mask0_121_8481)">
<path fill-rule="evenodd" clip-rule="evenodd" d="M40 20C40 31.0456 31.0456 40 20 40C8.95437 40 0 31.0456 0 20C0 8.95437 8.95437 0 20 0C31.0456 0 40 8.95437 40 20Z" fill="#7184C8"/>
<path fill-rule="evenodd" clip-rule="evenodd" d="M26.9812 31.2499C26.9099 31.2507 26.839 31.2397 26.7712 31.2174C26.6287 31.1705 26.4425 31.1205 26.2156 31.0574C23.2756 30.2436 14.3306 27.768 10.0262 14.4143C9.98783 14.2951 9.98329 14.1677 10.0131 14.0461C10.035 13.9586 10.5775 11.8586 14.1862 11.2599C14.3208 11.2364 14.4594 11.255 14.5831 11.313C14.715 11.373 17.8406 12.843 18.1012 15.8393C18.1193 16.0305 18.0537 16.2211 17.9243 16.3618C16.9 17.4718 16.0093 18.8368 16.0568 19.2255C16.1387 19.9168 18.3087 23.5624 22.1943 25.4624C22.7737 25.3705 24.1168 24.4855 25.0893 23.6549C25.2109 23.5498 25.3661 23.4915 25.5268 23.4905C25.5818 23.4905 25.6375 23.4974 25.6918 23.5118C28.7743 24.2593 29.8856 26.3743 29.9318 26.4643C29.9975 26.5924 30.0206 26.7399 29.9975 26.8818C29.4781 30.1468 27.3531 31.1474 27.2631 31.1886C27.1746 31.229 27.0785 31.2499 26.9812 31.2499Z" fill="#638DA0"/>
<path fill-rule="evenodd" clip-rule="evenodd" d="M18.1012 14.5893C17.8406 11.593 14.715 10.123 14.5831 10.063C14.4594 10.0049 14.3208 9.98639 14.1862 10.0099C10.5775 10.6087 10.035 12.7087 10.0131 12.7962C9.98309 12.9187 9.98809 13.0455 10.0262 13.1643C14.3306 26.518 23.2756 28.9937 26.2156 29.8074C26.4425 29.8705 26.6287 29.9205 26.7712 29.9674C26.933 30.0197 27.1085 30.0095 27.2631 29.9387C27.3531 29.8974 29.4781 28.8968 29.9975 25.6318C30.0206 25.4899 29.9975 25.3424 29.9318 25.2143C29.8856 25.1243 28.7743 23.0093 25.6918 22.2618C25.5873 22.2351 25.4779 22.2342 25.3729 22.2591C25.268 22.284 25.1707 22.3341 25.0893 22.4049C24.1168 23.2355 22.7737 24.1205 22.1943 24.2118C18.3087 22.3124 16.1387 18.6668 16.0568 17.9755C16.0093 17.5868 16.9 16.2218 17.9243 15.1118C18.0537 14.9712 18.1193 14.7805 18.1012 14.5893Z" fill="#FFFFFE"/>
</g>
</g>
<defs>
<clipPath id="clip0_121_8481">
<rect width="40" height="40" fill="white"/>
</clipPath>
</defs>
</svg>
