<svg width="16" height="16" viewBox="0 0 16 16" fill="none" xmlns="http://www.w3.org/2000/svg">
<g opacity="0.6" clip-path="url(#clip0_69_1231)">
<path d="M5.39462 1.45454C5.39462 0.977578 5.76685 0.628992 6.24382 0.628992H9.73476C10.2116 0.628992 10.5838 0.977578 10.5838 1.45454V2.35872H11.2128V1.45454C11.2128 0.630834 10.5585 0 9.73476 0H6.24382C5.42011 0 4.76562 0.630834 4.76562 1.45454V2.35872H5.39462V1.45454Z" fill="#3D4F3C"/>
<path d="M4.2699 16.0001H11.7077C12.4248 16.0001 12.9814 15.3692 12.9814 14.5848V4.87476H2.99609V14.5848C2.99609 15.3692 3.5526 16.0001 4.2699 16.0001V16.0001ZM9.99364 6.37645C9.99364 6.20277 10.1345 6.06195 10.3081 6.06195C10.4818 6.06195 10.6226 6.20277 10.6226 6.37645V13.8064C10.6226 13.9801 10.4818 14.1209 10.3081 14.1209C10.1345 14.1209 9.99364 13.9801 9.99364 13.8064V6.37645ZM7.67423 6.37645C7.67423 6.20277 7.81504 6.06195 7.98872 6.06195C8.1624 6.06195 8.30322 6.20277 8.30322 6.37645V13.8064C8.30322 13.9801 8.1624 14.1209 7.98872 14.1209C7.81504 14.1209 7.67423 13.9801 7.67423 13.8064V6.37645ZM5.35482 6.37645C5.35482 6.20277 5.49563 6.06195 5.66931 6.06195C5.84299 6.06195 5.98381 6.20277 5.98381 6.37645V13.8064C5.98381 13.9801 5.84299 14.1209 5.66931 14.1209C5.49563 14.1209 5.35482 13.9801 5.35482 13.8064V6.37645Z" fill="#3D4F3C"/>
<path d="M2.67296 4.24582H13.3029C13.7371 4.24582 14.0891 3.89386 14.0891 3.45958C14.0891 3.02531 13.7371 2.67334 13.3029 2.67334H2.67296C2.23868 2.67334 1.88672 3.02531 1.88672 3.45958C1.88672 3.89386 2.23868 4.24582 2.67296 4.24582Z" fill="#3D4F3C"/>
</g>
<defs>
<clipPath id="clip0_69_1231">
<rect width="16" height="16" fill="white"/>
</clipPath>
</defs>
</svg>
