<svg width="48" height="29" viewBox="0 0 48 29" fill="none" xmlns="http://www.w3.org/2000/svg">
<path d="M46.3158 0H1.68421C0.754047 0 0 0.741928 0 1.65714V27.3429C0 28.2581 0.754047 29 1.68421 29H46.3158C47.246 29 48 28.2581 48 27.3429V1.65714C48 0.741928 47.246 0 46.3158 0Z" fill="#F3F2F2"/>
<path d="M6.31641 9.34008V9.50579C9.93072 10.3609 12.4402 12.5234 13.4339 15.0075L12.3897 10.2208C12.3106 9.94273 12.1336 9.7013 11.8904 9.53967C11.6471 9.37804 11.3534 9.30671 11.0617 9.33842L6.31641 9.34008Z" fill="#F7981D"/>
<path d="M18.9844 19.6586L20.7637 9.33789H23.6437L21.8618 19.6586H18.9844Z" fill="#293688"/>
<path d="M32.1503 9.60538C31.3222 9.31294 30.4482 9.16625 29.5684 9.17204C26.7221 9.17204 24.7162 10.5723 24.6994 12.5783C24.6834 14.0606 26.131 14.8884 27.2257 15.3822C28.3465 15.8868 28.7238 16.2107 28.7188 16.6623C28.712 17.3542 27.8228 17.6707 26.995 17.6707C26.0608 17.6973 25.133 17.5119 24.2834 17.1288L23.912 16.9631L23.5078 19.2731C24.5356 19.6437 25.6225 19.8303 26.7171 19.8242C29.7486 19.8242 31.7108 18.4404 31.7335 16.2977C31.7444 15.1237 30.9756 14.2263 29.315 13.4939C28.3044 13.0166 27.6914 12.6984 27.6981 12.2146C27.6981 11.7854 28.2202 11.3272 29.3478 11.3272C30.0867 11.3109 30.821 11.4455 31.5044 11.7224L31.7621 11.8417L32.1537 9.60456L32.1503 9.60538Z" fill="#293688"/>
<path d="M37.1085 9.3401C36.7962 9.30511 36.4809 9.37225 36.2112 9.53113C35.9415 9.69001 35.7324 9.93181 35.6163 10.2192L31.3477 19.6649H34.3978L34.9872 18.0832H38.631L38.9679 19.6649H41.6795L39.3072 9.34424H37.1085V9.3401ZM35.799 16.0142C36.0373 15.4201 36.946 13.13 36.946 13.13C36.9291 13.1573 37.1826 12.5326 37.3283 12.1456L37.5228 13.0347L38.1898 16.0176H35.799V16.0142Z" fill="#293688"/>
<path d="M13.6875 16.4121L13.4349 14.9969C12.7024 13.1151 11.2805 11.5713 9.44922 10.6693L11.9941 19.6576H15.0442L19.6185 9.33691H16.5684L13.6875 16.4121Z" fill="#293688"/>
</svg>
