<svg width="70" height="70" viewBox="0 0 70 70" fill="none" xmlns="http://www.w3.org/2000/svg">
<circle cx="35" cy="35" r="35" fill="url(#paint0_linear_41_4949)"/>
<path d="M28.13 44V41.244C28.6153 41.2613 29.0227 41.2353 29.352 41.166C29.6987 41.0793 29.9847 40.8973 30.21 40.62C30.4527 40.3427 30.652 39.918 30.808 39.346C30.964 38.7567 31.094 37.968 31.198 36.98C31.302 35.992 31.4147 34.7353 31.536 33.21L32.212 22.94H42.456V44H38.634V25.826H35.618L35.15 33.678C35.046 35.2207 34.9247 36.5813 34.786 37.76C34.6647 38.9387 34.4653 39.944 34.188 40.776C33.928 41.5907 33.5553 42.2493 33.07 42.752C32.5847 43.2547 31.9433 43.61 31.146 43.818C30.3487 44.0087 29.3433 44.0693 28.13 44Z" fill="white"/>
<defs>
<linearGradient id="paint0_linear_41_4949" x1="-20.7407" y1="6.44807e-05" x2="73.4722" y2="3.85179" gradientUnits="userSpaceOnUse">
<stop offset="0.0001" stop-color="#67AF28"/>
<stop offset="1" stop-color="#6CDA0D"/>
</linearGradient>
</defs>
</svg>
