<svg width="70" height="70" viewBox="0 0 70 70" fill="none" xmlns="http://www.w3.org/2000/svg">
<circle cx="35" cy="35" r="35" fill="url(#paint0_linear_41_4923)"/>
<path d="M29.586 44V22.94H35.774C37.0393 22.94 38.062 23.174 38.842 23.642C39.6393 24.11 40.22 24.7947 40.584 25.696C40.9653 26.58 41.156 27.6547 41.156 28.92C41.156 30.2893 40.922 31.3987 40.454 32.248C39.986 33.08 39.3273 33.6867 38.478 34.068C37.646 34.4493 36.658 34.64 35.514 34.64H33.434V44H29.586ZM33.434 31.936H34.89C35.5833 31.936 36.1207 31.8407 36.502 31.65C36.9007 31.442 37.1693 31.1213 37.308 30.688C37.464 30.2373 37.542 29.6393 37.542 28.894C37.542 28.1313 37.4813 27.516 37.36 27.048C37.256 26.5627 37.0133 26.2073 36.632 25.982C36.268 25.7567 35.6873 25.644 34.89 25.644H33.434V31.936Z" fill="white"/>
<defs>
<linearGradient id="paint0_linear_41_4923" x1="-20.7407" y1="6.44807e-05" x2="73.4722" y2="3.85179" gradientUnits="userSpaceOnUse">
<stop offset="0.0001" stop-color="#67AF28"/>
<stop offset="1" stop-color="#6CDA0D"/>
</linearGradient>
</defs>
</svg>
