<svg width="20" height="20" viewBox="0 0 20 20" fill="none" xmlns="http://www.w3.org/2000/svg">
<path d="M6.99419 3.02842C8.07166 1.82771 9.75258 1.37061 11.2892 1.86048C12.8259 2.35034 13.9327 3.69615 14.1174 5.29923L14.2411 5.3017C15.4433 5.34969 16.8176 6.105 17.2068 8.2293L17.8364 13.1225C18.078 14.822 17.7632 16.1332 17.0311 17.0049C16.299 17.8766 15.0984 18.3014 13.3707 18.3014H6.70136C5.33656 18.4727 3.9767 17.9489 3.07888 16.9063C2.18106 15.8636 1.86451 14.4405 2.23562 13.1152L2.25382 13.0301C2.34041 12.7268 2.63979 12.5268 2.96039 12.5731C3.31012 12.6237 3.55267 12.9484 3.50213 13.2983C3.27334 14.2573 3.47383 15.2684 4.0512 16.0672C4.76057 16.74 5.71884 17.0853 6.69404 17.0195H13.3707C14.6958 17.0195 15.6109 16.7412 16.0867 16.1625C16.5626 15.5838 16.7529 14.6169 16.5626 13.2983L15.9403 8.45638C15.7207 7.28435 15.0398 6.55184 14.1174 6.55184H5.94731C5.0688 6.55184 4.38796 7.28435 4.11708 8.50766L3.94138 9.58446C3.86069 9.91348 3.53924 10.1239 3.20564 10.066C2.87204 10.0081 2.64014 9.7017 2.67487 9.36471L2.85789 8.26593C3.34107 6.03175 4.76864 5.29923 5.94731 5.29923H12.8143C12.7137 4.65009 12.3932 4.05526 11.9065 3.61444C10.7499 2.57943 8.97396 2.67779 7.93859 3.83419V3.90745L7.86681 3.97379C7.71472 4.09435 7.51457 4.14108 7.32208 4.09686C7.09752 4.04528 6.91752 3.87774 6.84989 3.65735C6.78225 3.43697 6.83726 3.19722 6.99419 3.02842ZM12.4485 8.60295L12.5434 8.61754C12.6389 8.63964 12.7304 8.67673 12.8143 8.72742C12.8892 8.78652 12.9556 8.85552 13.012 8.93252C13.0437 8.96805 13.0663 9.01079 13.0778 9.05705C13.1001 9.10067 13.115 9.14771 13.1218 9.19623C13.1293 9.24477 13.1293 9.29419 13.1218 9.34273C13.1242 9.43882 13.1042 9.53415 13.0632 9.62109C13.0265 9.71551 12.966 9.79879 12.8875 9.86282C12.7523 10.0008 12.5681 10.0798 12.375 10.0826C12.2773 10.0787 12.1809 10.0589 12.0895 10.024C11.9369 9.93321 11.8224 9.79003 11.7674 9.62109C11.7287 9.53363 11.7111 9.43826 11.7162 9.34273C11.7087 9.29418 11.7087 9.24478 11.7162 9.19623V9.05705L11.7894 8.93252C11.8102 8.88987 11.8402 8.85235 11.8772 8.82264L11.987 8.72742C12.0278 8.69969 12.0722 8.67752 12.1188 8.66149C12.1628 8.64028 12.2097 8.62548 12.2579 8.61754C12.3518 8.59566 12.4495 8.59566 12.5434 8.61754L12.4485 8.60295ZM7.77049 8.61028L7.86538 8.62486C7.91387 8.63165 7.96088 8.64651 8.00447 8.66881C8.04945 8.68344 8.09156 8.70575 8.12893 8.73474C8.17279 8.76005 8.21233 8.79219 8.24606 8.82997C8.28308 8.85967 8.31308 8.89719 8.33391 8.93985C8.36236 8.97884 8.38688 9.02055 8.40712 9.06437L8.45105 9.20355C8.45502 9.25231 8.45502 9.3013 8.45105 9.35006C8.45105 9.75461 8.12328 10.0826 7.71896 10.0826C7.53097 10.076 7.3527 9.99734 7.22114 9.86282C7.15186 9.79381 7.0971 9.71162 7.06008 9.62109C7.02507 9.53252 7.00767 9.43797 7.00883 9.34273C7.00128 9.29419 7.00128 9.24477 7.00883 9.19623C7.01562 9.14771 7.03047 9.10067 7.05276 9.05705C7.06738 9.01205 7.08967 8.96992 7.11865 8.93252C7.13949 8.88987 7.16948 8.85235 7.2065 8.82264C7.23855 8.78806 7.27556 8.75844 7.31631 8.73474C7.35369 8.70575 7.39579 8.68344 7.44077 8.66881C7.48436 8.64651 7.53137 8.63165 7.57986 8.62486C7.67378 8.60299 7.77146 8.60299 7.86538 8.62486L7.77049 8.61028Z" fill="#3D4F3C"/>
</svg>
