<?xml version="1.0" encoding="UTF-8" standalone="no"?>
<svg
   xmlns:dc="http://purl.org/dc/elements/1.1/"
   xmlns:cc="http://creativecommons.org/ns#"
   xmlns:rdf="http://www.w3.org/1999/02/22-rdf-syntax-ns#"
   xmlns:svg="http://www.w3.org/2000/svg"
   xmlns="http://www.w3.org/2000/svg"
   xmlns:sodipodi="http://sodipodi.sourceforge.net/DTD/sodipodi-0.dtd"
   xmlns:inkscape="http://www.inkscape.org/namespaces/inkscape"
   width="15.83333"
   height="16.666677"
   viewBox="0 0 15.83333 16.666677"
   fill="none"
   version="1.1"
   id="svg6"
   sodipodi:docname="basket-light.svg"
   inkscape:version="1.0.2-2 (e86c870879, 2021-01-15)">
  <metadata
     id="metadata12">
    <rdf:RDF>
      <cc:Work
         rdf:about="">
        <dc:format>image/svg+xml</dc:format>
        <dc:type
           rdf:resource="http://purl.org/dc/dcmitype/StillImage" />
      </cc:Work>
    </rdf:RDF>
  </metadata>
  <defs
     id="defs10" />
  <sodipodi:namedview
     pagecolor="#ffffff"
     bordercolor="#666666"
     borderopacity="1"
     objecttolerance="10"
     gridtolerance="10"
     guidetolerance="10"
     inkscape:pageopacity="0"
     inkscape:pageshadow="2"
     inkscape:window-width="1920"
     inkscape:window-height="1017"
     id="namedview8"
     showgrid="false"
     inkscape:zoom="43.4"
     inkscape:cx="7.9140646"
     inkscape:cy="8.333008"
     inkscape:window-x="1592"
     inkscape:window-y="-8"
     inkscape:window-maximized="1"
     inkscape:current-layer="svg6" />
  <g
     opacity="0.5"
     id="g4"
     transform="translate(-2.0859354,-1.666992)">
    <path
       d="M 6.99688,3.02867 C 8.07434,1.82795 9.75527,1.37086 11.2919,1.86072 c 1.5367,0.48987 2.6435,1.83567 2.8282,3.43875 l 0.1237,0.00247 c 1.2022,0.048 2.5765,0.8033 2.9657,2.92761 l 0.6296,4.89325 c 0.2416,1.6994 -0.0732,3.0106 -0.8053,3.8823 -0.7321,0.8717 -1.9327,1.2966 -3.6604,1.2966 H 6.70404 C 5.33925,18.4729 3.97939,17.9492 3.08157,16.9065 2.18375,15.8639 1.86719,14.4407 2.2383,13.1154 l 0.0182,-0.0851 c 0.0866,-0.3032 0.38598,-0.5033 0.70657,-0.4569 0.34974,0.0506 0.59229,0.3752 0.54175,0.7252 -0.2288,0.9589 -0.0283,1.97 0.54906,2.7689 0.70938,0.6728 1.66764,1.0181 2.64284,0.9523 h 6.67668 c 1.3251,0 2.2402,-0.2784 2.716,-0.8571 0.4759,-0.5787 0.6662,-1.5456 0.4759,-2.8641 L 15.943,8.45663 C 15.7234,7.2846 15.0425,6.55208 14.1201,6.55208 H 5.94999 c -0.8785,0 -1.55935,0.73252 -1.83022,1.95582 L 3.94407,9.58471 C 3.86338,9.91372 3.54192,10.1241 3.20832,10.0662 2.87472,10.0083 2.64283,9.70194 2.67756,9.36495 L 2.86058,8.26617 C 3.34376,6.03199 4.77133,5.29947 5.94999,5.29947 H 12.817 C 12.7164,4.65033 12.3959,4.0555 11.9092,3.61468 10.7526,2.57968 8.97664,2.67804 7.94127,3.83444 V 3.90769 L 7.86949,3.97404 C 7.71741,4.09459 7.51725,4.14132 7.32477,4.09711 7.10021,4.04552 6.92021,3.87798 6.85257,3.6576 6.78494,3.43721 6.83995,3.19747 6.99688,3.02867 Z m 5.45432,5.57453 0.0949,0.01458 c 0.0955,0.02211 0.1869,0.05919 0.2709,0.10988 0.0748,0.05911 0.1413,0.12811 0.1976,0.20511 0.0318,0.03552 0.0544,0.07827 0.0659,0.12452 0.0223,0.04362 0.0372,0.09066 0.044,0.13918 0.0075,0.04854 0.0075,0.09796 0,0.14651 C 13.1269,9.43906 13.1069,9.5344 13.0659,9.62133 13.0292,9.71575 12.9687,9.79904 12.8902,9.86306 12.755,10.0011 12.5708,10.0801 12.3777,10.0828 12.28,10.0789 12.1836,10.0591 12.0922,10.0242 11.9396,9.93345 11.8251,9.79027 11.7701,9.62133 11.7314,9.53387 11.7138,9.4385 11.7189,9.34298 c -0.0075,-0.04856 -0.0075,-0.09796 0,-0.14651 V 9.05729 l 0.0732,-0.12452 c 0.0208,-0.04266 0.0508,-0.08018 0.0878,-0.10988 l 0.1098,-0.09523 c 0.0408,-0.02772 0.0851,-0.04989 0.1318,-0.06593 0.044,-0.02121 0.0909,-0.03601 0.1391,-0.04395 0.0939,-0.02188 0.1916,-0.02188 0.2855,0 z M 7.77317,8.61052 7.86806,8.62511 C 7.91655,8.6319 7.96357,8.64675 8.00716,8.66906 8.05214,8.68369 8.09424,8.70599 8.13162,8.73498 8.17548,8.76029 8.21502,8.79244 8.24875,8.83021 8.28576,8.85992 8.31576,8.89744 8.3366,8.94009 8.36505,8.97908 8.38957,9.0208 8.40981,9.06462 L 8.45374,9.2038 c 0.00397,0.04875 0.00397,0.09775 0,0.1465 0,0.40456 -0.32777,0.7325 -0.73209,0.7325 C 7.53365,10.0763 7.35539,9.99759 7.22383,9.86306 7.15455,9.79405 7.09978,9.71186 7.06277,9.62133 7.02776,9.53276 7.01035,9.43821 7.01152,9.34298 7.00397,9.29443 7.00397,9.24501 7.01152,9.19647 7.01831,9.14795 7.03315,9.10091 7.05545,9.05729 7.07007,9.01229 7.09236,8.97016 7.12133,8.93277 7.14217,8.89011 7.17217,8.85259 7.20918,8.82289 7.24124,8.78831 7.27824,8.75868 7.319,8.73498 7.35637,8.70599 7.39848,8.68369 7.44345,8.66906 7.48705,8.64675 7.53406,8.6319 7.58255,8.62511 c 0.09392,-0.02188 0.1916,-0.02188 0.28551,0 z"
       fill="#67af28"
       id="path2" />
  </g>
</svg>
