<?xml version="1.0" encoding="UTF-8" standalone="no"?>
<svg
   xmlns:dc="http://purl.org/dc/elements/1.1/"
   xmlns:cc="http://creativecommons.org/ns#"
   xmlns:rdf="http://www.w3.org/1999/02/22-rdf-syntax-ns#"
   xmlns:svg="http://www.w3.org/2000/svg"
   xmlns="http://www.w3.org/2000/svg"
   xmlns:sodipodi="http://sodipodi.sourceforge.net/DTD/sodipodi-0.dtd"
   xmlns:inkscape="http://www.inkscape.org/namespaces/inkscape"
   width="15.833328"
   height="16.666677"
   viewBox="0 0 15.833328 16.666677"
   fill="none"
   version="1.1"
   id="svg4"
   sodipodi:docname="basket-green.svg"
   inkscape:version="1.0.2-2 (e86c870879, 2021-01-15)">
  <metadata
     id="metadata10">
    <rdf:RDF>
      <cc:Work
         rdf:about="">
        <dc:format>image/svg+xml</dc:format>
        <dc:type
           rdf:resource="http://purl.org/dc/dcmitype/StillImage" />
      </cc:Work>
    </rdf:RDF>
  </metadata>
  <defs
     id="defs8" />
  <sodipodi:namedview
     pagecolor="#ffffff"
     bordercolor="#666666"
     borderopacity="1"
     objecttolerance="10"
     gridtolerance="10"
     guidetolerance="10"
     inkscape:pageopacity="0"
     inkscape:pageshadow="2"
     inkscape:window-width="726"
     inkscape:window-height="480"
     id="namedview6"
     showgrid="false"
     inkscape:zoom="48.222222"
     inkscape:cx="7.9140626"
     inkscape:cy="8.3330077"
     inkscape:window-x="0"
     inkscape:window-y="172"
     inkscape:window-maximized="0"
     inkscape:current-layer="svg4" />
  <path
     d="m 4.9109426,1.3616777 c 1.07746,-1.20072004 2.75839,-1.65781204 4.29503,-1.16794704 1.5366904,0.489867 2.6434904,1.83566704 2.8281904,3.43874704 l 0.1237,0.00247 c 1.2022,0.048 2.5765,0.8033 2.9657,2.92761 l 0.6296,4.8932503 c 0.2416,1.6994 -0.0732,3.0106 -0.8053,3.8823 -0.7321,0.8717 -1.9327,1.2966 -3.6604,1.2966 H 4.6181026 c -1.36479,0.1712 -2.72465,-0.3525 -3.62246999,-1.3952 -0.89782,-1.0426 -1.214378,-2.4658 -0.843267,-3.7911 l 0.018199,-0.0851 c 0.086598,-0.3032 0.385976,-0.5033 0.706569,-0.4569 0.34973899,0.0505 0.59228899,0.3752 0.54174899,0.7252 -0.2288,0.9589 -0.0283,1.97 0.54906,2.7689 0.70938,0.6728 1.66764,1.0181 2.64284,0.9523 h 6.6766804 c 1.3251,0 2.2402,-0.2784 2.716,-0.8571 0.4759,-0.5787 0.6662,-1.5456 0.4759,-2.8641 l -0.6223,-4.8419703 c -0.2196,-1.17203 -0.9005,-1.90455 -1.8229,-1.90455 H 3.8640526 c -0.8785,0 -1.55935,0.73252 -1.83022,1.95582 l -0.1757,1.07681 c -0.08069,0.32901 -0.40215,0.53939 -0.73575,0.4815 -0.33359899,-0.05788 -0.56549499,-0.36427 -0.53076399,-0.70126 l 0.183022,-1.09878 c 0.48318199,-2.23418 1.91075199,-2.9667 3.08941199,-2.9667 h 6.8670104 c -0.1006,-0.64914 -0.4211,-1.24397 -0.9078104,-1.68479 -1.15659,-1.03500004 -2.93255,-0.93664 -3.96792,0.21976 v 0.07325 l -0.07178,0.06635 c -0.15208,0.12055 -0.35224,0.16728 -0.54472,0.12307 -0.22456,-0.05159 -0.40456,-0.21913 -0.4722,-0.43951 -0.06763,-0.22039 -0.01262,-0.46013 0.14431,-0.62893 z m 5.4543204,5.57453 0.0949,0.01458 c 0.0955,0.02211 0.1869,0.05919 0.2709,0.10988 0.0748,0.05911 0.1413,0.12811 0.1976,0.2051 0.0318,0.03553 0.0544,0.07828 0.0659,0.12453 0.0223,0.04362 0.0372,0.09066 0.044,0.13918 0.0075,0.04854 0.0075,0.09796 0,0.14651 0.0024,0.09608 -0.0176,0.19142 -0.0586,0.27835 -0.0367,0.09442 -0.0972,0.17771 -0.1757,0.24173 -0.1352,0.13802 -0.3194,0.21701 -0.5125,0.21976 -0.0977,-0.00389 -0.1941,-0.02369 -0.2855,-0.0586 -0.1526404,-0.09077 -0.2671204,-0.23395 -0.3221004,-0.40289 -0.03873,-0.08746 -0.05629,-0.18283 -0.05125,-0.27835 -0.00744,-0.04856 -0.00744,-0.09796 0,-0.14651 v -0.13918 l 0.07321,-0.12453 c 0.02084,-0.04265 0.05084,-0.08017 0.08785,-0.10987 l 0.10981,-0.09523 c 0.04078,-0.02772 0.08508,-0.04989 0.1317804,-0.06593 0.044,-0.02121 0.0909,-0.03601 0.1391,-0.04395 0.0939,-0.02188 0.1916,-0.02188 0.2855,0 z m -4.6780304,0.00732 0.09489,0.01459 c 0.04849,0.00679 0.09551,0.02164 0.1391,0.04395 0.04498,0.01463 0.08708,0.03693 0.12446,0.06592 0.04386,0.02531 0.0834,0.05746 0.11713,0.09523 0.03701,0.02971 0.06701,0.06723 0.08785,0.10988 0.02845,0.03899 0.05297,0.08071 0.07321,0.12453 l 0.04393,0.13918 c 0.00397,0.04875 0.00397,0.09775 0,0.1465 0,0.40456 -0.32777,0.73252 -0.73209,0.73252 -0.188,-0.00654 -0.36626,-0.08523 -0.49782,-0.21976 -0.06928,-0.06901 -0.12404,-0.1512 -0.16106,-0.24173 -0.03501,-0.08857 -0.05242,-0.18312 -0.05125,-0.27835 -0.00755,-0.04855 -0.00755,-0.09797 0,-0.14651 0.00679,-0.04852 0.02163,-0.09556 0.04393,-0.13918 0.01462,-0.045 0.03691,-0.08713 0.06588,-0.12453 0.02084,-0.04265 0.05084,-0.08017 0.08785,-0.10987 0.03206,-0.03458 0.06906,-0.06421 0.10982,-0.08791 0.03737,-0.02899 0.07948,-0.05129 0.12445,-0.06592 0.0436,-0.02231 0.09061,-0.03716 0.1391,-0.04395 0.09392,-0.02188 0.1916,-0.02188 0.28551,0 z"
     fill="#67af28"
     id="path2" />
</svg>
