<svg width="21" height="16" viewBox="0 0 21 16" fill="none" xmlns="http://www.w3.org/2000/svg">
<path fill-rule="evenodd" clip-rule="evenodd" d="M1.05847 0C0.47389 0 0 0.511672 0 1.14286C0 1.77404 0.47389 2.28571 1.05847 2.28571C1.64305 2.28571 2.11694 1.77404 2.11694 1.14286C2.11694 0.511672 1.64305 0 1.05847 0ZM5.29234 0C4.70776 0 4.23387 0.511672 4.23387 1.14286C4.23387 1.77404 4.70776 2.28571 5.29234 2.28571H19.9415C20.5261 2.28571 21 1.77404 21 1.14286C21 0.511672 20.5261 0 19.9415 0H5.29234ZM5.29234 6.85714C4.70776 6.85714 4.23387 7.36881 4.23387 8C4.23387 8.63119 4.70776 9.14286 5.29234 9.14286H19.9415C20.5261 9.14286 21 8.63119 21 8C21 7.36881 20.5261 6.85714 19.9415 6.85714H5.29234ZM4.23387 14.8571C4.23387 14.226 4.70776 13.7143 5.29234 13.7143H19.9415C20.5261 13.7143 21 14.226 21 14.8571C21 15.4883 20.5261 16 19.9415 16H5.29234C4.70776 16 4.23387 15.4883 4.23387 14.8571ZM0 8C0 7.36881 0.47389 6.85714 1.05847 6.85714C1.64305 6.85714 2.11694 7.36881 2.11694 8C2.11694 8.63119 1.64305 9.14286 1.05847 9.14286C0.47389 9.14286 0 8.63119 0 8ZM1.05847 13.7143C0.47389 13.7143 0 14.226 0 14.8571C0 15.4883 0.47389 16 1.05847 16C1.64305 16 2.11694 15.4883 2.11694 14.8571C2.11694 14.226 1.64305 13.7143 1.05847 13.7143Z" fill="#FBFFF7"/>
</svg>
