<svg width="34" height="34" viewBox="0 0 34 34" fill="none" xmlns="http://www.w3.org/2000/svg">
<path d="M16.9997 31.1666C9.17543 31.1666 2.83301 24.8242 2.83301 16.9999C2.83301 9.17567 9.17543 2.83325 16.9997 2.83325C24.8239 2.83325 31.1663 9.17567 31.1663 16.9999C31.1663 24.8242 24.8239 31.1666 16.9997 31.1666ZM16.9997 28.3333C20.0055 28.3333 22.8881 27.1392 25.0136 25.0138C27.139 22.8884 28.333 20.0057 28.333 16.9999C28.333 13.9941 27.139 11.1115 25.0136 8.98604C22.8881 6.86063 20.0055 5.66659 16.9997 5.66659C13.9939 5.66659 11.1112 6.86063 8.9858 8.98604C6.86039 11.1115 5.66634 13.9941 5.66634 16.9999C5.66634 20.0057 6.86039 22.8884 8.9858 25.0138C11.1112 27.1392 13.9939 28.3333 16.9997 28.3333ZM16.9997 14.9968L21.006 10.989L23.0106 12.9936L19.0028 16.9999L23.0106 21.0063L21.006 23.0108L16.9997 19.0031L12.9933 23.0108L10.9888 21.0063L14.9965 16.9999L10.9888 12.9936L12.9933 10.989L16.9997 14.9968Z" fill="#7184C8"/>
</svg>
