<svg width="16" height="16" viewBox="0 0 16 16" fill="none" xmlns="http://www.w3.org/2000/svg">
<g opacity="0.89" clip-path="url(#clip0_41_4960)">
<path d="M13.3882 10.7732L15.4776 10.7732C15.7649 10.7732 16 10.5393 16 10.2508L16 0.848303C16 0.560021 15.7659 0.32602 15.4776 0.32602L13.3882 0.32602C13.0999 0.32602 12.8658 0.560052 12.8658 0.848303L12.8658 10.2508C12.8658 10.5393 13.101 10.7732 13.3882 10.7732Z" fill="#3D4F3C"/>
<path d="M1.30445 10.7732C1.38857 10.7875 5.32753 10.7732 5.32753 10.7732L4.77734 12.2742C4.39772 13.3109 4.6435 14.8938 5.69684 15.4566C6.03981 15.6398 6.51899 15.7319 6.90534 15.6346C7.1269 15.5789 7.32161 15.4322 7.43768 15.2357C7.57115 15.0096 7.55736 14.7458 7.6049 14.4951C7.72543 13.8595 8.0258 13.2551 8.49096 12.8014C9.30195 12.0104 11.8213 9.72855 11.8213 9.72855L11.8213 1.37072L3.11529 1.37072C1.94054 1.37003 1.17066 2.68191 1.75007 3.70663C1.05942 4.14897 0.823199 5.08069 1.2277 5.79607C0.537013 6.23841 0.300826 7.17014 0.705324 7.88551C-0.48636 8.64873 -0.087955 10.5377 1.30445 10.7732Z" fill="#3D4F3C"/>
</g>
<defs>
<clipPath id="clip0_41_4960">
<rect width="16" height="16" fill="white" transform="translate(16 16) rotate(-180)"/>
</clipPath>
</defs>
</svg>
