<?xml version="1.0" encoding="UTF-8" standalone="no"?>
<svg
   xmlns:dc="http://purl.org/dc/elements/1.1/"
   xmlns:cc="http://creativecommons.org/ns#"
   xmlns:rdf="http://www.w3.org/1999/02/22-rdf-syntax-ns#"
   xmlns:svg="http://www.w3.org/2000/svg"
   xmlns="http://www.w3.org/2000/svg"
   xmlns:sodipodi="http://sodipodi.sourceforge.net/DTD/sodipodi-0.dtd"
   xmlns:inkscape="http://www.inkscape.org/namespaces/inkscape"
   width="29.166674"
   height="27.708363"
   viewBox="0 0 29.166674 27.708363"
   fill="none"
   version="1.1"
   id="svg4"
   sodipodi:docname="favorite.svg"
   inkscape:version="1.0.2-2 (e86c870879, 2021-01-15)">
  <metadata
     id="metadata10">
    <rdf:RDF>
      <cc:Work
         rdf:about="">
        <dc:format>image/svg+xml</dc:format>
        <dc:type
           rdf:resource="http://purl.org/dc/dcmitype/StillImage" />
      </cc:Work>
    </rdf:RDF>
  </metadata>
  <defs
     id="defs8" />
  <sodipodi:namedview
     pagecolor="#ffffff"
     bordercolor="#666666"
     borderopacity="1"
     objecttolerance="10"
     gridtolerance="10"
     guidetolerance="10"
     inkscape:pageopacity="0"
     inkscape:pageshadow="2"
     inkscape:window-width="820"
     inkscape:window-height="480"
     id="namedview6"
     showgrid="false"
     inkscape:zoom="29.310345"
     inkscape:cx="14.583374"
     inkscape:cy="13.854247"
     inkscape:window-x="0"
     inkscape:window-y="172"
     inkscape:window-maximized="0"
     inkscape:current-layer="svg4" />
  <path
     d="m 14.591874,1.5163865 c 2.3993,-1.53411397 5.3358,-1.92660897 8.0424,-1.07493997 2.354,0.73205997 4.3115,2.41359997 5.4173,4.65370997 1.293,2.71506 1.469,5.8434905 0.489,8.6912905 -0.9021,2.6216 -2.381,4.9982 -4.3236,6.9478 -1.2737,1.3091 -2.6462,2.5145 -4.1048,3.605 l -0.0772,0.0656 c -0.4846,0.3262 -1.1363,0.1981 -1.4669,-0.2884 -0.1681,-0.235 -0.2356,-0.5293 -0.1871,-0.8158 0.0484,-0.2865 0.2088,-0.5408 0.4444,-0.7049 1.3687,-1.0313 2.6592,-2.1663 3.8603,-3.3952 1.7299,-1.7024 3.051,-3.7884 3.8604,-6.0957 0.7785,-2.2992 0.6209,-4.8202605 -0.4375,-7.0002905 -0.8518,-1.71497 -2.3525,-3.00246 -4.1563,-3.56566 -2.3008,-0.73293 -4.8073,-0.28862 -6.7298,1.19292 -0.3822,0.28843 -0.9046,0.28843 -1.2868,0 -1.9217,-1.4836 -4.4291997,-1.92809 -6.7298297,-1.19292 -1.8159,0.55076 -3.33158,1.83436 -4.19488,3.55255 -1.03455,2.17842 -1.18254,4.6850005 -0.41177,6.9740005 0.81282,2.3018 2.13351,4.3828 3.86032,6.0826 2.55154,2.4925 5.3651597,4.6906 8.3897597,6.5546 0.3847,0.2718 0.5539,0.7651 0.4191,1.2218 -0.1348,0.4568 -0.543,0.7732 -1.011,0.7839 -0.211,0.0012 -0.4174,-0.0628 -0.5919,-0.1836 -3.1508,-1.9413 -6.0810197,-4.2318 -8.7372197,-6.8298 -1.95336,-1.9432 -3.43772,-4.3214 -4.33642004,-6.9478 -0.946193,-2.8438 -0.751964,-5.9532705 0.54044004,-8.6519905 1.10582,-2.24011 3.06328,-3.92165 5.41732,-4.65370997 2.70658,-0.851669 5.6430797,-0.459174 8.0422797,1.07493997 z m 5.4981,4.31251 0.1637,3.7e-4 c 1.9187,0.61704 3.2844,2.34973 3.4615,4.3915805 l 0.0082,0.1711 c -0.0069,0.2272 -0.0844,0.4481 -0.2237,0.6294 -0.1742,0.2267 -0.4303,0.3728 -0.711,0.4055 -0.5893,0.0776 -1.1296,-0.344 -1.2096,-0.9439 -0.0537,-1.2114205 -0.8457,-2.2592005 -1.9816,-2.6217705 -0.4223,-0.26863 -0.6099,-0.79641 -0.4543,-1.27823 0.1556,-0.48182 0.6142,-0.79301 1.1105,-0.75368 z"
     fill="#7184c8"
     id="path2" />
</svg>
