<svg width="20" height="20" viewBox="0 0 20 20" fill="none" xmlns="http://www.w3.org/2000/svg">
<path fill-rule="evenodd" clip-rule="evenodd" d="M9.77986 16.5384C10.0725 16.3323 10.4803 16.0529 10.9375 15.7396C12.3235 14.79 14.1635 13.5293 14.6273 13.0547C15.6158 12.082 16.3707 10.89 16.8332 9.57146C17.2781 8.25764 17.1881 6.81706 16.5832 5.57133C16.0965 4.59134 15.2389 3.85563 14.2082 3.5338C12.8935 3.11499 11.4612 3.36888 10.3626 4.21548C10.1442 4.38029 9.8457 4.38029 9.6273 4.21548C8.52922 3.3677 7.09631 3.11371 5.78169 3.5338C4.74403 3.84852 3.87792 4.58201 3.38461 5.56384C2.79344 6.80865 2.70887 8.24097 3.14932 9.54899C3.61378 10.8643 4.36847 12.0535 5.35521 13.0248C6.70881 14.347 8.19147 15.5243 9.77986 16.5384ZM15.2156 7.92347C15.1144 6.75672 14.334 5.76661 13.2376 5.41402C12.954 5.39154 12.6919 5.56937 12.603 5.84469C12.5141 6.12002 12.6213 6.42161 12.8626 6.57511C13.5117 6.78229 13.9642 7.38102 13.995 8.07329C14.0407 8.41605 14.3494 8.65696 14.6862 8.61263C14.8466 8.59393 14.9929 8.51047 15.0924 8.38093C15.172 8.2773 15.2164 8.1511 15.2203 8.02125L15.2156 7.92347Z" fill="#67AF28"/>
<path fill-rule="evenodd" clip-rule="evenodd" d="M14.5979 2.33526C13.0513 1.8486 11.3733 2.07288 10.0023 2.94951C8.63128 2.07288 6.95328 1.8486 5.40669 2.33526C4.06152 2.75358 2.94298 3.71447 2.31108 4.99453C1.57256 6.53665 1.46157 8.31346 2.00225 9.93852C2.5158 11.4393 3.364 12.7983 4.48021 13.9087C5.99804 15.3932 7.67245 16.7021 9.47289 17.8114C9.57261 17.8805 9.69056 17.917 9.81112 17.9163C9.93533 17.9135 10.0521 17.873 10.1494 17.8043C10.1724 17.788 10.1944 17.7701 10.215 17.7508C10.4814 17.5533 11.0091 17.1906 11.6347 16.7606C13.0627 15.779 15.0005 14.447 15.5023 13.9312C16.6124 12.8171 17.4575 11.4591 17.9729 9.96099C18.533 8.33369 18.4324 6.54599 17.6935 4.99453C17.0616 3.71447 15.9431 2.75358 14.5979 2.33526ZM9.77986 16.5384C10.0725 16.3323 10.4803 16.0529 10.9375 15.7396C12.3235 14.79 14.1635 13.5293 14.6273 13.0547C15.6158 12.082 16.3707 10.89 16.8332 9.57146C17.2781 8.25764 17.1881 6.81706 16.5832 5.57133C16.0965 4.59134 15.2389 3.85563 14.2082 3.5338C12.8935 3.11499 11.4612 3.36888 10.3626 4.21548C10.1442 4.38029 9.8457 4.38029 9.6273 4.21548C8.52922 3.3677 7.09631 3.11371 5.78169 3.5338C4.74403 3.84852 3.87792 4.58201 3.38461 5.56384C2.79344 6.80865 2.70887 8.24097 3.14932 9.54899C3.61378 10.8643 4.36847 12.0535 5.35521 13.0248C6.70881 14.347 8.19147 15.5243 9.77986 16.5384Z" fill="#67AF28"/>
<path d="M10.0023 2.94951C11.3733 2.07288 13.0513 1.8486 14.5979 2.33526C15.9431 2.75358 17.0616 3.71447 17.6935 4.99453C18.4324 6.54599 18.533 8.33369 17.9729 9.96099C17.4575 11.4591 16.6124 12.8171 15.5023 13.9312C14.7745 14.6792 13.9902 15.368 13.1567 15.9912L13.1126 16.0286C12.8357 16.215 12.4633 16.1418 12.2744 15.8638C12.1783 15.7296 12.1397 15.5614 12.1675 15.3976C12.1952 15.2339 12.2868 15.0886 12.4214 14.9949C13.2036 14.4056 13.9409 13.757 14.6273 13.0547C15.6158 12.082 16.3707 10.89 16.8332 9.57146C17.2781 8.25764 17.1881 6.81706 16.5832 5.57133C16.0965 4.59134 15.2389 3.85563 14.2082 3.5338C12.8935 3.11499 11.4612 3.36888 10.3626 4.21548C10.1442 4.38029 9.8457 4.38029 9.6273 4.21548C8.52922 3.3677 7.09631 3.11371 5.78169 3.5338C4.74403 3.84852 3.87792 4.58201 3.38461 5.56384C2.79344 6.80865 2.70887 8.24097 3.14932 9.54899C3.61378 10.8643 4.36847 12.0535 5.35521 13.0248C6.81323 14.449 8.421 15.7051 10.1494 16.7702C10.3692 16.9256 10.4659 17.2074 10.3888 17.4684C10.3118 17.7294 10.0786 17.9102 9.81112 17.9163C9.69056 17.917 9.57261 17.8805 9.47289 17.8114C7.67245 16.7021 5.99804 15.3932 4.48021 13.9087C3.364 12.7983 2.5158 11.4393 2.00225 9.93852C1.46157 8.31346 1.57256 6.53665 2.31108 4.99453C2.94298 3.71447 4.06152 2.75358 5.40669 2.33526C6.95328 1.8486 8.63128 2.07288 10.0023 2.94951ZM13.1441 5.4138L13.2376 5.41402C14.334 5.76661 15.1144 6.75672 15.2156 7.92347L15.2203 8.02125C15.2164 8.1511 15.172 8.2773 15.0924 8.38093C14.9929 8.51047 14.8466 8.59393 14.6862 8.61263C14.3494 8.65696 14.0407 8.41605 13.995 8.07329C13.9642 7.38102 13.5117 6.78229 12.8626 6.57511C12.6213 6.42161 12.5141 6.12002 12.603 5.84469C12.6919 5.56937 12.954 5.39154 13.2376 5.41402L13.1441 5.4138Z" fill="white"/>
</svg>
