<?xml version="1.0" encoding="UTF-8" standalone="no"?>
<svg
   xmlns:dc="http://purl.org/dc/elements/1.1/"
   xmlns:cc="http://creativecommons.org/ns#"
   xmlns:rdf="http://www.w3.org/1999/02/22-rdf-syntax-ns#"
   xmlns:svg="http://www.w3.org/2000/svg"
   xmlns="http://www.w3.org/2000/svg"
   xmlns:sodipodi="http://sodipodi.sourceforge.net/DTD/sodipodi-0.dtd"
   xmlns:inkscape="http://www.inkscape.org/namespaces/inkscape"
   width="15.833324"
   height="15.041619"
   viewBox="0 0 15.833324 15.041619"
   fill="none"
   version="1.1"
   id="svg10"
   sodipodi:docname="favorite-hover.svg"
   inkscape:version="1.0.2-2 (e86c870879, 2021-01-15)">
  <metadata
     id="metadata16">
    <rdf:RDF>
      <cc:Work
         rdf:about="">
        <dc:format>image/svg+xml</dc:format>
        <dc:type
           rdf:resource="http://purl.org/dc/dcmitype/StillImage" />
        <dc:title></dc:title>
      </cc:Work>
    </rdf:RDF>
  </metadata>
  <defs
     id="defs14" />
  <sodipodi:namedview
     pagecolor="#ffffff"
     bordercolor="#666666"
     borderopacity="1"
     objecttolerance="10"
     gridtolerance="10"
     guidetolerance="10"
     inkscape:pageopacity="0"
     inkscape:pageshadow="2"
     inkscape:window-width="1538"
     inkscape:window-height="877"
     id="namedview12"
     showgrid="false"
     fit-margin-top="0"
     fit-margin-left="0"
     fit-margin-right="0"
     fit-margin-bottom="0"
     inkscape:zoom="44.736842"
     inkscape:cx="7.9140629"
     inkscape:cy="6.6263913"
     inkscape:window-x="-8"
     inkscape:window-y="164"
     inkscape:window-maximized="1"
     inkscape:current-layer="svg10" />
  <path
     d="m 10.994863,3.1644589 -0.0889,-2e-4 -0.0109,9.2e-4 c -0.2293,0.02161 -0.4291,0.17956 -0.5031,0.40842 -0.0844,0.26156 0.0174,0.54807 0.2467,0.6939 0.6166,0.19682 1.0465,0.76562 1.0757,1.42327 0.0434,0.32563 0.3367,0.55449 0.6566,0.51237 0.1524,-0.01776 0.2915,-0.09705 0.386,-0.22011 0.0756,-0.09845 0.1177,-0.21834 0.1214,-0.3417 l -0.0044,-0.09289 c -0.0961,-1.10841 -0.8375,-2.04901 -1.8791,-2.38398 z"
     fill="#ffffff"
     id="path2" />
  <path
     fill-rule="evenodd"
     clip-rule="evenodd"
     d="m 7.8335529,15.031809 c 0.05369,-0.016 0.12583,-0.0456 0.21273,-0.0865 -0.06386,0.0423 -0.13597,0.072 -0.21273,0.0865 z M 10.905963,3.1642589 c 0.0293,-0.00219 0.059,-0.00217 0.0889,2e-4 z"
     fill="#67af28"
     fill-opacity="0.5"
     id="path4" />
  <path
     d="m 12.287163,0.23963892 c -1.4693,-0.46233 -3.0634001,-0.24926 -4.3658401,0.58354 -1.30247,-0.8328 -2.89657,-1.04587 -4.36583,-0.58354 -1.27791,0.39741 -2.34052,1.31024998 -2.94083002,2.52630998 -0.70159,1.46501 -0.80703,3.15299 -0.29338,4.69679 0.48786,1.42577 1.29366002,2.7167701 2.35406002,3.7716701 1.44193,1.4103 3.03263,2.6538 4.74304,3.7076 0.09474,0.0656 0.20679,0.1003 0.32133,0.0996 0.03186,-7e-4 0.06322,-0.004 0.09384,-0.0098 0.05369,-0.016 0.12583,-0.0456 0.21273,-0.0865 0.11372,-0.0753 0.20126,-0.1903 0.24224,-0.3292 0.07318,-0.2479 -0.01866,-0.5157 -0.22749,-0.6633 -1.64194,-1.0118 -3.16932,-2.2051 -4.55444,-3.5581 -0.93741,-0.9228001 -1.65436,-2.0525001 -2.0956,-3.3020201 -0.41842002,-1.24263 -0.33808,-2.60333 0.22353,-3.7859 0.46865,-0.93273 1.29145,-1.62955 2.27722,-1.92853 1.2489,-0.39908998 2.61015,-0.1578 3.65333,0.64759 0.20748,0.15657 0.49105,0.15657 0.69854,0 1.04365,-0.80427 2.4043501,-1.04545998 3.6533501,-0.64759 0.9792,0.30574 1.7939,1.00466 2.2562,1.93565 0.5746,1.18344 0.6602,2.552 0.2375,3.80013 -0.4393,1.25257 -1.1565,2.38497 -2.0956,3.3090701 -0.652,0.6672 -1.3525,1.2833 -2.0956,1.8432 -0.1279,0.089 -0.2149,0.2271 -0.2412001,0.3826 -0.0264,0.1555 0.0103,0.3153 0.1015001,0.4429 0.1795,0.2641 0.5333,0.3336 0.7964,0.1565 l 0.0419,-0.0356 c 0.7918,-0.592 1.5369,-1.2463 2.2283,-1.957 1.0545,-1.0583 1.8574,-2.3485001 2.3471,-3.7716201 0.532,-1.54594 0.4364,-3.24426 -0.2655,-4.71814 -0.6003,-1.21606 -1.6629,-2.12889998 -2.9408,-2.52630998 z"
     fill="#ffffff"
     id="path6" />
  <path
     fill-rule="evenodd"
     clip-rule="evenodd"
     d="m 10.876163,13.248309 c -0.2631,0.1771 -0.6169,0.1076 -0.7964,-0.1565 -0.0912,-0.1276 -0.1279001,-0.2874 -0.1015001,-0.4429 0.0263,-0.1555 0.1133001,-0.2936 0.2412001,-0.3826 0.7431,-0.5599 1.4436,-1.176 2.0956,-1.8432 0.9391,-0.9241001 1.6563,-2.0565001 2.0956,-3.3090701 0.4227,-1.24813 0.3371,-2.61669 -0.2375,-3.80013 -0.4623,-0.93099 -1.277,-1.62991 -2.2562,-1.93565 -1.249,-0.39786998 -2.6097001,-0.15668 -3.6533501,0.64759 -0.20749,0.15657 -0.49106,0.15657 -0.69854,0 -1.04318,-0.80539 -2.40443,-1.04667998 -3.65333,-0.64759 -0.98577,0.29898 -1.80857,0.9958 -2.27722,1.92853 -0.56161,1.18257 -0.64195002,2.54327 -0.22353,3.7859 0.44124,1.24952 1.15819,2.37922 2.0956,3.3020201 1.38512,1.353 2.9125,2.5463 4.55444,3.5581 0.20883,0.1476 0.30067,0.4154 0.22749,0.6633 -0.04098,0.1389 -0.12852,0.2539 -0.24224,0.3292 0.63458,-0.2984 2.0560801,-1.1928 2.8298801,-1.697 z m 0.1187,-10.0838501 c 1.0416,0.33497 1.783,1.27557 1.8791,2.38398 l 0.0044,0.09289 c -0.0037,0.12336 -0.0458,0.24325 -0.1214,0.3417 -0.0945,0.12306 -0.2336,0.20235 -0.386,0.22011 -0.3199,0.04212 -0.6132,-0.18674 -0.6566,-0.51237 -0.0292,-0.65765 -0.4591,-1.22645 -1.0757,-1.42327 -0.2293,-0.14583 -0.3311,-0.43234 -0.2467,-0.6939 0.074,-0.22886 0.2738,-0.38681 0.5031,-0.40842 0.0036,-3.4e-4 0.0073,-6.5e-4 0.0109,-9.2e-4 0.0293,-0.00219 0.059,-0.00217 0.0889,2e-4 z"
     fill="#67af28"
     fill-opacity="0.5"
     id="path8" />
</svg>
