<?xml version="1.0" encoding="UTF-8" standalone="no"?>
<svg
   xmlns:dc="http://purl.org/dc/elements/1.1/"
   xmlns:cc="http://creativecommons.org/ns#"
   xmlns:rdf="http://www.w3.org/1999/02/22-rdf-syntax-ns#"
   xmlns:svg="http://www.w3.org/2000/svg"
   xmlns="http://www.w3.org/2000/svg"
   xmlns:sodipodi="http://sodipodi.sourceforge.net/DTD/sodipodi-0.dtd"
   xmlns:inkscape="http://www.inkscape.org/namespaces/inkscape"
   width="16.666676"
   height="15.833301"
   viewBox="0 0 16.666676 15.833301"
   fill="none"
   version="1.1"
   id="svg8"
   sodipodi:docname="favorite-active.svg"
   inkscape:version="1.0.2-2 (e86c870879, 2021-01-15)">
  <metadata
     id="metadata14">
    <rdf:RDF>
      <cc:Work
         rdf:about="">
        <dc:format>image/svg+xml</dc:format>
        <dc:type
           rdf:resource="http://purl.org/dc/dcmitype/StillImage" />
      </cc:Work>
    </rdf:RDF>
  </metadata>
  <defs
     id="defs12" />
  <sodipodi:namedview
     pagecolor="#ffffff"
     bordercolor="#666666"
     borderopacity="1"
     objecttolerance="10"
     gridtolerance="10"
     guidetolerance="10"
     inkscape:pageopacity="0"
     inkscape:pageshadow="2"
     inkscape:window-width="1538"
     inkscape:window-height="877"
     id="namedview10"
     showgrid="false"
     inkscape:zoom="42.5"
     inkscape:cx="8.3359386"
     inkscape:cy="7.9169905"
     inkscape:window-x="-8"
     inkscape:window-y="164"
     inkscape:window-maximized="1"
     inkscape:current-layer="svg8" />
  <path
     fill-rule="evenodd"
     clip-rule="evenodd"
     d="m 8.1157986,14.45539 c 0.29264,-0.2061 0.70044,-0.4855 1.15764,-0.7988 1.3860004,-0.9496 3.2260004,-2.2103 3.6898004,-2.6849 0.9885,-0.9726995 1.7434,-2.1646995 2.2059,-3.4832395 0.4449,-1.31382 0.3549,-2.7544 -0.25,-4.00013 -0.4867,-0.97999 -1.3443,-1.7157 -2.375,-2.03753 -1.3147,-0.41881 -2.7470004,-0.16492 -3.8456004,0.68168 -0.2184,0.16481 -0.5169,0.16481 -0.7353,0 -1.09808,-0.84778 -2.53099,-1.10177 -3.84561,-0.68168 -1.03766,0.31472 -1.90377,1.04821 -2.39708,2.03004 -0.59117,1.24481 -0.67574,2.67713 -0.23529,3.98515 0.46446,1.31531 1.21915,2.50451 2.20589,3.4758095 1.3536,1.3222 2.83626,2.4995 4.42465,3.5136 z M 13.551539,5.8404605 c -0.1012,-1.16675 -0.8816,-2.15686 -1.978,-2.50945 -0.2836,-0.02248 -0.5457,0.15535 -0.6346,0.43067 -0.0889,0.27533 0.0183,0.57692 0.2596,0.73042 0.6491,0.20718 1.1016,0.80591 1.1324,1.49818 0.0457,0.34276 0.3544,0.58367 0.6912,0.53934 0.1604,-0.0187 0.3067,-0.10216 0.4062,-0.2317 0.0796,-0.10363 0.124,-0.22983 0.1279,-0.35968 z"
     fill="#67af28"
     id="path2" />
  <path
     fill-rule="evenodd"
     clip-rule="evenodd"
     d="m 12.933839,0.25225045 c -1.5466,-0.48666 -3.2246004,-0.26238 -4.5956004,0.61425 -1.37102,-0.87663 -3.04902,-1.10091 -4.59561,-0.61425 -1.34517,0.41832 -2.46371,1.37921005 -3.09560998,2.65927005 -0.73852,1.54212 -0.84951,3.31893 -0.30883,4.94399 0.51355,1.50078 1.36174998,2.8597795 2.47795998,3.9701795 1.51783,1.4845 3.19224,2.7934 4.99268,3.9027 0.09972,0.0691 0.21767,0.1056 0.33823,0.1049 0.12421,-0.0028 0.24098,-0.0433 0.33828,-0.112 0.023,-0.0163 0.045,-0.0342 0.0656,-0.0535 0.2664,-0.1975 0.7941,-0.5602 1.4197,-0.9902 1.4280004,-0.9816 3.3658004,-2.3136 3.8676004,-2.8294 1.1101,-1.1141 1.9552,-2.4720995 2.4706,-3.9702095 0.5601,-1.6273 0.4595,-3.415 -0.2794,-4.96646 -0.6319,-1.28006 -1.7504,-2.24095005 -3.0956,-2.65927005 z M 8.1157986,14.45539 c 0.29264,-0.2061 0.70044,-0.4855 1.15764,-0.7988 1.3860004,-0.9496 3.2260004,-2.2103 3.6898004,-2.6849 0.9885,-0.9726995 1.7434,-2.1646995 2.2059,-3.4832395 0.4449,-1.31382 0.3549,-2.7544 -0.25,-4.00013 -0.4867,-0.97999 -1.3443,-1.7157 -2.375,-2.03753 -1.3147,-0.41881 -2.7470004,-0.16492 -3.8456004,0.68168 -0.2184,0.16481 -0.5169,0.16481 -0.7353,0 -1.09808,-0.84778 -2.53099,-1.10177 -3.84561,-0.68168 -1.03766,0.31472 -1.90377,1.04821 -2.39708,2.03004 -0.59117,1.24481 -0.67574,2.67713 -0.23529,3.98515 0.46446,1.31531 1.21915,2.50451 2.20589,3.4758095 1.3536,1.3222 2.83626,2.4995 4.42465,3.5136 z"
     fill="#67af28"
     id="path4" />
  <path
     d="m 8.3382386,0.86650045 c 1.371,-0.87663 3.0490004,-1.10091 4.5956004,-0.61425 1.3452,0.41832 2.4637,1.37921005 3.0956,2.65927005 0.7389,1.55146 0.8395,3.33916 0.2794,4.96646 -0.5154,1.49811 -1.3605,2.8561095 -2.4706,3.9702095 -0.7278,0.748 -1.5121,1.4368 -2.3456,2.06 l -0.0441,0.0374 c -0.2769,0.1864 -0.6493,0.1132 -0.8382,-0.1648 -0.0961,-0.1342 -0.1347,-0.3024 -0.1069,-0.4662 0.0277,-0.1637 0.1193,-0.309 0.2539,-0.4027 0.7822,-0.5893 1.5195,-1.2379 2.2059,-1.9402 0.9885,-0.9726995 1.7434,-2.1646995 2.2059,-3.4832395 0.4449,-1.31382 0.3549,-2.7544 -0.25,-4.00013 -0.4867,-0.97999 -1.3443,-1.7157 -2.375,-2.03753 -1.3147,-0.41881 -2.7470004,-0.16492 -3.8456004,0.68168 -0.2184,0.16481 -0.5169,0.16481 -0.7353,0 -1.09808,-0.84778 -2.53099,-1.10177 -3.84561,-0.68168 -1.03766,0.31472 -1.90377,1.04821 -2.39708,2.03004 -0.59117,1.24481 -0.67574,2.67713 -0.23529,3.98515 0.46446,1.31531 1.21915,2.50451 2.20589,3.4758095 1.45802,1.4242 3.06579,2.6803 4.79419,3.7454 0.2198,0.1554 0.3165,0.4372 0.2394,0.6982 -0.077,0.261 -0.3102,0.4418 -0.57768,0.4479 -0.12056,7e-4 -0.23851,-0.0358 -0.33823,-0.1049 -1.80044,-1.1093 -3.47485,-2.4182 -4.99268,-3.9027 -1.11621,-1.1104 -1.96440998,-2.4693995 -2.47795998,-3.9701795 -0.54068,-1.62506 -0.42969,-3.40187 0.30883,-4.94399 0.63189998,-1.28006 1.75043998,-2.24095005 3.09560998,-2.65927005 1.54659,-0.48666 3.22459,-0.26238 4.59561,0.61425 z m 3.1418004,2.46429005 0.0935,2.2e-4 c 1.0964,0.35259 1.8768,1.3427 1.978,2.50945 l 0.0047,0.09778 c -0.0039,0.12985 -0.0483,0.25605 -0.1279,0.35968 -0.0995,0.12954 -0.2458,0.213 -0.4062,0.2317 -0.3368,0.04433 -0.6455,-0.19658 -0.6912,-0.53934 -0.0308,-0.69227 -0.4833,-1.291 -1.1324,-1.49818 -0.2413,-0.1535 -0.3485,-0.45509 -0.2596,-0.73042 0.0889,-0.27532 0.351,-0.45315 0.6346,-0.43067 z"
     fill="#ffffff"
     id="path6" />
</svg>
