<svg width="19" height="19" viewBox="0 0 19 19" fill="none" xmlns="http://www.w3.org/2000/svg">
<path d="M12.5808 5.14395L12.4919 5.14375L12.481 5.14467C12.2517 5.16628 12.0519 5.32423 11.9779 5.55309C11.8935 5.81465 11.9953 6.10116 12.2246 6.24699C12.8412 6.44381 13.2711 7.01261 13.3003 7.67026C13.3437 7.99589 13.637 8.22475 13.9569 8.18263C14.1093 8.16487 14.2484 8.08558 14.3429 7.96252C14.4185 7.86407 14.4606 7.74418 14.4643 7.62082L14.4599 7.52793C14.3638 6.41952 13.6224 5.47892 12.5808 5.14395Z" fill="white"/>
<path fill-rule="evenodd" clip-rule="evenodd" d="M9.41949 17.0113C9.47318 16.9953 9.54532 16.9657 9.63222 16.9248C9.56836 16.9671 9.49625 16.9968 9.41949 17.0113ZM12.4919 5.14375C12.5212 5.14156 12.5509 5.14158 12.5808 5.14395L12.4919 5.14375Z" fill="#67AF28" fill-opacity="0.5"/>
<path d="M13.8731 2.21913C12.4038 1.7568 10.8097 1.96987 9.50726 2.80267C8.20479 1.96987 6.61069 1.7568 5.14143 2.21913C3.86352 2.61654 2.80091 3.52938 2.2006 4.74544C1.49901 6.21045 1.39357 7.89843 1.90722 9.44223C2.39508 10.868 3.20088 12.159 4.26128 13.2139C5.70321 14.6242 7.29391 15.8677 9.00432 16.9215C9.09906 16.9871 9.21111 17.0218 9.32565 17.0211C9.35751 17.0204 9.38887 17.0171 9.41949 17.0113C9.47318 16.9953 9.54532 16.9657 9.63222 16.9248C9.74594 16.8495 9.83348 16.7345 9.87446 16.5956C9.94764 16.3477 9.8558 16.0799 9.64697 15.9323C8.00503 14.9205 6.47765 13.7272 5.09253 12.3742C4.15512 11.4514 3.43817 10.3217 2.99693 9.07218C2.57851 7.82955 2.65885 6.46885 3.22046 5.28628C3.68911 4.35355 4.51191 3.65673 5.49768 3.35775C6.74658 2.95866 8.10783 3.19995 9.15101 4.00534C9.35849 4.16191 9.64206 4.16191 9.84955 4.00534C10.8932 3.20107 12.2539 2.95988 13.5029 3.35775C14.4821 3.66349 15.2968 4.36241 15.7591 5.2934C16.3337 6.47684 16.4193 7.8454 15.9966 9.09353C15.5573 10.3461 14.8401 11.4785 13.901 12.4026C13.249 13.0698 12.5485 13.6859 11.8054 14.2458C11.6775 14.3348 11.5905 14.4729 11.5642 14.6284C11.5378 14.7839 11.5745 14.9437 11.6657 15.0713C11.8452 15.3354 12.199 15.4049 12.4621 15.2278L12.504 15.1922C13.2958 14.6002 14.0409 13.9459 14.7323 13.2352C15.7868 12.1769 16.5897 10.8867 17.0794 9.46358C17.6114 7.91764 17.5158 6.21932 16.8139 4.74544C16.2136 3.52938 15.151 2.61654 13.8731 2.21913Z" fill="white"/>
<path fill-rule="evenodd" clip-rule="evenodd" d="M12.4621 15.2278C12.199 15.4049 11.8452 15.3354 11.6657 15.0713C11.5745 14.9437 11.5378 14.7839 11.5642 14.6284C11.5905 14.4729 11.6775 14.3348 11.8054 14.2458C12.5485 13.6859 13.249 13.0698 13.901 12.4026C14.8401 11.4785 15.5573 10.3461 15.9966 9.09353C16.4193 7.8454 16.3337 6.47684 15.7591 5.2934C15.2968 4.36241 14.4821 3.66349 13.5029 3.35775C12.2539 2.95988 10.8932 3.20107 9.84955 4.00534C9.64206 4.16191 9.35849 4.16191 9.15101 4.00534C8.10783 3.19995 6.74658 2.95866 5.49768 3.35775C4.51191 3.65673 3.68911 4.35355 3.22046 5.28628C2.65885 6.46885 2.57851 7.82955 2.99693 9.07218C3.43817 10.3217 4.15512 11.4514 5.09253 12.3742C6.47765 13.7272 8.00503 14.9205 9.64697 15.9323C9.8558 16.0799 9.94764 16.3477 9.87446 16.5956C9.83348 16.7345 9.74594 16.8495 9.63222 16.9248C10.2668 16.6264 11.6883 15.732 12.4621 15.2278ZM12.5808 5.14395C13.6224 5.47892 14.3638 6.41952 14.4599 7.52793L14.4643 7.62082C14.4606 7.74418 14.4185 7.86407 14.3429 7.96252C14.2484 8.08558 14.1093 8.16487 13.9569 8.18263C13.637 8.22475 13.3437 7.99589 13.3003 7.67026C13.2711 7.01261 12.8412 6.44381 12.2246 6.24699C11.9953 6.10116 11.8935 5.81465 11.9779 5.55309C12.0519 5.32423 12.2517 5.16628 12.481 5.14467C12.4846 5.14433 12.4883 5.14402 12.4919 5.14375C12.5212 5.14156 12.5509 5.14158 12.5808 5.14395Z" fill="#67AF28" fill-opacity="0.5"/>
</svg>
