<svg width="34" height="34" viewBox="0 0 34 34" fill="none" xmlns="http://www.w3.org/2000/svg">
<g filter="url(#filter0_b_117_5245)">
<rect width="34" height="34" rx="5" fill="white" fill-opacity="0.2"/>
<rect x="0.5" y="0.5" width="33" height="33" rx="4.5" stroke="#3D4F3C" stroke-opacity="0.2"/>
</g>
<g opacity="0.2" clip-path="url(#clip0_117_5245)">
<path d="M14.8563 16.5057C15.0452 16.7113 15.1489 16.9798 15.1489 17.2576V25.4429C15.1489 25.9355 15.7434 26.1855 16.0952 25.8392L18.3786 23.2225C18.6842 22.8558 18.8527 22.6743 18.8527 22.3113V17.2594C18.8527 16.9816 18.9582 16.7131 19.1453 16.5075L25.6972 9.39817C26.1879 8.86483 25.8102 8 25.0842 8H8.91733C8.19139 8 7.81176 8.86298 8.30436 9.39817L14.8563 16.5057Z" fill="#3D4F3C"/>
</g>
<defs>
<filter id="filter0_b_117_5245" x="-27" y="-27" width="88" height="88" filterUnits="userSpaceOnUse" color-interpolation-filters="sRGB">
<feFlood flood-opacity="0" result="BackgroundImageFix"/>
<feGaussianBlur in="BackgroundImage" stdDeviation="13.5"/>
<feComposite in2="SourceAlpha" operator="in" result="effect1_backgroundBlur_117_5245"/>
<feBlend mode="normal" in="SourceGraphic" in2="effect1_backgroundBlur_117_5245" result="shape"/>
</filter>
<clipPath id="clip0_117_5245">
<rect width="18" height="18" fill="white" transform="translate(8 8)"/>
</clipPath>
</defs>
</svg>
