<svg width="16" height="16" viewBox="0 0 16 16" fill="none" xmlns="http://www.w3.org/2000/svg">
<g opacity="0.89">
<path d="M2.61182 5.22681H0.522376C0.235125 5.22681 0 5.46074 0 5.74915V15.1517C0 15.44 0.234094 15.674 0.522376 15.674H2.61182C2.9001 15.674 3.13419 15.4399 3.13419 15.1517V5.74915C3.13419 5.46074 2.89904 5.22681 2.61182 5.22681Z" fill="#3D4F3C"/>
<path d="M14.6956 5.22676C14.6114 5.21251 10.6725 5.22676 10.6725 5.22676L11.2227 3.72576C11.6023 2.68907 11.3565 1.10616 10.3032 0.54341C9.96019 0.36016 9.48101 0.268129 9.09466 0.365379C8.8731 0.421129 8.67839 0.567817 8.56232 0.764348C8.42885 0.99038 8.44264 1.25422 8.3951 1.50485C8.27457 2.14054 7.9742 2.74495 7.50904 3.1986C6.69805 3.98957 4.17871 6.27145 4.17871 6.27145V14.6293H12.8847C14.0595 14.63 14.8293 13.3181 14.2499 12.2934C14.9406 11.851 15.1768 10.9193 14.7723 10.2039C15.463 9.76158 15.6992 8.82986 15.2947 8.11449C16.4864 7.35127 16.088 5.46226 14.6956 5.22676Z" fill="#3D4F3C"/>
</g>
</svg>
