<svg width="130" height="41" viewBox="0 0 130 41" fill="none" xmlns="http://www.w3.org/2000/svg">
<path fill-rule="evenodd" clip-rule="evenodd" d="M23.4075 0.911133C22.3564 2.94544 23.19 4.16599 23.2147 6.34559C23.2336 8.01033 22.605 9.73121 21.3953 10.8087C20.8832 11.2652 20.0484 11.6292 19.1071 11.691C18.022 11.7622 18.0921 11.6301 17.9346 11.2567C17.4025 9.99511 17.8952 8.6397 18.5609 7.59203C19.1887 6.60354 19.3537 6.59086 19.9552 5.86614C19.0776 6.13175 17.5172 7.53894 17.0863 8.5166C15.9429 11.1112 17.7872 13.0705 18.6818 15.3454C19.436 17.2626 19.4836 19.5696 18.9059 21.6284C18.5824 22.7808 18.2812 23.3506 18.3563 24.6892C18.4175 25.776 18.6787 26.6832 19.0282 27.5551C22.071 27.3996 27.1491 24.5738 26.2684 20.9833C25.4904 17.58 26.564 15.1115 29.5606 13.2549C30.6259 12.5946 33.0437 11.6271 34.3318 11.5271C33.7561 12.6161 33.4912 13.5495 33.6059 14.8632C33.7235 16.2092 34.1607 17.1076 33.8859 18.5892C33.6791 19.7034 32.9974 20.6293 32.2965 21.1349C31.5714 21.6585 30.1768 22.1991 29.0125 21.9686C28.9187 20.7551 29.3393 19.4485 29.7948 18.4848C30.5236 16.9421 30.8031 16.8461 31.3919 15.7994C30.5589 16.4649 30.797 16.2181 30.1323 16.9761C29.9782 17.1518 29.917 17.2263 29.7915 17.413C29.3696 18.0392 28.9763 18.7351 28.7305 19.5757C27.2489 24.6484 26.0849 25.3622 23.884 26.6945C21.6135 28.069 19.1383 28.9316 18.7779 31.7654C18.5414 33.626 18.6789 36.2868 19.2412 37.66L18.0707 38.0116C17.5175 37.3885 17.5324 37.9364 17.3328 37.7543C16.3806 34.3584 18.2281 29.2698 17.1269 25.3974C16.7678 24.1339 16.044 22.9288 15.3512 22.0873C13.979 20.4212 12.6616 18.9308 10.4668 19.9638C7.06683 21.5642 3.74251 21.407 1.54251 18.1054C1.08754 17.4223 0.0883241 15.6076 0.000244141 14.5716C1.7859 14.9454 2.3347 14.5881 3.84061 14.0084C5.10781 13.5203 6.19405 13.0088 7.77213 13.2155C9.29048 13.4147 10.1872 13.908 11.0737 14.6433C11.7379 15.1942 12.7419 16.7885 12.772 17.5938C11.8638 17.3232 11.453 17.2385 10.2924 17.7013C9.50553 18.0149 8.94457 18.2702 7.99855 18.4191C6.64487 18.6321 5.35989 18.4349 4.20202 17.7987C3.68891 17.517 3.47466 17.234 3.28888 17.1566C3.52745 17.7006 4.17422 18.3248 4.5633 18.6342C5.77971 19.6021 7.3316 19.5852 8.80103 19.2146C9.49778 19.0392 10.1272 18.741 10.8103 18.5715C11.8853 18.3048 13.1271 18.6461 13.9504 19.2388C14.8081 19.8561 15.3526 20.3819 15.9983 21.1523C16.178 21.367 16.3649 21.6119 16.5733 21.8925L17.1196 22.6616C17.6575 21.8817 18.1407 20.3537 18.2913 19.2783C18.4746 17.9688 18.2204 16.4742 17.7122 15.4111C17.0005 13.9229 15.219 12.4225 14.4766 9.60626C13.6787 6.57792 15.1553 4.54374 16.7771 3.38844C18.3535 2.26588 21.0028 1.21439 23.4076 0.911133H23.4075Z" fill="#67AF28"/>
<path d="M46.2595 18.6171V25.7452H44.3217V20.3193H40.769V25.7452H38.8311V18.6171H46.2596H46.2595ZM53.4835 18.6171H55.4213V25.7452H53.4835V21.1705L49.7046 25.7452H47.7668V18.6171H49.7046V23.1918L53.4835 18.6171ZM59.1895 25.7452V20.3193H56.3903V18.6171H63.9373V20.3193H61.1274V25.7452H59.1896H59.1895ZM64.8954 21.9046C64.8954 21.4222 64.9565 20.9682 65.0784 20.5427C65.2004 20.1173 65.414 19.7465 65.719 19.431C66.0242 19.1153 66.4349 18.8654 66.9518 18.6809C67.4685 18.4965 68.118 18.4043 68.9005 18.4043H69.2879C70.0704 18.4043 70.7198 18.4965 71.2367 18.6809C71.7534 18.8653 72.1642 19.1153 72.4694 19.431C72.7744 19.7466 72.988 20.1173 73.11 20.5427C73.232 20.9682 73.293 21.4222 73.293 21.9046V22.4578C73.293 22.9402 73.2319 23.3942 73.11 23.8197C72.988 24.2452 72.7744 24.6159 72.4694 24.9315C72.1642 25.2471 71.7535 25.497 71.2367 25.6815C70.7199 25.8659 70.0704 25.9581 69.2879 25.9581H68.9005C68.118 25.9581 67.4686 25.8659 66.9518 25.6815C66.435 25.4972 66.0242 25.2471 65.719 24.9315C65.414 24.6158 65.2004 24.2452 65.0784 23.8197C64.9564 23.3942 64.8954 22.9402 64.8954 22.4578V21.9046ZM66.8333 22.1811C66.8333 22.4506 66.8459 22.7113 66.8709 22.9632C66.896 23.2149 66.9786 23.4366 67.1186 23.6281C67.2585 23.8196 67.481 23.972 67.786 24.0856C68.091 24.1991 68.5272 24.2559 69.0941 24.2559C69.6611 24.2559 70.0971 24.1991 70.4021 24.0856C70.7072 23.972 70.9297 23.8196 71.0696 23.6281C71.2095 23.4366 71.2921 23.2149 71.3173 22.9632C71.3424 22.7113 71.3548 22.4507 71.3548 22.1811C71.3548 21.9117 71.3423 21.6527 71.3173 21.4045C71.2921 21.1562 71.2095 20.9364 71.0696 20.7449C70.9297 20.5534 70.7071 20.401 70.4021 20.2874C70.0971 20.1738 69.661 20.1171 69.0941 20.1171C68.5272 20.1171 68.091 20.1738 67.786 20.2874C67.4809 20.401 67.2585 20.5534 67.1186 20.7449C66.9786 20.9364 66.896 21.1563 66.8709 21.4045C66.8458 21.6527 66.8333 21.9117 66.8333 22.1811ZM78.6544 24.2877L76.6304 21.4896V25.7452H74.6925V18.6171H76.6304L79.1496 22.2662L81.6687 18.6171H83.6065V25.7452H81.6687V21.4896L79.6448 24.2877H78.6542H78.6544ZM87.0519 18.6171V21.3832H90.82V18.6171H92.7579V25.7452H90.82V23.0854H87.0519V25.7452H85.114V18.6171H87.0519ZM99.9819 18.6171H101.92V25.7452H99.9819V21.1705L96.203 25.7452H94.2651V18.6171H96.203V23.1918L99.9819 18.6171ZM105.365 18.6171V21.3832H106.603L108.95 18.6171H110.845V19.0426L108.185 22.1811L110.845 25.3196V25.7452H108.95L106.689 23.0854H105.365V25.7452H103.427V18.6171H105.365ZM115.593 21.9153V23.4047H111.814V21.9153H115.593ZM38.7234 34.3522C38.7234 33.8699 38.7845 33.4159 38.9064 32.9904C39.0284 32.5649 39.2365 32.1942 39.5308 31.8786C39.8251 31.563 40.2234 31.3131 40.7258 31.1285C41.2283 30.9442 41.8599 30.852 42.6207 30.852H43.0083C43.4963 30.852 43.97 30.8821 44.4293 30.9423C44.8887 31.0027 45.3409 31.0896 45.7858 31.203V32.9373C45.5347 32.8663 45.2817 32.806 45.0268 32.7564C44.7719 32.7068 44.5208 32.666 44.2731 32.6341C44.0254 32.6022 43.7886 32.5791 43.5626 32.5649C43.3366 32.5507 43.1338 32.5437 42.9543 32.5437C42.3944 32.5437 41.962 32.5952 41.657 32.6979C41.352 32.8008 41.1295 32.9444 40.9895 33.1288C40.8496 33.3132 40.767 33.5331 40.742 33.7884C40.7169 34.0438 40.7043 34.324 40.7043 34.6289C40.7043 34.9339 40.7169 35.2141 40.742 35.4695C40.7671 35.7248 40.8496 35.9464 40.9895 36.1344C41.1295 36.3223 41.352 36.4678 41.657 36.5707C41.9622 36.6734 42.3945 36.7249 42.9543 36.7249C43.1337 36.7249 43.3364 36.7178 43.5626 36.7037C43.7886 36.6895 44.0256 36.6666 44.2731 36.6345C44.5208 36.6026 44.7719 36.56 45.0268 36.5069C45.2817 36.4536 45.5346 36.3916 45.7858 36.3206V38.0655C45.3409 38.1719 44.8886 38.2552 44.4293 38.3156C43.97 38.3759 43.4963 38.4059 43.0083 38.4059H42.6207C41.8599 38.4059 41.2283 38.3137 40.7258 38.1293C40.2234 37.945 39.8251 37.6949 39.5308 37.3793C39.2365 37.0636 39.0284 36.693 38.9064 36.2675C38.7843 35.842 38.7234 35.388 38.7234 34.9057V34.3524V34.3522ZM46.7764 38.1929V37.7673L49.9847 31.0647H51.9224L55.1307 37.7673V38.1929H53.3866L52.7623 36.8099H49.1341L48.5204 38.1929H46.7764ZM52.0518 35.2139L50.9537 32.7776L49.8555 35.2139H52.0518ZM62.764 31.0647V33.8309H63.679L66.026 31.0647H67.9208V31.4903L65.2615 34.6288L67.9208 37.7673V38.1929H66.026L63.7651 35.533H62.7639V38.1929H60.826V35.533H59.8141L57.564 38.1929H55.6691V37.7673L58.3283 34.6288L55.6691 31.4903V31.0647H57.564L59.9108 33.8309H60.826V31.0647H62.7639H62.764ZM75.8984 32.767H70.9353V33.8309H74.8217V35.5332H70.9353V36.4908H75.8984V38.193H68.9974V31.0649H75.8984V32.7671V32.767ZM79.1175 31.0647V33.8309H82.8855V31.0647H84.8234V38.1929H82.8855V35.533H79.1175V38.1929H77.1796V31.0647H79.1175ZM93.7592 40.1079H93.3286V38.1929H86.3307V31.0647H88.2686V36.4906H92.0366V31.0647H93.9745V36.4906H95.0511V39.3631L93.7592 40.1079ZM103.018 36.1715C103.018 36.4836 102.973 36.7743 102.883 37.0439C102.794 37.3134 102.641 37.5492 102.426 37.7513C102.21 37.9535 101.918 38.1131 101.548 38.2301C101.179 38.3471 100.714 38.4057 100.154 38.4057H99.8528C99.1996 38.4057 98.5338 38.388 97.8557 38.3526C97.1774 38.317 96.5297 38.2638 95.9124 38.1929V31.0647H97.8503V33.6181C98.202 33.5613 98.5626 33.5295 98.9323 33.5224C99.3018 33.5152 99.6805 33.5117 100.068 33.5117H100.37C100.886 33.5117 101.315 33.5702 101.656 33.6872C101.997 33.8042 102.268 33.9638 102.469 34.166C102.67 34.3681 102.812 34.6057 102.894 34.8787C102.977 35.1517 103.018 35.4407 103.018 35.7458V36.1714V36.1715ZM105.699 31.0647V38.1929H103.761V31.0647H105.699ZM99.7666 35.2139C99.4292 35.2139 99.1098 35.2193 98.8084 35.2299C98.5068 35.2405 98.1875 35.267 97.8502 35.3097V36.6076C98.2091 36.6432 98.5733 36.668 98.943 36.6821C99.3125 36.6963 99.6122 36.7034 99.8419 36.7034C100.208 36.7034 100.488 36.6857 100.682 36.6502C100.876 36.6148 101.019 36.5634 101.112 36.4959C101.206 36.4285 101.26 36.3488 101.274 36.2566C101.288 36.1644 101.295 36.0651 101.295 35.9586C101.295 35.8523 101.288 35.753 101.274 35.6608C101.26 35.5686 101.204 35.4905 101.107 35.4267C101.01 35.3628 100.857 35.3114 100.649 35.2724C100.441 35.2333 100.147 35.2138 99.7666 35.2138V35.2139ZM107.206 37.2673C107.206 37.1325 107.224 37.0031 107.26 36.8789C107.296 36.7548 107.357 36.6466 107.443 36.5544C107.529 36.4622 107.646 36.3894 107.793 36.3363C107.94 36.2831 108.125 36.2566 108.347 36.2566H108.433C108.656 36.2566 108.841 36.2831 108.988 36.3363C109.135 36.3894 109.252 36.4622 109.338 36.5544C109.424 36.6466 109.485 36.7549 109.521 36.8789C109.557 37.0031 109.574 37.1325 109.574 37.2673V37.3948C109.574 37.5367 109.557 37.6679 109.521 37.7886C109.485 37.9092 109.424 38.0155 109.338 38.1077C109.252 38.1999 109.135 38.2727 108.988 38.3257C108.841 38.3788 108.656 38.4055 108.433 38.4055H108.347C108.125 38.4055 107.94 38.379 107.793 38.3257C107.646 38.2725 107.529 38.1999 107.443 38.1077C107.357 38.0155 107.296 37.909 107.26 37.7886C107.224 37.668 107.206 37.5367 107.206 37.3948V37.2673ZM118.403 33.8308C118.403 34.1854 118.358 34.5171 118.268 34.8255C118.178 35.134 118.026 35.4036 117.81 35.6341C117.595 35.8646 117.303 36.0472 116.933 36.1819C116.563 36.3168 116.099 36.3842 115.539 36.3842H115.237C114.85 36.3842 114.471 36.3806 114.101 36.3735C113.732 36.3663 113.371 36.3345 113.019 36.2777V38.1927H111.082V31.0646C111.699 30.9937 112.346 30.9405 113.025 30.9051C113.703 30.8695 114.369 30.8518 115.022 30.8518H115.323C115.926 30.8518 116.425 30.9192 116.82 31.0539C117.215 31.1886 117.53 31.3713 117.767 31.6019C118.004 31.8324 118.169 32.1037 118.262 32.4158C118.356 32.7279 118.402 33.0577 118.402 33.4052V33.8308H118.403ZM114.936 34.6819C115.316 34.6819 115.611 34.6554 115.819 34.6021C116.027 34.5489 116.179 34.4745 116.276 34.3788C116.373 34.283 116.429 34.1713 116.443 34.0437C116.458 33.916 116.465 33.7743 116.465 33.6181C116.465 33.462 116.458 33.3184 116.443 33.1873C116.429 33.0561 116.375 32.9443 116.282 32.8521C116.188 32.7599 116.045 32.6872 115.851 32.634C115.657 32.5808 115.377 32.5542 115.011 32.5542C114.782 32.5542 114.482 32.5614 114.112 32.5755C113.743 32.5898 113.378 32.6146 113.02 32.65V34.5863C113.357 34.6288 113.676 34.6555 113.978 34.6661C114.279 34.6768 114.599 34.682 114.936 34.682V34.6819ZM125.616 30.2135V30.9583H125.81C126.57 30.9583 127.202 31.0292 127.704 31.1711C128.207 31.3129 128.605 31.5062 128.9 31.7509C129.194 31.9955 129.402 32.2811 129.524 32.6073C129.646 32.9336 129.707 33.2811 129.707 33.65V34.2032C129.707 34.5791 129.646 34.9304 129.524 35.2565C129.402 35.5827 129.194 35.8664 128.9 36.1076C128.605 36.3488 128.207 36.5403 127.704 36.6821C127.202 36.824 126.57 36.8949 125.81 36.8949H125.616V38.1929H123.678V36.8949H123.484C122.723 36.8949 122.092 36.824 121.589 36.6821C121.087 36.5403 120.689 36.3469 120.394 36.1023C120.1 35.8576 119.892 35.5721 119.77 35.2459C119.648 34.9197 119.587 34.572 119.587 34.2032V33.65C119.587 33.2812 119.648 32.9337 119.77 32.6073C119.892 32.2811 120.1 31.9955 120.394 31.7509C120.689 31.5062 121.087 31.3129 121.589 31.1711C122.092 31.0292 122.723 30.9583 123.484 30.9583H123.678V30.2135H125.616ZM121.525 33.9265C121.525 34.0968 121.536 34.2582 121.557 34.4106C121.579 34.5632 121.658 34.6979 121.794 34.8149C121.93 34.9319 122.144 35.0241 122.435 35.0915C122.725 35.1589 123.14 35.1925 123.678 35.1925V32.671C123.14 32.671 122.725 32.7047 122.435 32.7722C122.144 32.8395 121.93 32.9317 121.794 33.0487C121.658 33.1658 121.579 33.3005 121.557 33.453C121.536 33.6056 121.525 33.7634 121.525 33.9264V33.9265ZM127.769 33.9265C127.769 33.7634 127.758 33.6056 127.737 33.4532C127.715 33.3006 127.636 33.1659 127.5 33.0489C127.364 32.9318 127.15 32.8395 126.859 32.7723C126.569 32.7049 126.154 32.6711 125.616 32.6711V35.1927C126.154 35.1927 126.569 35.159 126.859 35.0916C127.15 35.0243 127.364 34.9319 127.5 34.815C127.636 34.698 127.715 34.5632 127.737 34.4107C127.758 34.2583 127.769 34.0969 127.769 33.9267V33.9265Z" fill="#67AF28"/>
<path d="M4.68559 1.10718H16.2516V2.00717H5.14096V9.46128H4.23022V1.10718H4.68559ZM25.2376 1.10718H32.2389V9.46128H31.3281V2.00717H25.2376V1.10718ZM32.2389 24.2761V38.1553H4.23022V24.2761H5.14096V37.2553H31.3281V24.2761H32.2389Z" fill="#67AF28"/>
</svg>
