<svg width="42" height="42" viewBox="0 0 42 42" fill="none" xmlns="http://www.w3.org/2000/svg">
<path d="M10.3333 22.3334C11.0697 22.3334 11.6667 21.7365 11.6667 21.0001C11.6667 20.2637 11.0697 19.6667 10.3333 19.6667C9.59695 19.6667 9 20.2637 9 21.0001C9 21.7365 9.59695 22.3334 10.3333 22.3334Z" fill="#7184C8"/>
<path d="M31.7468 19.6667H15.5868C14.8946 19.6667 14.3335 20.2279 14.3335 20.9201V21.0801C14.3335 21.7723 14.8946 22.3334 15.5868 22.3334H31.7468C32.439 22.3334 33.0002 21.7723 33.0002 21.0801V20.9201C33.0002 20.2279 32.439 19.6667 31.7468 19.6667Z" fill="#7184C8"/>
<path d="M31.7467 26.3333H10.2533C9.56114 26.3333 9 26.8944 9 27.5866V27.7466C9 28.4388 9.56114 28.9999 10.2533 28.9999H31.7467C32.4389 28.9999 33 28.4388 33 27.7466V27.5866C33 26.8944 32.4389 26.3333 31.7467 26.3333Z" fill="#7184C8"/>
<path d="M31.7467 13H10.2533C9.56114 13 9 13.5611 9 14.2533V14.4133C9 15.1055 9.56114 15.6667 10.2533 15.6667H31.7467C32.4389 15.6667 33 15.1055 33 14.4133V14.2533C33 13.5611 32.4389 13 31.7467 13Z" fill="#7184C8"/>
</svg>
