<svg width="30" height="30" viewBox="0 0 30 30" fill="none" xmlns="http://www.w3.org/2000/svg">
<path d="M24.3693 19.6582C23.5138 18.7793 21.0821 17.1328 19.4884 17.1328C19.1193 17.1328 18.797 17.2148 18.5333 17.3848C17.754 17.8828 17.1329 18.2695 16.8341 18.2695C16.67 18.2695 16.4943 18.123 16.1075 17.7891L16.0431 17.7305C14.9708 16.7988 14.7423 16.5586 14.3263 16.125L14.2208 16.0137C14.1446 15.9375 14.0802 15.8672 14.0157 15.8027C13.6525 15.4277 13.3888 15.1582 12.4571 14.1035L12.4161 14.0566C11.9708 13.5527 11.6778 13.2246 11.6603 12.9844C11.6427 12.75 11.8478 12.3691 12.3693 11.6602C13.0021 10.8047 13.0255 9.75 12.4454 8.52539C11.9825 7.55859 11.2267 6.63281 10.5587 5.81836L10.5001 5.74805C9.9259 5.04492 9.25793 4.69336 8.51379 4.69336C7.68761 4.69336 7.00207 5.13867 6.63878 5.37305C6.60949 5.39062 6.58019 5.41406 6.55089 5.43164C5.73644 5.94727 5.14464 6.65625 4.92199 7.37695C4.588 8.46094 4.36535 9.86719 5.96496 12.791C7.34777 15.3223 8.60168 17.0215 10.5939 19.0664C12.4689 20.9883 13.3009 21.6094 15.1642 22.957C17.2384 24.457 19.2306 25.3184 20.6251 25.3184C21.92 25.3184 22.9396 25.3184 24.3927 23.5664C25.9161 21.7266 25.2833 20.6016 24.3693 19.6582ZM23.6954 22.9336C22.5236 24.3516 21.8497 24.3516 20.631 24.3516C19.4415 24.3516 17.5958 23.5312 15.6974 22.166C13.881 20.8535 13.0724 20.25 11.2501 18.3809C9.32238 16.4062 8.10949 14.7598 6.77355 12.3164C5.36144 9.73242 5.51964 8.60156 5.80675 7.66992C5.9591 7.17187 6.41613 6.63867 7.03722 6.25195C7.06652 6.23437 7.09582 6.21094 7.13097 6.19336C7.44152 5.99414 7.95714 5.66016 8.51964 5.66016C8.98839 5.66016 9.40441 5.89453 9.80285 6.38086L9.86144 6.45117C11.3556 8.2793 12.5216 9.89648 11.6427 11.0918C11.0216 11.9297 10.6935 12.498 10.7462 13.084C10.7931 13.6523 11.1739 14.0801 11.7482 14.7246L11.7892 14.7715C12.7325 15.8379 13.0021 16.1191 13.3771 16.5C13.4415 16.5644 13.506 16.6348 13.5821 16.7109L13.6876 16.8223C14.1212 17.2734 14.3614 17.5195 15.463 18.4863L15.5275 18.5449C15.9962 18.9551 16.3419 19.2539 16.8458 19.2539C17.3673 19.2539 17.9415 18.9258 19.0314 18.2285C19.1427 18.1582 19.3009 18.1172 19.5001 18.1172C20.7716 18.1172 22.963 19.5703 23.7306 20.3613C24.4337 21.0762 24.7853 21.6152 23.6954 22.9336Z" fill="#636363"/>
</svg>
