<svg width="49" height="49" viewBox="0 0 49 49" fill="none" xmlns="http://www.w3.org/2000/svg">
<path fill-rule="evenodd" clip-rule="evenodd" d="M16.6982 14.9341L10.2079 9.27751C9.42362 8.59376 9.42213 7.33242 10.2079 6.64717L16.6982 0.99059C17.801 0.0290725 19.5883 0.843297 19.5883 2.30539V4.1716C21.3517 4.71778 23.1738 5.28415 24.8419 6.27333C28.1624 8.24235 30.4181 10.6102 31.7374 13.5124C32.4357 15.0485 32.8563 16.7689 32.9535 18.4878L32.9543 18.5009C33.0058 19.4632 32.2361 20.3058 31.2746 20.3495C31.2179 20.3521 31.1612 20.3553 31.1044 20.3585C30.9777 20.3656 30.8507 20.3727 30.7239 20.3727C29.9531 20.3727 29.2768 19.8845 29.042 19.1574C28.3175 16.9169 26.75 15.0077 24.741 13.9187C23.2553 13.1139 21.486 12.6286 19.5887 12.5019V13.6193C19.5887 15.0851 17.8081 15.902 16.6982 14.9341ZM17.6418 2.07286L11.1515 7.72981C11.0124 7.85093 11.0121 8.07337 11.1511 8.19524L17.6414 13.8518C17.8388 14.0238 18.1524 13.8765 18.1524 13.6193V11.7531C18.1524 11.3134 18.5278 11.0275 18.9453 11.0364C21.3245 11.0884 23.5649 11.6484 25.4247 12.6563C27.7549 13.9191 29.5714 16.1278 30.408 18.7159C30.4499 18.846 30.58 18.9368 30.7239 18.9368L30.74 18.9364L31.2092 18.9151C31.3849 18.9073 31.5299 18.7551 31.5202 18.5772L31.5198 18.5667C31.4327 17.0257 31.0559 15.4829 30.4305 14.1068C29.2368 11.4813 27.1691 9.32274 24.1096 7.5085C22.5802 6.60156 20.9099 6.08417 19.1412 5.53649C18.9995 5.49238 18.8455 5.45051 18.7076 5.41836C18.3827 5.34247 18.1528 5.05274 18.1528 4.71927V2.30539C18.1528 2.04407 17.8384 1.90164 17.6418 2.07286ZM26.5599 39.8876C26.5599 40.2842 26.2384 40.6053 25.8422 40.6053C25.4455 40.6053 25.124 40.2842 25.124 39.8876V38.6266C25.124 38.2299 25.4455 37.9084 25.8422 37.9084C26.2384 37.9084 26.5599 38.2299 26.5599 38.6266V39.8876ZM40.4965 39.8876C40.4965 40.2842 40.175 40.6053 39.7783 40.6053C39.382 40.6053 39.0605 40.2842 39.0605 39.8876V38.6266C39.0605 38.2299 39.382 37.9084 39.7783 37.9084C40.175 37.9084 40.4965 38.2299 40.4965 38.6266V39.8876ZM32.8107 41.2786C33.6885 41.2786 34.5121 40.9119 35.0714 40.2722C35.3323 39.9739 35.3016 39.5204 35.0033 39.2595C34.7046 38.9986 34.2512 39.0288 33.9902 39.3275C33.7038 39.655 33.2739 39.8427 32.8107 39.8427C32.3476 39.8427 31.918 39.655 31.6317 39.3275C31.3707 39.0288 30.9172 38.9986 30.6185 39.2595C30.3199 39.5204 30.2896 39.9739 30.5505 40.2722C31.1094 40.9119 31.9333 41.2786 32.8107 41.2786Z" fill="#3D4F3C"/>
<path d="M2.13309 34.2011H3.86921V45.4951C3.86921 47.1083 5.18139 48.4204 6.79414 48.4204H42.2058C43.8185 48.4204 45.1307 47.1083 45.1307 45.4951V34.2011H46.8668C48.351 34.2011 49.4018 32.6522 48.8515 31.2728L45.0795 21.8165C44.9707 21.5436 44.7064 21.3645 44.4129 21.3645H40.6207C40.2244 21.3645 39.9029 21.686 39.9029 22.0823C39.9029 22.4789 40.2244 22.8004 40.6207 22.8004H43.9262C43.9262 22.8004 47.5095 31.7838 47.5177 31.8047C47.6994 32.2597 47.3547 32.7651 46.8668 32.7651H24.3796C24.0947 32.7651 23.8342 32.5887 23.7287 32.324L19.9298 22.8H37.7492C38.1455 22.8 38.467 22.4789 38.467 22.0823C38.467 21.6856 38.1455 21.3645 37.7492 21.3645H4.58736C4.29352 21.3645 4.02921 21.5432 3.92043 21.8161C3.92043 21.8161 0.156227 31.2537 0.14875 31.2728C-0.40229 32.6534 0.648575 34.2011 2.13309 34.2011ZM18.8703 41.7949C19.2669 41.7949 19.5884 41.4737 19.5884 41.0771V25.8199L22.3949 32.8564C22.7209 33.6732 23.4999 34.2011 24.3796 34.2011H43.6948V45.4951C43.6948 46.3165 43.0267 46.9845 42.2058 46.9845H19.5884V43.9489C19.5884 43.5523 19.2669 43.2308 18.8703 43.2308C18.474 43.2308 18.1525 43.5523 18.1525 43.9489V46.9845H6.79414C5.97318 46.9845 5.30513 46.3165 5.30513 45.4951V34.2011H13.3614C14.2298 34.2011 15.0242 33.6627 15.3461 32.856L18.1525 25.8199V41.0771C18.1525 41.4737 18.474 41.7949 18.8703 41.7949ZM1.48224 31.8047L5.07372 22.8004H17.8112C17.8112 22.8004 14.0126 32.3236 14.0122 32.324C13.9064 32.5898 13.6481 32.7651 13.3614 32.7651C13.3614 32.7651 2.14805 32.7651 2.13309 32.7651C1.64523 32.7651 1.3013 32.2582 1.48224 31.8047Z" fill="#3D4F3C"/>
</svg>
