<svg width="19" height="19" viewBox="0 0 19 19" fill="none" xmlns="http://www.w3.org/2000/svg">
<path d="M15.0553 12.2064C13.9625 12.2064 12.988 12.7272 12.3647 13.532L7.14521 10.6165C7.26752 10.2654 7.33458 9.88663 7.33458 9.49605C7.33458 9.10154 7.26751 8.72674 7.14127 8.37168L12.3568 5.46013C12.9762 6.2689 13.9546 6.7936 15.0514 6.7936C16.9214 6.7936 18.4482 5.27076 18.4482 3.3968C18.4482 1.52284 16.9253 0 15.0514 0C13.1774 0 11.6546 1.52284 11.6546 3.3968C11.6546 3.79132 11.7216 4.17006 11.8479 4.52118L6.63629 7.43272C6.01689 6.62002 5.03849 6.09925 3.94173 6.09925C2.07171 6.09925 0.544922 7.62209 0.544922 9.49605C0.544922 11.37 2.07171 12.8929 3.94567 12.8929C5.04243 12.8929 6.02084 12.3681 6.64418 11.5554L11.8597 14.4709C11.7335 14.826 11.6625 15.2087 11.6625 15.6032C11.6625 17.4732 13.1853 19 15.0593 19C16.9332 19 18.4561 17.4772 18.4561 15.6032C18.4561 13.7292 16.9293 12.2064 15.0553 12.2064ZM15.0553 1.06914C16.3414 1.06914 17.3869 2.11462 17.3869 3.40075C17.3869 4.68688 16.3414 5.73235 15.0553 5.73235C13.7692 5.73235 12.7237 4.68688 12.7237 3.40075C12.7237 2.11462 13.7731 1.06914 15.0553 1.06914ZM3.94567 11.8277C2.65954 11.8277 1.61407 10.7822 1.61407 9.49605C1.61407 8.20992 2.65954 7.16445 3.94567 7.16445C5.2318 7.16445 6.27727 8.20992 6.27727 9.49605C6.27727 10.7822 5.22785 11.8277 3.94567 11.8277ZM15.0553 17.9309C13.7692 17.9309 12.7237 16.8854 12.7237 15.5993C12.7237 14.3131 13.7692 13.2676 15.0553 13.2676C16.3414 13.2676 17.3869 14.3131 17.3869 15.5993C17.3869 16.8854 16.3414 17.9309 15.0553 17.9309Z" fill="#3D4F3C"/>
</svg>
