<?xml version="1.0" encoding="UTF-8" standalone="no"?>
<svg
   xmlns:dc="http://purl.org/dc/elements/1.1/"
   xmlns:cc="http://creativecommons.org/ns#"
   xmlns:rdf="http://www.w3.org/1999/02/22-rdf-syntax-ns#"
   xmlns:svg="http://www.w3.org/2000/svg"
   xmlns="http://www.w3.org/2000/svg"
   xmlns:sodipodi="http://sodipodi.sourceforge.net/DTD/sodipodi-0.dtd"
   xmlns:inkscape="http://www.inkscape.org/namespaces/inkscape"
   width="21.546268"
   height="18.12603"
   viewBox="0 0 21.546268 18.12603"
   fill="none"
   version="1.1"
   id="svg11"
   sodipodi:docname="star-w.svg"
   inkscape:version="1.0.2-2 (e86c870879, 2021-01-15)">
  <metadata
     id="metadata15">
    <rdf:RDF>
      <cc:Work
         rdf:about="">
        <dc:format>image/svg+xml</dc:format>
        <dc:type
           rdf:resource="http://purl.org/dc/dcmitype/StillImage" />
        <dc:title></dc:title>
      </cc:Work>
    </rdf:RDF>
  </metadata>
  <sodipodi:namedview
     pagecolor="#ffffff"
     bordercolor="#666666"
     borderopacity="1"
     objecttolerance="10"
     gridtolerance="10"
     guidetolerance="10"
     inkscape:pageopacity="0"
     inkscape:pageshadow="2"
     inkscape:window-width="1920"
     inkscape:window-height="1017"
     id="namedview13"
     showgrid="false"
     inkscape:zoom="31.513578"
     inkscape:cx="8.9989728"
     inkscape:cy="7.8563677"
     inkscape:window-x="1592"
     inkscape:window-y="-8"
     inkscape:window-maximized="1"
     inkscape:current-layer="svg11"
     inkscape:document-rotation="0" />
  <path
     fill-rule="evenodd"
     clip-rule="evenodd"
     d="m 10.4173,0.985211 2.1429,4.342179 c 0.149,0.302 0.4372,0.51126 0.7705,0.55962 l 4.792,0.69634 c 0.8394,0.12207 1.1743,1.15332 0.5671,1.74504 l -3.4675,3.37991 c -0.2409,0.235 -0.3511,0.5739 -0.294,0.9056 l 0.8184,4.7726 c 0.1435,0.8358 -0.734,1.4731 -1.4847,1.0788 L 9.97614,16.2122 c -0.29803,-0.1566 -0.65433,-0.1566 -0.95237,0 l -4.2859,2.2531 C 3.98722,18.86 3.10975,18.2223 3.25322,17.3865 L 4.07164,12.6139 C 4.12871,12.2822 4.01853,11.9433 3.77756,11.7083 L 0.310084,8.32839 C -0.297092,7.73628 0.037806,6.70503 0.87723,6.58335 L 5.66924,5.88701 C 6.00255,5.83865 6.29068,5.62939 6.4397,5.32739 L 8.58265,0.985211 c 0.37493,-0.760555 1.45925,-0.760555 1.83465,0 z m 27,0 2.1429,4.342179 c 0.149,0.302 0.4372,0.51126 0.7705,0.55962 l 4.792,0.69634 c 0.8394,0.12207 1.1743,1.15332 0.5671,1.74504 l -3.4675,3.37991 c -0.2409,0.235 -0.3511,0.5739 -0.294,0.9056 l 0.8184,4.7726 c 0.1435,0.8358 -0.734,1.4731 -1.4847,1.0788 l -4.2859,-2.2531 c -0.298,-0.1566 -0.6543,-0.1566 -0.9523,0 l -4.2859,2.2531 c -0.7507,0.3947 -1.6282,-0.243 -1.4847,-1.0788 l 0.8184,-4.7726 c 0.0571,-0.3317 -0.0531,-0.6706 -0.294,-0.9056 L 27.3101,8.32839 C 26.7029,7.73628 27.0378,6.70503 27.8772,6.58335 l 4.792,-0.69634 c 0.3334,-0.04836 0.6215,-0.25762 0.7705,-0.55962 l 2.143,-4.342179 c 0.3749,-0.760555 1.4592,-0.760555 1.8346,0 z M 66.5602,5.32739 64.4173,0.985211 c -0.3754,-0.760555 -1.4597,-0.760555 -1.8346,0 l -2.143,4.342179 c -0.149,0.302 -0.4371,0.51126 -0.7705,0.55962 l -4.792,0.69634 c -0.8394,0.12168 -1.1743,1.15293 -0.5671,1.74504 l 3.4675,3.37991 c 0.2409,0.235 0.3511,0.5739 0.294,0.9056 l -0.8184,4.7726 c -0.1435,0.8358 0.734,1.4735 1.4847,1.0788 l 4.2859,-2.2531 c 0.298,-0.1566 0.6543,-0.1566 0.9523,0 l 4.2859,2.2531 c 0.7507,0.3943 1.6282,-0.243 1.4847,-1.0788 l -0.8184,-4.7726 c -0.0571,-0.3317 0.0531,-0.6706 0.294,-0.9056 L 72.6898,8.32839 C 73.297,7.73667 72.9621,6.70542 72.1227,6.58335 L 67.3307,5.88701 C 66.9974,5.83865 66.7092,5.62939 66.5602,5.32739 Z M 91.4173,0.985211 93.5602,5.32739 c 0.149,0.302 0.4372,0.51126 0.7705,0.55962 l 4.792,0.69634 c 0.8394,0.12207 1.1743,1.15332 0.5671,1.74504 l -3.4674,3.37991 c -0.241,0.235 -0.3512,0.5739 -0.2941,0.9056 l 0.8184,4.7726 c 0.1435,0.8358 -0.734,1.4731 -1.4847,1.0788 l -4.2859,-2.2531 c -0.298,-0.1566 -0.6543,-0.1566 -0.9523,0 l -4.2859,2.2531 c -0.7507,0.3947 -1.6282,-0.243 -1.4847,-1.0788 l 0.8184,-4.7726 c 0.0571,-0.3317 -0.0531,-0.6706 -0.294,-0.9056 L 81.3101,8.32839 C 80.7029,7.73628 81.0378,6.70503 81.8772,6.58335 l 4.792,-0.69634 c 0.3334,-0.04836 0.6215,-0.25762 0.7705,-0.55962 l 2.143,-4.342179 c 0.3749,-0.760555 1.4592,-0.760555 1.8346,0 z M 120.56,5.32739 118.417,0.985211 c -0.375,-0.760555 -1.459,-0.760555 -1.834,0 L 114.44,5.32739 c -0.149,0.302 -0.437,0.51126 -0.771,0.55962 l -4.792,0.69634 c -0.839,0.12168 -1.174,1.15293 -0.567,1.74504 l 3.468,3.37991 c 0.241,0.235 0.351,0.5739 0.294,0.9056 l -0.819,4.7726 c -0.143,0.8358 0.734,1.4735 1.485,1.0788 l 4.286,-2.2531 c 0.298,-0.1566 0.654,-0.1566 0.952,0 l 4.286,2.2531 c 0.751,0.3943 1.628,-0.243 1.485,-1.0788 l -0.819,-4.7726 c -0.057,-0.3317 0.053,-0.6706 0.294,-0.9056 l 3.468,-3.37991 c 0.607,-0.59172 0.272,-1.62297 -0.567,-1.74504 L 121.331,5.88701 C 120.997,5.83865 120.709,5.62939 120.56,5.32739 Z"
     fill="url(#paint0_linear_154_8200)"
     id="path2"
     clip-path="url(#clipPath871)"
     style="fill:#008000"
     transform="translate(-25.798403,-0.41479475)" />
  <defs
     id="defs9">
    <linearGradient
       id="paint0_linear_154_8200"
       x1="-37.629601"
       y1="0.414812"
       x2="120.66"
       y2="45.646099"
       gradientUnits="userSpaceOnUse">
      <stop
         offset="0.0001"
         stop-color="#67AF28"
         id="stop4" />
      <stop
         offset="1"
         stop-color="#6CDA0D"
         id="stop6" />
    </linearGradient>
    <clipPath
       clipPathUnits="userSpaceOnUse"
       id="clipPath871">
      <rect
         style="fill:#ffffff;stroke:#3d4f3c;stroke-linecap:square;paint-order:fill markers stroke"
         id="rect873"
         width="21.546268"
         height="18.499962"
         x="25.798403"
         y="0.031732354" />
    </clipPath>
  </defs>
  <path
     style="fill:#ffffff;stroke:#000000;stroke-width:0.0317324;stroke-linecap:square;stroke-opacity:1;paint-order:fill markers stroke"
     d="M 5.0169781,18.040288 C 4.7158409,17.890091 4.4946658,17.563721 4.4705019,17.233897 4.4597079,17.086565 4.5520338,16.487752 4.8742305,14.615359 5.3362091,11.930648 5.3435586,11.85953 5.1903831,11.556102 5.1298955,11.43628 4.6850339,10.983349 3.2618205,9.592556 1.2218857,7.5990891 1.2578138,7.640779 1.2323279,7.2375868 1.2147945,6.9602054 1.2963543,6.7220944 1.4805916,6.51279 1.72828,6.2314012 1.6594806,6.2469443 4.4616077,5.8393203 7.2782412,5.4295858 7.2343979,5.4394581 7.4853548,5.158464 7.5870233,5.044627 7.8819143,4.4733891 8.7292478,2.7489012 9.4886579,1.2033542 9.8778679,0.44489026 9.9600049,0.35049152 10.026489,0.27408262 10.161102,0.1726713 10.261462,0.12338829 c 0.243047,-0.11935144 0.606014,-0.12603412 0.847712,-0.0156074 0.330738,0.15110728 0.312757,0.12073614 1.553947,2.62467131 0.670878,1.3534065 1.191595,2.3661906 1.25184,2.4348064 0.05673,0.064617 0.191179,0.1599098 0.298765,0.211763 0.181716,0.08758 0.373969,0.1201203 2.706064,0.4580229 2.733376,0.3960448 2.72423,0.3940863 2.955919,0.6328767 0.204951,0.2112328 0.27537,0.3769791 0.288282,0.6785374 0.0097,0.2255402 4.16e-4,0.2833318 -0.06986,0.4368352 -0.08623,0.1883451 -0.148546,0.2514665 -2.742373,2.7776732 -1.177605,1.146905 -1.218559,1.199378 -1.23804,1.586271 -0.0079,0.156577 0.09032,0.792329 0.403964,2.61529 0.236574,1.374991 0.414381,2.49535 0.414381,2.611005 0,0.337945 -0.147734,0.600407 -0.452515,0.803932 l -0.189364,0.126453 h -0.330208 c -0.393117,0 -0.06233,0.152503 -2.851662,-1.314694 -1.082073,-0.569173 -2.037825,-1.055973 -2.123894,-1.081779 -0.194058,-0.05818 -0.378015,-0.0597 -0.561032,-0.0046 -0.07731,0.02327 -1.0113176,0.49991 -2.0755792,1.059208 -1.0642635,0.559281 -2.0744586,1.090009 -2.2448797,1.179377 l -0.3098569,0.162488 -0.3247902,-0.0013 c -0.2588122,-10e-4 -0.3504902,-0.01408 -0.4513039,-0.06436 z"
     id="path835" />
  <path
     style="fill:#ffffff;stroke:#000000;stroke-width:0.0317324;stroke-linecap:square;stroke-opacity:1;paint-order:fill markers stroke"
     d="m 5.1072303,18.039566 c -0.1294588,-0.03751 -0.4106988,-0.291171 -0.485591,-0.437972 -0.032216,-0.06315 -0.074898,-0.175439 -0.09485,-0.249536 -0.046638,-0.173202 -0.027274,-0.311618 0.3939556,-2.81603 0.4002348,-2.379585 0.4266554,-2.593726 0.3524392,-2.856525 L 5.2195883,11.489722 3.3371053,9.617513 C 2.0744147,8.361714 1.4245828,7.6930663 1.3633836,7.5866427 1.2848349,7.4500489 1.272236,7.394879 1.2728011,7.1899883 1.2735738,6.9098503 1.3425881,6.7310137 1.5303613,6.5225737 1.7554479,6.2727135 1.7988789,6.2630853 4.4612462,5.8728227 6.2886008,5.6049601 6.9211123,5.4995119 7.1565184,5.423484 7.4962793,5.3137535 7.5158197,5.2807163 8.9457551,2.3984029 9.5292347,1.2222854 9.9255794,0.46020303 9.9968408,0.37739939 10.161424,0.18615738 10.407204,0.07448688 10.673817,0.06981296 c 0.234361,-0.004108 0.478132,0.0694346 0.606468,0.18296477 0.154192,0.13640182 0.346405,0.49212656 1.417765,2.62382287 0.641844,1.2770854 1.140862,2.2323869 1.20568,2.3081117 0.237373,0.2773176 0.246594,0.2794602 2.822071,0.6557618 2.823707,0.4125704 2.860359,0.4201529 3.09592,0.6404925 0.202555,0.1894669 0.283978,0.3640443 0.306078,0.6562584 0.03105,0.4105351 0.0237,0.42042 -1.232518,1.6573437 -2.034407,2.0031653 -2.651387,2.6296933 -2.717309,2.7593633 -0.09268,0.182294 -0.112899,0.373958 -0.07198,0.682148 0.01965,0.147993 0.200872,1.254367 0.402712,2.45861 0.419714,2.504154 0.431689,2.629315 0.277807,2.90351 -0.06529,0.116329 -0.163776,0.224791 -0.295355,0.325257 l -0.197407,0.150729 -0.30756,-2.4e-5 -0.30756,-2.4e-5 -0.412521,-0.201289 C 15.039226,17.762141 14.296689,17.378236 13.61603,17.019728 12.935371,16.66122 12.059184,16.205617 11.668947,16.007278 l -0.70952,-0.360617 h -0.258316 -0.258316 l -0.9995692,0.512921 c -0.5497631,0.282107 -1.5993107,0.828242 -2.332328,1.213633 l -1.3327589,0.700712 -0.2855912,-0.0027 c -0.1570751,-0.0015 -0.330468,-0.01573 -0.3853174,-0.03163 z"
     id="path837" />
</svg>
