<?xml version="1.0" encoding="UTF-8" standalone="no"?>
<svg
   xmlns:dc="http://purl.org/dc/elements/1.1/"
   xmlns:cc="http://creativecommons.org/ns#"
   xmlns:rdf="http://www.w3.org/1999/02/22-rdf-syntax-ns#"
   xmlns:svg="http://www.w3.org/2000/svg"
   xmlns="http://www.w3.org/2000/svg"
   xmlns:sodipodi="http://sodipodi.sourceforge.net/DTD/sodipodi-0.dtd"
   xmlns:inkscape="http://www.inkscape.org/namespaces/inkscape"
   width="19"
   height="18.117043"
   viewBox="0 0 19 18.117043"
   fill="none"
   version="1.1"
   id="svg11"
   sodipodi:docname="star-g4.svg"
   inkscape:version="1.0.2-2 (e86c870879, 2021-01-15)">
  <metadata
     id="metadata15">
    <rdf:RDF>
      <cc:Work
         rdf:about="">
        <dc:format>image/svg+xml</dc:format>
        <dc:type
           rdf:resource="http://purl.org/dc/dcmitype/StillImage" />
        <dc:title></dc:title>
      </cc:Work>
    </rdf:RDF>
  </metadata>
  <sodipodi:namedview
     pagecolor="#ffffff"
     bordercolor="#666666"
     borderopacity="1"
     objecttolerance="10"
     gridtolerance="10"
     guidetolerance="10"
     inkscape:pageopacity="0"
     inkscape:pageshadow="2"
     inkscape:window-width="1538"
     inkscape:window-height="877"
     id="namedview13"
     showgrid="false"
     inkscape:zoom="16"
     inkscape:cx="19.995285"
     inkscape:cy="14.877874"
     inkscape:window-x="-8"
     inkscape:window-y="164"
     inkscape:window-maximized="1"
     inkscape:current-layer="svg11" />
  <path
     fill-rule="evenodd"
     clip-rule="evenodd"
     d="m 10.9173,0.985211 2.1429,4.342179 c 0.149,0.302 0.4372,0.51126 0.7705,0.55962 l 4.792,0.69634 c 0.8394,0.12207 1.1743,1.15332 0.5671,1.74504 l -3.4675,3.37991 c -0.2409,0.235 -0.3511,0.5739 -0.294,0.9056 l 0.8184,4.7726 c 0.1435,0.8358 -0.734,1.4731 -1.4847,1.0788 l -4.2859,-2.2531 c -0.298,-0.1566 -0.65429,-0.1566 -0.95233,0 l -4.2859,2.2531 C 4.48722,18.86 3.60975,18.2223 3.75322,17.3865 L 4.57164,12.6139 C 4.62871,12.2822 4.51853,11.9433 4.27756,11.7083 L 0.810084,8.32839 C 0.202908,7.73628 0.537806,6.70503 1.37723,6.58335 L 6.16924,5.88701 C 6.50255,5.83865 6.79068,5.62939 6.9397,5.32739 L 9.08265,0.985211 c 0.37493,-0.760555 1.45925,-0.760555 1.83465,0 z m 27,0 2.1429,4.342179 c 0.149,0.302 0.4372,0.51126 0.7705,0.55962 l 4.792,0.69634 c 0.8394,0.12207 1.1743,1.15332 0.5671,1.74504 l -3.4675,3.37991 c -0.2409,0.235 -0.3511,0.5739 -0.294,0.9056 l 0.8184,4.7726 c 0.1435,0.8358 -0.734,1.4731 -1.4847,1.0788 l -4.2859,-2.2531 c -0.298,-0.1566 -0.6543,-0.1566 -0.9523,0 l -4.2859,2.2531 c -0.7507,0.3947 -1.6282,-0.243 -1.4847,-1.0788 l 0.8184,-4.7726 c 0.0571,-0.3317 -0.0531,-0.6706 -0.294,-0.9056 L 27.8101,8.32839 C 27.2029,7.73628 27.5378,6.70503 28.3772,6.58335 l 4.792,-0.69634 c 0.3334,-0.04836 0.6215,-0.25762 0.7705,-0.55962 l 2.143,-4.342179 c 0.3749,-0.760555 1.4592,-0.760555 1.8346,0 z M 67.0602,5.32739 64.9173,0.985211 c -0.3754,-0.760555 -1.4597,-0.760555 -1.8346,0 l -2.143,4.342179 c -0.149,0.302 -0.4371,0.51126 -0.7705,0.55962 l -4.792,0.69634 c -0.8394,0.12168 -1.1743,1.15293 -0.5671,1.74504 l 3.4675,3.37991 c 0.2409,0.235 0.3511,0.5739 0.294,0.9056 l -0.8184,4.7726 c -0.1435,0.8358 0.734,1.4735 1.4847,1.0788 l 4.2859,-2.2531 c 0.298,-0.1566 0.6543,-0.1566 0.9523,0 l 4.2859,2.2531 c 0.7507,0.3943 1.6282,-0.243 1.4847,-1.0788 l -0.8184,-4.7726 c -0.0571,-0.3317 0.0531,-0.6706 0.294,-0.9056 L 73.1898,8.32839 C 73.797,7.73667 73.4621,6.70542 72.6227,6.58335 L 67.8307,5.88701 C 67.4974,5.83865 67.2092,5.62939 67.0602,5.32739 Z M 91.9173,0.985211 94.0602,5.32739 c 0.149,0.302 0.4372,0.51126 0.7705,0.55962 l 4.792,0.69634 c 0.8393,0.12207 1.1743,1.15332 0.5673,1.74504 l -3.4676,3.37991 c -0.241,0.235 -0.3512,0.5739 -0.2941,0.9056 l 0.8184,4.7726 c 0.1435,0.8358 -0.734,1.4731 -1.4847,1.0788 l -4.2859,-2.2531 c -0.298,-0.1566 -0.6543,-0.1566 -0.9523,0 l -4.2859,2.2531 c -0.7507,0.3947 -1.6282,-0.243 -1.4847,-1.0788 l 0.8184,-4.7726 c 0.0571,-0.3317 -0.0531,-0.6706 -0.294,-0.9056 L 81.8101,8.32839 C 81.2029,7.73628 81.5378,6.70503 82.3772,6.58335 l 4.792,-0.69634 c 0.3334,-0.04836 0.6215,-0.25762 0.7705,-0.55962 l 2.143,-4.342179 c 0.3749,-0.760555 1.4592,-0.760555 1.8346,0 z M 121.06,5.32739 118.917,0.985211 c -0.375,-0.760555 -1.459,-0.760555 -1.834,0 L 114.94,5.32739 c -0.149,0.302 -0.437,0.51126 -0.771,0.55962 l -4.792,0.69634 c -0.839,0.12168 -1.174,1.15293 -0.567,1.74504 l 3.468,3.37991 c 0.241,0.235 0.351,0.5739 0.294,0.9056 l -0.819,4.7726 c -0.143,0.8358 0.734,1.4735 1.485,1.0788 l 4.286,-2.2531 c 0.298,-0.1566 0.654,-0.1566 0.952,0 l 4.286,2.2531 c 0.751,0.3943 1.628,-0.243 1.485,-1.0788 l -0.819,-4.7726 c -0.057,-0.3317 0.053,-0.6706 0.294,-0.9056 l 3.468,-3.37991 c 0.607,-0.59172 0.272,-1.62297 -0.567,-1.74504 L 121.831,5.88701 C 121.497,5.83865 121.209,5.62939 121.06,5.32739 Z"
     fill="url(#paint0_linear_154_8306)"
     id="path2"
     clip-path="url(#clipPath888)"
     style="fill:url(#paint0_linear_154_8306)"
     transform="translate(-81.5,-0.41479475)" />
  <defs
     id="defs9">
    <linearGradient
       id="paint0_linear_154_8306"
       x1="-37.129601"
       y1="0.414812"
       x2="121.16"
       y2="45.646099"
       gradientUnits="userSpaceOnUse">
      <stop
         offset="0.0001"
         stop-color="#67AF28"
         id="stop4" />
      <stop
         offset="1"
         stop-color="#6CDA0D"
         id="stop6" />
    </linearGradient>
    <clipPath
       clipPathUnits="userSpaceOnUse"
       id="clipPath888">
      <rect
         style="fill:#ffffff;stroke:#000000;stroke-linecap:square;paint-order:fill markers stroke"
         id="rect890"
         width="19"
         height="18.17"
         x="81.5"
         y="0.36183748" />
    </clipPath>
  </defs>
</svg>
