<svg width="128" height="19" viewBox="0 0 128 19" fill="none" xmlns="http://www.w3.org/2000/svg">
<path fill-rule="evenodd" clip-rule="evenodd" d="M10.9173 0.985211L13.0602 5.32739C13.2092 5.62939 13.4974 5.83865 13.8307 5.88701L18.6227 6.58335C19.4621 6.70542 19.797 7.73667 19.1898 8.32839L15.7223 11.7083C15.4814 11.9433 15.3712 12.2822 15.4283 12.6139L16.2467 17.3865C16.3902 18.2223 15.5127 18.8596 14.762 18.4653L10.4761 16.2122C10.1781 16.0556 9.82181 16.0556 9.52377 16.2122L5.23787 18.4653C4.48722 18.86 3.60975 18.2223 3.75322 17.3865L4.57164 12.6139C4.62871 12.2822 4.51853 11.9433 4.27756 11.7083L0.810084 8.32839C0.202908 7.73628 0.537806 6.70503 1.37723 6.58335L6.16924 5.88701C6.50255 5.83865 6.79068 5.62939 6.9397 5.32739L9.08265 0.985211C9.45758 0.224656 10.5419 0.224656 10.9173 0.985211ZM37.9173 0.985211L40.0602 5.32739C40.2092 5.62939 40.4974 5.83865 40.8307 5.88701L45.6227 6.58335C46.4621 6.70542 46.797 7.73667 46.1898 8.32839L42.7223 11.7083C42.4814 11.9433 42.3712 12.2822 42.4283 12.6139L43.2467 17.3865C43.3902 18.2223 42.5127 18.8596 41.762 18.4653L37.4761 16.2122C37.1781 16.0556 36.8218 16.0556 36.5238 16.2122L32.2379 18.4653C31.4872 18.86 30.6097 18.2223 30.7532 17.3865L31.5716 12.6139C31.6287 12.2822 31.5185 11.9433 31.2776 11.7083L27.8101 8.32839C27.2029 7.73628 27.5378 6.70503 28.3772 6.58335L33.1692 5.88701C33.5026 5.83865 33.7907 5.62939 33.9397 5.32739L36.0827 0.985211C36.4576 0.224656 37.5419 0.224656 37.9173 0.985211ZM67.0602 5.32739L64.9173 0.985211C64.5419 0.224656 63.4576 0.224656 63.0827 0.985211L60.9397 5.32739C60.7907 5.62939 60.5026 5.83865 60.1692 5.88701L55.3772 6.58335C54.5378 6.70503 54.2029 7.73628 54.8101 8.32839L58.2776 11.7083C58.5185 11.9433 58.6287 12.2822 58.5716 12.6139L57.7532 17.3865C57.6097 18.2223 58.4872 18.86 59.2379 18.4653L63.5238 16.2122C63.8218 16.0556 64.1781 16.0556 64.4761 16.2122L68.762 18.4653C69.5127 18.8596 70.3902 18.2223 70.2467 17.3865L69.4283 12.6139C69.3712 12.2822 69.4814 11.9433 69.7223 11.7083L73.1898 8.32839C73.797 7.73667 73.4621 6.70542 72.6227 6.58335L67.8307 5.88701C67.4974 5.83865 67.2092 5.62939 67.0602 5.32739ZM91.9173 0.985211L94.0602 5.32739C94.2092 5.62939 94.4974 5.83865 94.8307 5.88701L99.6227 6.58335C100.462 6.70542 100.797 7.73667 100.19 8.32839L96.7224 11.7083C96.4814 11.9433 96.3712 12.2822 96.4283 12.6139L97.2467 17.3865C97.3902 18.2223 96.5127 18.8596 95.762 18.4653L91.4761 16.2122C91.1781 16.0556 90.8218 16.0556 90.5238 16.2122L86.2379 18.4653C85.4872 18.86 84.6097 18.2223 84.7532 17.3865L85.5716 12.6139C85.6287 12.2822 85.5185 11.9433 85.2776 11.7083L81.8101 8.32839C81.2029 7.73628 81.5378 6.70503 82.3772 6.58335L87.1692 5.88701C87.5026 5.83865 87.7907 5.62939 87.9397 5.32739L90.0827 0.985211C90.4576 0.224656 91.5419 0.224656 91.9173 0.985211ZM121.06 5.32739L118.917 0.985211C118.542 0.224656 117.458 0.224656 117.083 0.985211L114.94 5.32739C114.791 5.62939 114.503 5.83865 114.169 5.88701L109.377 6.58335C108.538 6.70503 108.203 7.73628 108.81 8.32839L112.278 11.7083C112.519 11.9433 112.629 12.2822 112.572 12.6139L111.753 17.3865C111.61 18.2223 112.487 18.86 113.238 18.4653L117.524 16.2122C117.822 16.0556 118.178 16.0556 118.476 16.2122L122.762 18.4653C123.513 18.8596 124.39 18.2223 124.247 17.3865L123.428 12.6139C123.371 12.2822 123.481 11.9433 123.722 11.7083L127.19 8.32839C127.797 7.73667 127.462 6.70542 126.623 6.58335L121.831 5.88701C121.497 5.83865 121.209 5.62939 121.06 5.32739Z" fill="url(#paint0_linear_154_8306)"/>
<defs>
<linearGradient id="paint0_linear_154_8306" x1="-37.1296" y1="0.414812" x2="121.16" y2="45.6461" gradientUnits="userSpaceOnUse">
<stop offset="0.0001" stop-color="#67AF28"/>
<stop offset="1" stop-color="#6CDA0D"/>
</linearGradient>
</defs>
</svg>
