<svg width="35" height="35" viewBox="0 0 35 35" fill="none" xmlns="http://www.w3.org/2000/svg">
<g clip-path="url(#clip0_10_1305)">
<path d="M17.3731 18.859C17.4093 18.859 17.4456 18.859 17.489 18.859C17.5035 18.859 17.518 18.859 17.5325 18.859C17.5543 18.859 17.5833 18.859 17.605 18.859C19.7286 18.8227 21.4464 18.0762 22.7148 16.6484C25.5052 13.5028 25.0413 8.11038 24.9906 7.59578C24.8094 3.73266 22.9829 1.88445 21.4754 1.02195C20.352 0.37689 19.0401 0.0289915 17.576 0H17.5253C17.518 0 17.5035 0 17.4963 0H17.4528C16.6483 0 15.0683 0.130462 13.5534 0.992959C12.0314 1.85546 10.1759 3.70367 9.99474 7.59578C9.944 8.11038 9.48014 13.5028 12.2706 16.6484C13.5317 18.0762 15.2495 18.8227 17.3731 18.859ZM11.9299 7.77697C11.9299 7.75523 11.9372 7.73349 11.9372 7.71899C12.1764 2.52226 15.8655 1.96417 17.4456 1.96417H17.4745C17.489 1.96417 17.5108 1.96417 17.5325 1.96417C19.4895 2.00766 22.8162 2.80493 23.0409 7.71899C23.0409 7.74073 23.0409 7.76248 23.0482 7.77697C23.0554 7.82771 23.5628 12.7563 21.2579 15.351C20.3447 16.3802 19.1271 16.8876 17.5253 16.9021C17.5108 16.9021 17.5035 16.9021 17.489 16.9021C17.4745 16.9021 17.4673 16.9021 17.4528 16.9021C15.8583 16.8876 14.6334 16.3802 13.7274 15.351C11.4298 12.7708 11.9227 7.82046 11.9299 7.77697Z" fill="#7184C8"/>
<path d="M32.3835 27.7812V27.803C32.3907 28.1799 32.398 30.115 32.0356 31.079C31.9631 31.2675 31.8254 31.4269 31.6587 31.5356L31.6556 31.5376C31.3964 31.7019 26.1926 35.0001 17.5108 35.0001C8.79165 35.0001 3.36299 31.5356 3.36299 31.5356C3.5 30.2944 4.57338 30.2944 4.57338 30.2944C6.3 30.1002 10.2265 33.0504 17.5036 33.0504C24.505 33.0504 29.1074 30.7456 30.2816 30.0788C30.3976 29.499 30.4411 28.4915 30.4338 27.8392C30.4266 27.7812 30.4266 27.7232 30.4266 27.658C30.3758 26.0055 30.1874 24.2008 28.4986 23.5992C24.8892 22.6715 22.0045 20.6638 21.8813 20.5768C21.4392 20.2652 21.3305 19.6563 21.6421 19.2142C21.9538 18.7721 22.5626 18.6634 23.0047 18.975C23.0337 18.9968 25.7517 20.8812 29.0205 21.7147C29.0422 21.722 29.0712 21.7292 29.0929 21.7365C32.231 22.8066 32.3323 26.149 32.3759 27.5898L32.3762 27.6C32.3762 27.6653 32.3835 27.7232 32.3835 27.7812Z" fill="#7184C8"/>
<path d="M4.57338 27.6508C4.57338 27.716 4.56613 27.774 4.56613 27.832C3.73904 28.2574 2.92173 27.9851 2.61646 27.7957V27.774C2.6237 27.716 2.6237 27.658 2.6237 27.5928L2.62404 27.5819C2.66769 26.1479 2.76941 22.8064 5.90699 21.7292C5.92873 21.722 5.95048 21.7147 5.97947 21.7075C9.26276 20.874 11.9662 18.9895 11.9952 18.9678C12.4373 18.6561 13.0462 18.7649 13.3578 19.207C13.6695 19.6491 13.5607 20.2579 13.1186 20.5696C12.9954 20.6493 10.1108 22.6642 6.50132 23.5919C4.81256 24.1935 4.62412 25.9982 4.57338 27.6508Z" fill="#7184C8"/>
</g>
<defs>
<clipPath id="clip0_10_1305">
<rect width="35" height="35" fill="white"/>
</clipPath>
</defs>
</svg>
