<svg width="57" height="56" viewBox="0 0 57 56" fill="none" xmlns="http://www.w3.org/2000/svg">
<g clip-path="url(#clip0_41_6862)">
<path d="M6.439 35.1918C6.439 32.8755 6.439 30.5855 6.439 28.2749C5.02071 28.2749 3.64693 28.2749 2.30737 28.2749C2.25032 29.449 2.22294 30.6037 2.12937 31.7561C2.04608 32.7785 1.82016 33.7815 1.36831 34.7468C1.21884 35.0651 1.0397 35.275 0.583294 35.1986C0.559333 35.1952 0.529666 35.2134 0.5 35.2248C0.5 36.0738 0.5 36.9181 0.5 37.7625C0.916471 37.7625 1.30898 37.7625 1.73344 37.7625C1.73344 37.1885 1.73344 36.6374 1.73344 36.0874C3.2316 36.0874 4.70009 36.0874 6.20052 36.0874C6.20052 36.6557 6.20052 37.2056 6.20052 37.767C6.61814 37.767 7.00152 37.767 7.39859 37.767C7.39859 36.909 7.39859 36.0623 7.39859 35.1918C7.06884 35.1918 6.76419 35.1918 6.439 35.1918ZM5.10058 35.1826C4.17408 35.1826 3.25784 35.1826 2.39637 35.1826C2.62686 34.6053 2.90869 34.037 3.07984 33.4471C3.42329 32.2616 3.42101 31.0453 3.43013 29.8324C3.43242 29.6453 3.43013 29.4559 3.43013 29.2505C3.99037 29.2505 4.5335 29.2505 5.10172 29.2505C5.10058 31.213 5.10058 33.1813 5.10058 35.1826Z" fill="#3D4F3C"/>
<path d="M27.1229 32.9107C26.9107 31.8507 26.1052 31.2072 24.8192 31.101C24.3126 31.0623 23.7969 31.0942 23.2503 31.0942C23.2503 30.1597 23.2503 29.2149 23.2503 28.2725C22.8624 28.2725 22.511 28.2725 22.1504 28.2725C22.1504 30.8694 22.1504 33.4481 22.1504 36.1181C22.9639 36.1181 23.7501 36.1649 24.526 36.1056C25.6887 36.0188 26.5753 35.5567 26.9906 34.6085C27.2325 34.0586 27.237 33.4858 27.1229 32.9107ZM25.4217 34.0996C25.2174 34.9668 24.3297 35.3753 23.2595 35.122C23.2595 34.159 23.2549 33.2119 23.2686 32.2626C23.2686 32.1998 23.3781 32.0972 23.4569 32.0823C24.5271 31.8553 25.2425 32.2113 25.4285 33.1047C25.4947 33.4253 25.497 33.7779 25.4217 34.0996Z" fill="#3D4F3C"/>
<path d="M28.3027 28.2649C28.3027 30.9052 28.3027 33.5261 28.3062 36.1482C28.6987 36.1482 29.0718 36.1482 29.4711 36.1482C29.4711 33.784 29.4711 31.4369 29.4711 29.0579C30.6715 29.0579 31.849 29.0579 33.0231 29.0579C33.0231 28.7761 33.0231 28.5262 33.0231 28.2649C31.4462 28.2649 29.8899 28.2649 28.3027 28.2649Z" fill="#3D4F3C"/>
<path d="M20.0796 28.421C20.0317 28.3628 19.9712 28.2749 19.9107 28.2727C19.5467 28.2578 19.1816 28.2635 18.7788 28.2635C18.7788 29.3464 18.7788 30.4144 18.7788 31.488C17.987 31.488 17.2339 31.488 16.4169 31.488C16.4169 30.4052 16.4169 29.3441 16.4169 28.2692C15.9753 28.2692 15.5726 28.2692 15.1572 28.2692C15.1572 30.8993 15.1572 33.5156 15.1572 36.1445C15.5851 36.1445 15.9947 36.1445 16.4329 36.1445C16.4329 36.0304 16.4329 35.9323 16.4329 35.8365C16.4329 34.9168 16.4317 34.0029 16.4329 33.0843C16.4329 32.5789 16.4329 32.5789 17.0376 32.5789C17.6104 32.5789 18.1832 32.5789 18.7879 32.5789C18.7879 33.7895 18.7879 34.9636 18.7879 36.1468C19.2318 36.1468 19.6426 36.1468 20.0682 36.1468C20.0739 36.0601 20.083 35.9859 20.083 35.9152C20.083 33.4483 20.083 30.9814 20.083 28.5168C20.083 28.4837 20.099 28.4427 20.0796 28.421Z" fill="#3D4F3C"/>
<path d="M37.5437 28.2476C37.3383 28.2408 37.2459 28.299 37.1729 28.4553C36.6788 29.5438 36.1722 30.6266 35.669 31.7117C35.4488 32.1864 35.2206 32.6611 34.9981 33.1357C34.9764 33.1334 34.9593 33.1289 34.9376 33.1266C34.9376 31.5109 34.9376 29.8952 34.9376 28.267C34.4949 28.267 34.0841 28.267 33.6631 28.267C33.6631 30.9016 33.6631 33.5271 33.6631 36.1537C34.0841 36.1537 34.4812 36.1537 34.9148 36.1537C35.7101 34.4353 36.5054 32.7101 37.3075 30.9701C37.3075 32.7021 37.3075 34.4262 37.3075 36.1492C37.8073 36.1492 38.2705 36.1492 38.7475 36.1492C38.7475 33.5145 38.7475 30.8982 38.7475 28.2533C38.3333 28.2533 37.9385 28.2647 37.5437 28.2476Z" fill="#3D4F3C"/>
<path d="M13.4107 35.0207C13.0193 35.1417 12.6667 35.2797 12.2948 35.3562C11.0864 35.6038 10.2968 35.2695 9.95224 34.3932C9.68639 33.72 9.69665 33.0251 9.68524 32.2914C11.0088 32.2914 12.2925 32.2914 13.6286 32.2914C13.5738 31.681 13.5681 31.0853 13.4574 30.5091C13.3171 29.7869 13.0387 29.0943 12.4625 28.5124C11.9524 27.9978 11.3386 27.8483 10.573 28.0559C9.77767 28.2716 9.29273 28.7714 8.9664 29.3636C8.01023 31.1013 7.92808 32.8916 8.66061 34.6967C8.88083 35.2421 9.25394 35.7167 9.87465 36.0202C10.9153 36.5326 12.5983 36.3546 13.6537 35.6163C13.5704 35.4109 13.486 35.2033 13.4107 35.0207ZM10.2809 29.4354C10.4668 29.1741 10.7144 28.9608 11.1298 28.9802C11.536 29.0018 11.7767 29.2141 11.9399 29.4902C12.3005 30.1098 12.3609 30.7738 12.3575 31.463C11.4493 31.463 10.5718 31.463 9.64759 31.463C9.71605 30.7339 9.84385 30.0504 10.2809 29.4354Z" fill="#3D4F3C"/>
<path d="M56.479 28.8605C56.4049 28.4326 56.0443 28.1759 55.5229 28.1701C55.362 28.1679 55.2022 28.1838 55.0459 28.1667C54.7378 28.1348 54.6568 28.2375 54.6591 28.4816C54.6739 29.6797 54.6694 30.8766 54.6648 32.0713C54.6614 32.6977 54.0498 33.3412 53.315 33.5044C51.0329 34.0053 48.7532 34.5142 46.4689 35.0106C46.2121 35.0665 45.9417 35.095 45.6804 35.0927C45.5663 35.0927 45.4089 35.006 45.3598 34.9216C45.3279 34.8656 45.4283 34.7299 45.507 34.6603C45.6108 34.5758 45.7432 34.5085 45.879 34.4617C46.2977 34.3122 46.7233 34.1765 47.1466 34.0361C48.8411 33.4725 50.5389 32.9156 52.231 32.3486C52.9944 32.0907 53.4063 31.5818 53.4188 30.9394C53.4576 28.8582 53.4382 26.777 53.4291 24.6935C53.4291 24.3637 53.2579 24.0887 52.8654 23.9461C52.4136 23.7841 52.0165 23.913 51.624 24.1001C49.2256 25.2446 46.8283 26.3867 44.4276 27.5289C43.7213 27.8655 43.3277 28.3527 43.3311 29.0465C43.3391 31.0147 43.3334 32.9795 43.3356 34.9455C43.3356 35.0436 43.3459 35.144 43.3767 35.2376C43.6129 35.9062 44.2256 36.2896 45.0723 36.2896C46.7598 36.2942 48.4531 36.2919 50.1418 36.2919C51.8248 36.2919 53.5021 36.2942 55.1851 36.2896C55.5502 36.2896 55.8868 36.2143 56.1607 35.9884C56.5155 35.7031 56.4973 35.3403 56.4973 34.9786C56.5007 33.0617 56.5007 31.1471 56.4984 29.2267C56.5018 29.1069 56.4996 28.9814 56.479 28.8605ZM49.4618 28.2455C49.6318 27.8039 50.0026 27.5278 50.5686 27.457C50.9428 27.4091 51.2691 27.6407 51.3228 27.9785C51.4038 28.4988 50.7534 29.1035 50.111 29.1012C49.5747 29.1012 49.2758 28.7258 49.4618 28.2455Z" fill="#3D4F3C"/>
<path d="M14.0021 24.498C14.0021 23.2018 14.0021 21.9216 14.0021 20.6311C13.2183 20.6311 12.4663 20.6311 11.671 20.6311C11.671 20.9209 11.6813 21.1811 11.6699 21.4424C11.6311 22.3506 11.598 23.26 11.2192 24.1295C11.1256 24.344 11.056 24.5733 10.6943 24.5254C10.6943 25.0092 10.6943 25.4702 10.6943 25.9288C10.9225 25.9288 11.1268 25.9288 11.3664 25.9288C11.3664 25.6151 11.3664 25.3161 11.3664 25.0172C12.2199 25.0172 13.0368 25.0172 13.8915 25.0172C13.8915 25.3332 13.8915 25.6322 13.8915 25.9243C14.1311 25.9243 14.333 25.9243 14.527 25.9243C14.527 25.4405 14.527 24.9795 14.527 24.5185C14.3444 24.5117 14.1893 24.5049 14.0021 24.498ZM13.2662 24.498C12.7345 24.498 12.2347 24.498 11.6961 24.498C12.3773 23.4437 12.2849 22.3107 12.334 21.1799C12.6455 21.1799 12.9467 21.1799 13.2662 21.1799C13.2662 22.2844 13.2662 23.3787 13.2662 24.498Z" fill="#3D4F3C"/>
<path d="M9.18567 20.6368C9.18567 21.2438 9.18567 21.8383 9.18567 22.4385C8.72584 22.4385 8.29796 22.4385 7.83698 22.4385C7.83698 21.8257 7.83698 21.2313 7.83698 20.6311C7.5871 20.6311 7.37031 20.6311 7.13184 20.6311C7.13184 22.1338 7.13184 23.6103 7.13184 25.0902C7.3783 25.0902 7.60079 25.0902 7.85866 25.0902C7.85866 24.4147 7.85866 23.7575 7.85866 23.0934C8.31507 23.0934 8.73725 23.0934 9.19023 23.0934C9.19023 23.7666 9.19023 24.425 9.19023 25.0925C9.44696 25.0925 9.66946 25.0925 9.90793 25.0925C9.90793 23.6 9.90793 22.1213 9.90793 20.6368C9.66375 20.6368 9.44126 20.6368 9.18567 20.6368Z" fill="#3D4F3C"/>
<path d="M20.783 22.3805C21.2234 21.8739 21.6445 21.357 22.0723 20.8447C22.1248 20.7819 22.1705 20.7157 22.2435 20.6199C22.1054 20.6199 22.0244 20.629 21.948 20.6187C21.6353 20.5765 21.4448 20.6781 21.2748 20.9017C20.8994 21.3946 20.4829 21.8647 20.0813 22.3428C20.0356 22.3964 19.9786 22.4432 19.869 22.5493C19.869 21.8636 19.869 21.2543 19.869 20.6324C19.6226 20.6324 19.4069 20.6324 19.1719 20.6324C19.1719 22.0998 19.1719 23.5432 19.1719 24.9854C19.4115 24.9854 19.6271 24.9854 19.8793 24.9854C19.8793 24.4685 19.8679 23.9619 19.8862 23.4576C19.893 23.2842 19.9729 23.1107 20.0185 22.9373C20.1543 23.0206 20.2125 23.0948 20.2638 23.1723C20.6278 23.7189 20.9872 24.2654 21.3546 24.8086C21.4026 24.8804 21.4847 24.9774 21.5623 24.9877C21.77 25.0139 21.9833 24.9968 22.2401 24.9968C21.7289 24.2187 21.252 23.4838 20.7636 22.7524C20.6712 22.6155 20.6643 22.5163 20.783 22.3805Z" fill="#3D4F3C"/>
<path d="M25.6067 24.4501C24.3961 24.854 23.5608 24.4889 23.3418 23.4346C23.2265 22.8881 23.2676 22.3381 23.4673 21.8052C23.7365 21.0773 24.2717 20.8605 25.1617 21.1012C25.1788 21.1058 25.1993 21.0978 25.2301 21.0932C25.3191 20.9826 25.4104 20.8662 25.5097 20.7418C24.7749 20.2592 23.7674 20.3744 23.2197 20.9837C22.7963 21.4538 22.6309 21.9981 22.5773 22.5697C22.5168 23.2258 22.5978 23.8625 23.0314 24.4387C23.4855 25.0412 24.2728 25.3241 25.0829 25.1347C25.6546 25.0001 25.7185 24.9408 25.6067 24.4501Z" fill="#3D4F3C"/>
<path d="M18.0503 24.5107C17.8415 24.5712 17.6407 24.6442 17.4308 24.6864C16.8454 24.8051 16.4278 24.675 16.2053 24.3065C15.944 23.8752 15.9566 23.4119 15.9725 22.927C16.7233 22.927 17.4444 22.927 18.1804 22.927C18.2283 22.2013 18.1393 21.5213 17.6795 20.9028C17.2756 20.3597 16.5761 20.273 16.0205 20.7191C15.8117 20.8857 15.6359 21.0991 15.5127 21.3159C15.1681 21.9195 15.0369 22.5699 15.1179 23.2294C15.1693 23.639 15.2822 24.0555 15.4568 24.4411C15.7101 25.0082 16.2954 25.298 16.9721 25.2261C17.2995 25.1919 17.627 25.0995 17.9351 24.9922C18.2785 24.8736 18.2877 24.764 18.0503 24.5107ZM16.3388 21.2406C16.5875 20.9314 16.9983 20.9405 17.2185 21.2645C17.465 21.624 17.4947 22.021 17.4844 22.4375C16.9492 22.4375 16.4597 22.4375 15.9463 22.4375C15.9703 22.0016 16.0535 21.5977 16.3388 21.2406Z" fill="#3D4F3C"/>
<path d="M5.41229 18.2329C5.0232 18.2329 4.6364 18.2341 4.24845 18.2329C3.70076 18.2307 3.24664 18.4018 2.87352 18.7316C1.59216 19.8657 1.92876 22.02 3.63344 22.4798C3.06065 23.3401 2.49128 24.1982 1.89453 25.0973C2.13757 25.0973 2.32469 25.0847 2.50726 25.1007C2.74915 25.1224 2.87352 25.0437 2.98534 24.8645C3.41208 24.1719 3.86507 23.4896 4.30778 22.8027C4.51203 22.4878 4.53713 22.4787 5.01864 22.5711C5.01864 23.4017 5.01864 24.2392 5.01864 25.0756C5.3096 25.0756 5.56176 25.0756 5.83561 25.0756C5.83561 24.9318 5.83561 24.8109 5.83561 24.6877C5.83561 22.6498 5.83561 20.6108 5.83561 18.5718C5.83561 18.2329 5.83447 18.2341 5.41229 18.2329ZM4.99582 21.8522C4.44014 21.8465 3.8605 21.9846 3.43719 21.5681C2.95225 21.0923 2.81419 20.5424 2.99333 19.9388C3.00816 19.8908 3.03213 19.8452 3.05152 19.7996C3.41209 18.97 3.88789 18.7395 4.99582 18.8776C4.99582 19.8692 4.99582 20.847 4.99582 21.8522Z" fill="#3D4F3C"/>
</g>
<defs>
<clipPath id="clip0_41_6862">
<rect width="56" height="56" fill="white" transform="translate(0.5)"/>
</clipPath>
</defs>
</svg>
