<svg width="60" height="60" viewBox="0 0 60 60" fill="none" xmlns="http://www.w3.org/2000/svg">
<g clip-path="url(#clip0_50_2405)">
<path d="M53.8901 29.2927C53.8901 42.3435 43.3103 52.9233 30.2595 52.9233C17.2087 52.9233 6.62891 42.3435 6.62891 29.2927C6.62891 16.2419 17.2087 5.66211 30.2595 5.66211C43.3103 5.66211 53.8901 16.2419 53.8901 29.2927Z" fill="#6398FF"/>
<path d="M36.1674 48.0001C23.1166 48.0001 12.5368 37.4203 12.5368 24.3695C12.5368 18.4608 14.7057 13.0582 18.2909 8.91504C11.3127 13.0225 6.62891 20.6099 6.62891 29.2928C6.62891 42.3436 17.2087 52.9234 30.2595 52.9234C37.4015 52.9234 43.8033 49.7552 48.136 44.7473C44.6259 46.8136 40.5354 48.0001 36.1674 48.0001Z" fill="#2157C2"/>
<path d="M30.2613 52.9233C36.2901 52.9233 41.7901 50.6647 45.9649 46.9486L37.4491 35.5943C37.2633 35.3462 36.9712 35.2001 36.6613 35.2001H29.2767L28.2921 29.2927C28.2921 29.2927 27.3074 26.3388 26.3232 26.3388C25.6105 26.3388 24.8982 24.2775 24.559 23.1372C24.4308 22.7073 24.6121 22.2455 24.9966 22.0147L29.2767 19.4467C29.2767 19.4467 38.1385 16.4928 39.1232 15.5081C39.6125 15.0188 41.5617 12.3395 43.3982 9.64784C39.6413 7.13107 35.1232 5.66211 30.2613 5.66211C21.5149 5.66211 13.879 10.4141 9.79297 17.4774H14.5075L18.446 20.4313L23.3693 29.2927L24.3123 37.7796C24.3388 38.0209 24.2756 38.2635 24.1347 38.4608L19.4307 45.0466L13.6986 46.1452C17.9631 50.337 23.8096 52.9233 30.2613 52.9233Z" fill="#74D8F3"/>
<path d="M9.79297 17.4773H13.5608C14.5336 14.2826 16.1632 11.3749 18.2946 8.91211C14.7748 10.9835 11.8387 13.9406 9.79297 17.4773Z" fill="#3DB5D4"/>
<path d="M21.1602 42.623L19.4294 45.0464L13.6973 46.1451C17.9618 50.3368 23.8083 52.9232 30.2601 52.9232C36.2888 52.9232 41.7888 50.6646 45.9637 46.9485L45.3612 46.1451C42.5355 47.3394 39.4286 47.9999 36.168 47.9999C30.4693 47.9999 25.2416 45.9826 21.1602 42.623Z" fill="#3DB5D4"/>
<path d="M45.0303 16.4927L44.183 21.5775C44.1038 22.0522 43.6932 22.4001 43.2116 22.4001H38.9453C38.4761 22.4001 38.0719 22.7316 37.9799 23.1916L37.2456 26.8615C37.1875 27.1536 37.2639 27.4566 37.4548 27.685L41.9015 33.0212C42.0141 33.1562 42.1602 33.2588 42.3259 33.3178C43.0587 33.5787 45.2043 34.3894 46.015 35.2001C46.5208 35.706 49.1063 37.7714 51.5004 39.6606C53.0316 36.5299 53.8917 33.012 53.8917 29.2927C53.8917 22.971 51.4093 17.2288 47.3663 12.9885L45.0303 16.4927Z" fill="#74D8F3"/>
<path d="M35.3931 58.3369C34.966 58.3369 34.5828 58.0389 34.4908 57.6045C34.3855 57.106 34.7041 56.6162 35.2031 56.5104C35.5121 56.445 35.8243 56.3735 36.1314 56.2976C36.6258 56.1758 37.1266 56.4765 37.2493 56.9714C37.3715 57.4662 37.0699 57.967 36.575 58.0897C36.2477 58.1707 35.9145 58.2472 35.5849 58.3168C35.5203 58.3305 35.4562 58.3369 35.3931 58.3369Z" fill="#B6ABB6"/>
<path d="M29.4603 58.9538C28.9508 58.9538 28.5351 58.5405 28.5351 58.0305C28.5351 57.521 28.9462 57.1077 29.4561 57.1077C30.1007 57.1077 30.7479 57.0857 31.3847 57.0417C31.8933 57.006 32.3336 57.391 32.3684 57.8996C32.4037 58.4082 32.0196 58.8485 31.511 58.8838C30.8322 58.9305 30.1423 58.9538 29.4603 58.9538ZM25.4846 58.6792C25.4425 58.6792 25.3995 58.6764 25.3564 58.67C24.6803 58.5762 23.9987 58.4567 23.3304 58.3152C22.8319 58.21 22.5128 57.7201 22.6185 57.2212C22.7238 56.7227 23.2132 56.4036 23.7126 56.5089C24.3388 56.6417 24.9774 56.7534 25.6109 56.8417C26.1159 56.9122 26.4683 57.3782 26.3978 57.8836C26.3337 58.345 25.9382 58.6792 25.4846 58.6792ZM19.6898 57.2386C19.585 57.2386 19.4783 57.2207 19.3744 57.1827C18.7317 56.9488 18.0894 56.6888 17.4646 56.41C16.9991 56.2022 16.7903 55.6566 16.9981 55.191C17.2055 54.7255 17.7512 54.5163 18.2172 54.7246C18.8022 54.9855 19.4041 55.229 20.0056 55.4478C20.4849 55.6222 20.7317 56.1523 20.5572 56.6311C20.4208 57.006 20.067 57.2386 19.6898 57.2386ZM14.3239 54.617C14.1568 54.617 13.9874 54.5712 13.835 54.476C13.2573 54.1144 12.6842 53.7266 12.1303 53.3238C11.7183 53.024 11.6272 52.4467 11.9271 52.0343C12.2269 51.6223 12.8041 51.5307 13.2166 51.831C13.7357 52.2087 14.2735 52.5722 14.8151 52.9114C15.2467 53.1819 15.3777 53.7513 15.1071 54.1835C14.9323 54.4636 14.6315 54.617 14.3239 54.617ZM9.6236 50.9384C9.39288 50.9384 9.16171 50.8523 8.98273 50.6793C8.49201 50.2051 8.01136 49.7075 7.55405 49.2003C7.21302 48.8217 7.24323 48.2381 7.6218 47.8966C8.00037 47.5555 8.58402 47.5858 8.92551 47.9643C9.35397 48.4404 9.80487 48.9069 10.2654 49.3518C10.6316 49.7056 10.6421 50.2902 10.2878 50.6569C10.1065 50.8441 9.86529 50.9384 9.6236 50.9384ZM5.78709 46.3699C5.49092 46.3699 5.20024 46.2276 5.02171 45.9634C4.63948 45.3986 4.27281 44.8126 3.93087 44.2217C3.67543 43.7804 3.82604 43.2155 4.26732 42.9601C4.7086 42.7051 5.27303 42.8552 5.52846 43.2965C5.84935 43.8504 6.19313 44.4002 6.5511 44.9298C6.83674 45.3519 6.72596 45.9259 6.30345 46.2115C6.14506 46.3187 5.96516 46.3699 5.78709 46.3699ZM2.98238 41.1075C2.61709 41.1075 2.27148 40.8891 2.12637 40.5303C1.87002 39.8976 1.6329 39.2472 1.42187 38.5976C1.2644 38.1128 1.52945 37.5919 2.01422 37.4344C2.49899 37.2769 3.01992 37.542 3.17739 38.0268C3.37514 38.6351 3.59716 39.2449 3.83748 39.8377C4.02883 40.3105 3.8004 40.8484 3.32799 41.0397C3.21493 41.0855 3.09774 41.1075 2.98238 41.1075ZM1.33673 35.3713C0.896819 35.3713 0.507263 35.0559 0.428528 34.6077C0.310883 33.9357 0.214753 33.2505 0.144258 32.5707C0.0911572 32.0639 0.459198 31.6098 0.966398 31.5572C1.47223 31.505 1.92724 31.8726 1.98034 32.3798C2.04672 33.0161 2.13644 33.6588 2.24676 34.2887C2.33511 34.7908 1.99957 35.2692 1.4974 35.3571C1.44339 35.3667 1.38983 35.3713 1.33673 35.3713ZM0.923826 29.4185C0.913298 29.4185 0.902769 29.4185 0.892241 29.4181C0.382294 29.4007 -0.016417 28.9741 0.000520233 28.4646C0.0238661 27.7811 0.0710156 27.0913 0.141053 26.4133C0.193238 25.9066 0.647338 25.5381 1.15362 25.5903C1.66082 25.6425 2.02978 26.0961 1.97714 26.6033C1.91168 27.2387 1.86727 27.886 1.84576 28.5268C1.82882 29.0258 1.41913 29.4185 0.923826 29.4185ZM57.853 27.3591C57.3865 27.3591 56.9864 27.0071 56.9361 26.5333C56.8688 25.8961 56.7781 25.2538 56.6664 24.6244C56.5776 24.1227 56.9127 23.6434 57.4144 23.5546C57.9166 23.4653 58.3954 23.8004 58.4842 24.3026C58.6032 24.9741 58.6998 25.6589 58.7721 26.3387C58.8257 26.8459 58.4581 27.3005 57.9514 27.354C57.918 27.3572 57.8855 27.3591 57.853 27.3591ZM1.74459 23.5093C1.67089 23.5093 1.59628 23.5001 1.52166 23.4818C1.02682 23.3591 0.725158 22.8588 0.847838 22.364C1.01172 21.7007 1.20215 21.0351 1.41226 20.386C1.56973 19.9008 2.08975 19.6348 2.57497 19.7923C3.05974 19.9493 3.3257 20.4698 3.16869 20.955C2.9714 21.5633 2.79333 22.1868 2.63952 22.808C2.53561 23.2282 2.15887 23.5093 1.74459 23.5093ZM56.6074 21.524C56.2187 21.524 55.8576 21.2768 55.7303 20.8872C55.5321 20.2802 55.3092 19.6723 55.0684 19.08C54.8766 18.6076 55.1041 18.0692 55.576 17.8774C56.0485 17.6852 56.5872 17.9127 56.779 18.3851C57.0359 19.0173 57.2734 19.6664 57.4854 20.3141C57.6438 20.7984 57.3792 21.3198 56.8944 21.4782C56.7992 21.5093 56.7026 21.524 56.6074 21.524ZM3.78118 17.8985C3.64522 17.8985 3.50744 17.8683 3.37697 17.8047C2.91875 17.5813 2.72878 17.0288 2.95217 16.5705C3.25155 15.9567 3.57702 15.3451 3.91896 14.7532C4.17394 14.3115 4.73836 14.1604 5.1801 14.4154C5.62138 14.6704 5.77244 15.2348 5.51747 15.6765C5.19704 16.2313 4.89217 16.8044 4.61156 17.3799C4.45134 17.7076 4.12313 17.8985 3.78118 17.8985ZM54.1716 16.083C53.8535 16.083 53.5436 15.9182 53.3724 15.6234C53.051 15.07 52.7063 14.5211 52.3475 13.9915C52.0614 13.5699 52.1717 12.9959 52.5933 12.7098C53.0153 12.4237 53.5894 12.5335 53.8755 12.9556C54.2582 13.5205 54.6262 14.1059 54.9691 14.696C55.2249 15.1373 55.0753 15.7022 54.6344 15.958C54.4884 16.0427 54.3291 16.083 54.1716 16.083ZM6.94569 12.8357C6.74656 12.8357 6.54652 12.772 6.37806 12.6402C5.97615 12.3262 5.90474 11.7462 6.21876 11.3443C6.63899 10.8064 7.08393 10.2763 7.54078 9.76864C7.88181 9.38962 8.46546 9.35849 8.84449 9.69952C9.22351 10.0406 9.25418 10.6242 8.91315 11.0032C8.48468 11.4793 8.06766 11.9764 7.67353 12.4809C7.4918 12.7139 7.21989 12.8357 6.94569 12.8357ZM50.6537 11.2642C50.4015 11.2642 50.1507 11.1616 49.9685 10.9597C49.5395 10.485 49.0877 10.0186 48.6268 9.57455C48.2596 9.22116 48.2486 8.6366 48.6025 8.26947C48.9559 7.90235 49.5405 7.89136 49.9076 8.24521C50.3992 8.71854 50.8808 9.21567 51.3385 9.72241C51.68 10.1005 51.6503 10.6842 51.2722 11.0261C51.0955 11.1859 50.8744 11.2642 50.6537 11.2642ZM11.0898 8.54001C10.8266 8.54001 10.5657 8.42832 10.383 8.21134C10.0548 7.82132 10.1052 7.23905 10.4952 6.91084C11.0179 6.47093 11.5627 6.04383 12.1134 5.64238C12.5254 5.34254 13.1026 5.43318 13.4033 5.84516C13.7036 6.25715 13.613 6.83439 13.201 7.13468C12.6847 7.51096 12.1738 7.91105 11.6835 8.32349C11.5105 8.46906 11.2995 8.54001 11.0898 8.54001ZM46.2134 7.27567C46.0253 7.27567 45.8358 7.21799 45.6719 7.09943C45.1533 6.7227 44.6149 6.36015 44.072 6.0214C43.6394 5.75132 43.5081 5.18187 43.7777 4.74974C44.0478 4.31715 44.6172 4.18486 45.0498 4.4554C45.6289 4.81657 46.2029 5.20338 46.7559 5.6053C47.1688 5.90467 47.2603 6.48191 46.961 6.89436C46.7806 7.14338 46.4991 7.27567 46.2134 7.27567ZM16.0295 5.19652C15.6999 5.19652 15.3809 5.01936 15.2147 4.70808C14.9744 4.2581 15.1442 3.69918 15.5942 3.45885C16.1966 3.13704 16.8173 2.83309 17.4399 2.55477C17.9054 2.34695 18.4511 2.55523 18.6589 3.02077C18.8672 3.48632 18.6584 4.03197 18.1934 4.24025C17.6102 4.50072 17.0284 4.7859 16.4639 5.08711C16.3252 5.16127 16.1765 5.19652 16.0295 5.19652ZM41.0421 4.29335C40.9167 4.29335 40.7894 4.26772 40.6677 4.21324C40.0826 3.95369 39.4807 3.71108 38.8778 3.49227C38.3985 3.31878 38.1509 2.78914 38.3244 2.30987C38.4983 1.83059 39.0279 1.58294 39.5068 1.75689C40.1504 1.99035 40.7931 2.24899 41.417 2.52639C41.883 2.73376 42.0927 3.27895 41.8858 3.74495C41.7333 4.08873 41.3955 4.29335 41.0421 4.29335ZM21.5565 2.9544C21.1555 2.9544 20.7861 2.69073 20.6699 2.28606C20.5289 1.79626 20.8118 1.28494 21.302 1.14395C21.958 0.95535 22.6295 0.787351 23.2974 0.645445C23.7968 0.540159 24.2866 0.857846 24.3924 1.35635C24.4986 1.85485 24.18 2.34512 23.6815 2.45132C23.0557 2.58453 22.4267 2.74154 21.812 2.91823C21.7268 2.94295 21.6408 2.9544 21.5565 2.9544ZM35.3604 2.45635C35.2976 2.45635 35.2336 2.44994 35.1695 2.43667C34.5437 2.30529 33.9047 2.19405 33.2707 2.10662C32.7653 2.03704 32.4124 1.57104 32.4824 1.06613C32.5515 0.560759 33.0175 0.208282 33.5229 0.277862C34.1995 0.371245 34.8815 0.489806 35.549 0.629881C36.0479 0.734708 36.3674 1.22406 36.2626 1.72302C36.1715 2.15789 35.7879 2.45635 35.3604 2.45635ZM27.4319 1.91711C26.9513 1.91711 26.5461 1.54541 26.5118 1.0588C26.4761 0.55023 26.8597 0.108947 27.3683 0.0732419C28.0481 0.0256347 28.7393 0.000915524 29.4227 0H29.4236C29.9331 0 30.3465 0.412444 30.3469 0.921933C30.3474 1.43188 29.935 1.8457 29.425 1.84615C28.7837 1.84707 28.135 1.86996 27.4974 1.91482C27.4754 1.91665 27.4534 1.91711 27.4319 1.91711Z" fill="#67AF28"/>
<path d="M57.9475 32.3694C57.9264 32.3694 57.9054 32.3685 57.8839 32.3672C57.3753 32.3328 56.9912 31.8925 57.0256 31.3834C57.0471 31.068 57.0636 30.7476 57.0741 30.4317C57.0915 29.9223 57.5168 29.5249 58.0281 29.5405C58.5376 29.5579 58.9367 29.985 58.9193 30.4945C58.9079 30.8314 58.8905 31.1729 58.8676 31.5093C58.8342 31.9964 58.4286 32.3694 57.9475 32.3694Z" fill="#B6ABB6"/>
<path d="M37.1872 36.9185L51.2859 39.5291C51.4654 39.5625 51.6118 39.693 51.6663 39.8674C51.7203 40.0418 51.6736 40.2323 51.5441 40.3613L45.4522 46.4533C45.2741 46.6318 44.9898 46.6464 44.7939 46.4876L35.5691 39.0032C35.5558 38.9922 35.543 38.9807 35.5311 38.9688C35.4455 38.8832 35.3937 38.7683 35.3873 38.6461C35.3805 38.5069 35.4326 38.371 35.5311 38.2726L36.7496 37.054C36.8641 36.9396 37.0279 36.8888 37.1872 36.9185Z" fill="#67AF28"/>
<path d="M55.5193 43.7203C55.6941 43.7748 55.8241 43.9213 55.8575 44.1007L58.4682 58.1994C58.4979 58.3587 58.4471 58.5226 58.3322 58.637L57.1141 59.8556C57.0152 59.9544 56.8793 60.0066 56.7401 59.9993C56.6179 59.9929 56.5034 59.9412 56.4178 59.8556C56.4059 59.8437 56.3945 59.8309 56.3835 59.8176L48.8991 50.5927C48.7402 50.3968 48.7549 50.1125 48.9334 49.9345L55.0253 43.8426C55.1544 43.713 55.3448 43.6663 55.5193 43.7203Z" fill="#67AF28"/>
<path d="M37.316 49.2703L44.9749 49.9666C45.1648 49.9835 45.3283 50.1094 45.3933 50.2889C45.4583 50.4688 45.4134 50.6697 45.2784 50.8048L41.1008 54.9819C40.9305 55.1521 40.6623 55.1746 40.4664 55.0345L35.593 51.5532C35.5706 51.5376 35.55 51.5198 35.5312 51.501C35.4493 51.4191 35.398 51.3106 35.3884 51.1934C35.3765 51.0492 35.4287 50.9068 35.5312 50.8048L36.9237 49.4123C37.0267 49.3093 37.1709 49.2571 37.316 49.2703Z" fill="#67AF28"/>
<path d="M45.0972 49.9935C45.2767 50.0585 45.4025 50.2219 45.4195 50.4119L46.1157 58.0707C46.129 58.2159 46.0768 58.3601 45.9738 58.463L44.5813 59.8556C44.4788 59.9581 44.3364 60.0103 44.1927 59.9984C44.0755 59.9888 43.967 59.9375 43.885 59.8556C43.8658 59.8368 43.8484 59.8162 43.8324 59.7938L40.3516 54.9204C40.2115 54.7245 40.2339 54.4562 40.4038 54.2859L44.5813 50.1084C44.7163 49.9733 44.9173 49.9285 45.0972 49.9935Z" fill="#67AF28"/>
<path d="M59.55 35.8358C60.7035 36.9894 59.311 40.2523 58.1575 41.4059L44.929 54.6339C43.7754 55.7875 41.9055 55.7875 40.7519 54.6339C39.5983 53.4803 39.5983 51.6104 40.7519 50.4568L53.9799 37.2284C55.1339 36.0748 58.3964 34.6823 59.55 35.8358Z" fill="#F0EEF0"/>
<path d="M43.5376 53.2414L56.7656 40.0134C57.6752 39.1038 58.7317 36.8846 58.5738 35.4202C58.967 35.4627 59.3067 35.5918 59.5506 35.8358C60.7042 36.9894 59.3117 40.2523 58.1581 41.4059L44.9297 54.6339C43.7761 55.7874 41.9061 55.7874 40.7526 54.6339C40.5081 54.3899 40.3163 54.1134 40.1758 53.8186C41.2735 54.3427 42.628 54.1509 43.5376 53.2414Z" fill="#D3CCD3"/>
<path d="M40.7522 55.6187C40.5 55.6187 40.2482 55.5226 40.056 55.3303C39.6714 54.9458 39.6714 54.3223 40.056 53.9378L43.5368 50.4565C43.9213 50.0724 44.5448 50.0724 44.9293 50.4565C45.3138 50.8415 45.3138 51.4645 44.9293 51.849L41.448 55.3303C41.2562 55.5226 41.004 55.6187 40.7522 55.6187Z" fill="#67AF28"/>
</g>
<defs>
<clipPath id="clip0_50_2405">
<rect width="60" height="60" fill="white"/>
</clipPath>
</defs>
</svg>
