<svg width="70" height="70" viewBox="0 0 70 70" fill="none" xmlns="http://www.w3.org/2000/svg">
<path d="M62.3071 40.4417C65.0396 37.3284 65.0396 32.6715 62.3071 29.5582C60.8129 27.8559 60.0845 25.6135 60.2926 23.3581C60.6734 19.2313 57.9347 15.4611 53.8922 14.5485C51.6814 14.0494 49.7732 12.663 48.6153 10.7148C46.4989 7.15394 42.0671 5.71527 38.2609 7.34969C36.18 8.24323 33.8199 8.24323 31.739 7.34969C27.9328 5.71527 23.501 7.15394 21.3846 10.7148C20.2267 12.663 18.3185 14.0494 16.1077 14.5485C12.0652 15.4611 9.32651 19.2313 9.70726 23.3581C9.91537 25.6135 9.18697 27.8559 7.69282 29.5582C4.9603 32.6715 4.9603 37.3284 7.69282 40.4417C9.18697 42.144 9.91537 44.3864 9.70726 46.6419C9.32651 50.7686 12.0652 54.5388 16.1077 55.4515C18.3185 55.9506 20.2267 57.3369 21.3846 59.2852C23.501 62.846 27.9328 64.2847 31.739 62.6502C33.8199 61.7567 36.18 61.7567 38.2609 62.6502C42.0671 64.2847 46.4989 62.846 48.6153 59.2852C49.7732 57.3369 51.6814 55.9506 53.8922 55.4515C57.9347 54.5388 60.6734 50.7686 60.2926 46.6419C60.0845 44.3864 60.8129 42.144 62.3071 40.4417ZM37.9166 46.6666C37.9166 48.2775 36.6108 49.5833 35 49.5833C33.3891 49.5833 32.0833 48.2775 32.0833 46.6666C32.0833 45.0558 33.3891 43.75 35 43.75C36.6108 43.75 37.9166 45.0558 37.9166 46.6666ZM37.9166 35C37.9166 36.6108 36.6108 37.9166 35 37.9166C33.3891 37.9166 32.0833 36.6108 32.0833 35V23.3333C32.0833 21.7225 33.3891 20.4166 35 20.4166C36.6108 20.4166 37.9166 21.7225 37.9166 23.3333V35Z" fill="#8BC34A"/>
</svg>
