<svg width="70" height="70" viewBox="0 0 70 70" fill="none" xmlns="http://www.w3.org/2000/svg">
<g clip-path="url(#clip0_160_7700)">
<path d="M29.717 58.5577C29.6261 61.3944 29.0566 64.8398 28.3962 65.9615H31.6981L32.3585 58.5577C31.4332 57.4518 30.61 57.823 29.717 58.5577Z" fill="#66290B"/>
<path fill-rule="evenodd" clip-rule="evenodd" d="M13.2076 70C12.1069 69.3269 10.566 67.5769 13.2076 65.9615H21.7924C23.1131 63.7179 25.4905 58.1539 24.4339 53.8462H24.353C21.6421 53.8475 14.2535 53.8513 13.2074 41.0577L23.1131 32.9808L50.849 36.3462L52.8301 41.0577C53.4905 47.7885 48.8678 51.1539 44.2452 50.4808C44.2452 61.25 46.4465 65.2885 47.5471 65.9615H55.4716C56.5722 66.6346 58.1131 68.3846 55.4716 70H13.2076ZM25.0942 50.4808C22.8929 50.9294 18.2263 50.2115 17.1697 43.75C18.4905 43.75 21.5282 43.2115 23.1131 41.0577L25.0942 42.4039V50.4808ZM43.5848 47.1154V41.0577C44.4654 42.0308 46.8867 43.9319 49.5282 43.75C48.4716 46.9808 45.1257 47.3398 43.5848 47.1154ZM29.7169 58.5577C29.626 61.3944 29.0565 64.8398 28.3961 65.9615H31.698L32.3584 58.5577C31.4331 57.4518 30.6098 57.823 29.7169 58.5577ZM35.0447 50.6201V43.7107L37.5471 42.5977V49.9808C37.5471 50.3853 37.3788 50.7845 37.0435 51.0008C36.3998 51.4162 35.9898 51.3033 35.0447 50.6201Z" fill="#904C2A"/>
<path d="M35.0447 43.7107V50.6201C35.9898 51.3033 36.3998 51.4162 37.0435 51.0008C37.3788 50.7845 37.5471 50.3854 37.5471 49.9808V42.5977L35.0447 43.7107Z" fill="#66290B"/>
<path d="M43.5851 37.6928C37.2455 47.3851 26.8555 41.7313 22.4531 37.6928C18.7552 45.2316 13.4279 41.731 11.2265 39.0384C2.24524 46.5769 -1.98117 35 3.9625 30.2884C2.3776 22.7496 6.82413 21.3139 9.24552 21.5384C9.77382 13.4615 14.7487 12.3397 17.17 12.7884C19.8115 3.6346 25.3147 4.48724 27.7361 6.0578C32.4908 -2.55759 38.3021 0.673057 39.6229 4.03876C44.9059 0.807873 48.8681 4.03869 49.5285 8.07738C58.5097 6.462 62.0757 12.7888 60.0946 18.1735C64.321 19.2504 64.9374 24.4556 64.7172 26.9236C77.9248 42.0005 57.4531 49.8082 54.1512 39.7121C49.3965 44.5581 45.1261 40.3851 43.5851 37.6928Z" fill="#8BC34A"/>
<path d="M41.9289 15.024C41.3082 15.1251 40.9168 15.5756 41.0549 16.0302C41.1927 16.4848 41.8078 16.7713 42.4286 16.6703L41.9289 15.024ZM47.9656 20.6745C48.1086 21.1282 48.7267 21.4111 49.3464 21.3064C49.9661 21.2017 50.3524 20.749 50.2094 20.2953L47.9656 20.6745ZM56.4504 27.275C56.166 26.8585 55.4743 26.6897 54.9055 26.8979C54.3368 27.1062 54.1062 27.6127 54.3905 28.0292L56.4504 27.275ZM50.0639 31.0348C49.4353 31.1055 49.0042 31.5361 49.1009 31.9963C49.1976 32.4567 49.7856 32.7724 50.414 32.7016L50.0639 31.0348ZM32.0416 21.3445C31.418 21.2531 30.8113 21.5493 30.6867 22.0059C30.562 22.4626 30.9664 22.9067 31.5899 22.9981L32.0416 21.3445ZM35.8574 25.8464C35.7675 26.3074 36.2049 26.7346 36.8344 26.8005C37.464 26.8663 38.0472 26.5459 38.1372 26.085L35.8574 25.8464ZM20.8827 18.0392C20.946 18.5025 21.5102 18.8405 22.143 18.7942C22.7757 18.7479 23.2375 18.3348 23.1741 17.8713L20.8827 18.0392ZM27.6814 15.0005C28.3147 15.0426 28.8747 14.701 28.9323 14.2372C28.9899 13.7733 28.5233 13.3632 27.89 13.321L27.6814 15.0005ZM18.9857 27.2183C18.6586 26.819 17.9512 26.6895 17.406 26.929C16.8606 27.1686 16.6838 27.6866 17.0109 28.0859L18.9857 27.2183ZM24.8463 34.3088C25.415 34.1005 25.6456 33.594 25.3613 33.1775C25.0768 32.761 24.3851 32.5921 23.8164 32.8004L24.8463 34.3088ZM39.7876 32.7089C40.4216 32.7445 40.9752 32.3971 41.024 31.9328C41.0728 31.4685 40.5983 31.0631 39.9643 31.0274L39.7876 32.7089ZM31.8205 36.1605C31.8781 36.6243 32.4381 36.9661 33.0714 36.9239C33.7047 36.8818 34.1715 36.4716 34.114 36.0079L31.8205 36.1605ZM42.4286 16.6703C43.0042 16.5767 44.0643 16.6062 45.1287 17.1203C46.1693 17.6228 47.3259 18.6448 47.9656 20.6745L50.2094 20.2953C49.4673 17.9402 48.0332 16.5028 46.3966 15.7125C44.784 14.9336 43.0806 14.8367 41.9289 15.024L42.4286 16.6703ZM54.3905 28.0292C54.6516 28.4117 54.7667 28.9901 54.3616 29.5124C53.9631 30.0262 52.881 30.7174 50.0639 31.0348L50.414 32.7016C53.5846 32.3443 55.4768 31.4895 56.3643 30.3452C57.2449 29.209 56.9567 28.0167 56.4504 27.275L54.3905 28.0292ZM31.5899 22.9981C32.4326 23.1216 33.6666 23.4401 34.603 23.9602C35.5167 24.4678 36.0081 25.0739 35.8574 25.8464L38.1372 26.085C38.447 24.4965 37.3073 23.3458 35.9948 22.6168C34.7051 21.9002 33.1178 21.502 32.0416 21.3445L31.5899 22.9981ZM23.1741 17.8713C23.0975 17.3097 23.249 16.5068 23.8582 15.9086C24.4062 15.3704 25.4706 14.8533 27.6814 15.0005L27.89 13.321C25.0344 13.1309 23.124 13.8085 22.0121 14.9005C20.9613 15.9324 20.7675 17.1955 20.8827 18.0392L23.1741 17.8713ZM17.0109 28.0859C19.0989 30.6343 20.6254 32.1917 21.7046 33.105C22.24 33.5582 22.6986 33.8814 23.0907 34.0877C23.2841 34.1895 23.5066 34.2872 23.7499 34.3475C23.9656 34.401 24.3967 34.4734 24.8463 34.3088L23.8164 32.8004C24.1699 32.6709 24.4606 32.7433 24.4881 32.7501C24.543 32.7637 24.5293 32.7681 24.4347 32.7183C24.2512 32.6218 23.9278 32.4091 23.4462 32.0015C22.4911 31.1934 21.0429 29.7292 18.9857 27.2183L17.0109 28.0859ZM39.9643 31.0274C38.5783 30.9493 36.4852 31.0807 34.748 31.7975C33.8611 32.1635 33.0436 32.6927 32.4902 33.4373C31.9346 34.1849 31.6878 35.0922 31.8205 36.1605L34.114 36.0079C34.0162 35.2211 34.2061 34.6562 34.5128 34.2436C34.8218 33.8279 35.2925 33.5086 35.8786 33.2667C37.0872 32.768 38.6788 32.6464 39.7876 32.7089L39.9643 31.0274Z" fill="#69A038"/>
</g>
<defs>
<clipPath id="clip0_160_7700">
<rect width="70" height="70" fill="white"/>
</clipPath>
</defs>
</svg>
