<svg width="70" height="66" viewBox="0 0 70 66" fill="none" xmlns="http://www.w3.org/2000/svg">
<path d="M45.1615 25.1694C39.7422 26.5117 40.0807 31.3219 44.0325 32.4406C44.0325 32.4406 60 32.4406 66.0484 32.4406C72.0968 32.4406 66.6129 20.6949 62.0968 23.4915C59.3871 17.6746 55.3226 19.0169 53.629 20.6948C45.9516 17.1151 44.5968 23.4915 45.1615 25.1694Z" fill="url(#paint0_linear_154_9649)"/>
<path d="M36.9181 35.3034C36.4688 34.9473 35.8212 34.9829 35.4144 35.386L35.3274 35.4722C34.8516 35.9436 34.895 36.7202 35.4204 37.1366L36.469 37.9678C36.9182 38.3239 37.5658 38.2883 37.9726 37.8852L38.0596 37.799C38.5354 37.3276 38.4921 36.551 37.9666 36.1346L36.9181 35.3034Z" fill="#7D3F1F"/>
<path fill-rule="evenodd" clip-rule="evenodd" d="M42.9032 46.6187L22.7623 46.4237C26.4702 42.9526 29.0656 40.2433 28.2258 36.9152C26.6691 30.7456 25.7796 27.0339 27.0968 25.1695L32.1774 15.661H36.6936C31.3521 28.8918 34.4341 30.6468 40.9581 34.3619C42.7081 35.3585 44.7057 36.496 46.8549 38.0339C49.9297 40.2342 54.3818 34.3051 54.7581 32.4407H59.8387C60.676 40.3214 55.6149 42.358 53.1733 43.3405C52.3223 43.6829 51.7896 43.8974 51.9355 44.1864C52.1394 44.5905 52.1208 45.5421 52.0044 46.6187L45.1613 46.4237C45.1613 44.1864 44.0323 42.1356 43.4678 41.3898L41.4343 39.778C40.985 39.4219 40.3374 39.4575 39.9306 39.8605L39.8436 39.9468C39.3678 40.4182 39.4111 41.1947 39.9366 41.6112L41.7742 43.0678C42.1505 43.3843 42.9032 44.5375 42.9032 46.6187ZM35.4205 37.1366C34.895 36.7202 34.8517 35.9436 35.3274 35.4722L35.4145 35.386C35.8213 34.9829 36.4689 34.9473 36.9181 35.3034L37.9667 36.1345C38.4921 36.551 38.5355 37.3276 38.0597 37.799L37.9727 37.8852C37.5659 38.2883 36.9182 38.3238 36.469 37.9678L35.4205 37.1366Z" fill="#904C2A"/>
<path d="M18.629 50.339H51.371C51.5773 49.4187 51.863 47.9264 52.0043 46.6187L45.1613 46.4237C45.1613 44.1864 44.0323 42.1356 43.4677 41.3898L41.7742 43.0678C42.1505 43.3843 42.9032 44.5375 42.9032 46.6187L22.7623 46.4237C22.4763 46.6914 22.1838 46.9637 21.8856 47.241C20.852 48.2028 19.7517 49.2266 18.629 50.339Z" fill="#7D3F1F"/>
<path d="M41.4342 39.7779C40.985 39.4219 40.3373 39.4575 39.9305 39.8605L39.8435 39.9467C39.3677 40.4181 39.4111 41.1947 39.9365 41.6112L41.7741 43.0678L43.4677 41.3898L41.4342 39.7779Z" fill="#7D3F1F"/>
<path d="M19.7584 27.4068C32.1778 20.6951 35.5649 36.356 25.9681 36.9153H7.59098C5.20721 36.9153 2.57633 36.5107 1.22199 34.567C-2.03523 29.8925 5.02009 24.6334 7.90357 27.9661C9.25841 17.6746 20.8875 20.6951 19.7584 27.4068Z" fill="url(#paint1_linear_154_9649)"/>
<path d="M21.4515 9.50847C15.5611 7.4241 14.6882 11.2432 15.7942 13.7867C16.4762 15.3552 18.3855 15.661 20.1092 15.661H46.1398C48.8145 15.661 51.635 15.0456 53.3012 12.9725C58.4904 6.51561 49.48 0.264237 44.0322 6.15255C42.9031 -1.67798 33.3064 -4.43459e-05 32.1773 3.91526C24.9515 -0.111856 20.3225 6.15255 22.5806 9.50847H21.4515Z" fill="url(#paint2_linear_154_9649)"/>
<path fill-rule="evenodd" clip-rule="evenodd" d="M19.1936 50.339H9.59684C7.90329 51.0848 6.77417 53.6949 9.59684 54.8136H12.9838H56.4516C56.7633 54.8136 57.0161 55.064 57.0161 55.3729C57.0161 55.6817 56.7633 55.9322 56.4516 55.9322H15.8064C15.3807 56.9166 15.4045 59.1527 17.7677 61.7283C19.558 63.6797 22.3065 64.3261 24.9682 64.3336L56.5998 64.4228C58.4104 62.9821 60.4032 60.0233 60.4032 54.8136H63.7903C66.6129 53.1356 65.4838 50.8983 63.7903 50.339H19.1936Z" fill="#3A4C63"/>
<path d="M12.9839 54.8135C12.4195 57.7966 12.8711 64.0983 19.1937 65.4407H54.7581C55.2705 65.2883 55.9225 64.9619 56.5999 64.4228L24.9683 64.3335C22.3066 64.326 19.558 63.6797 17.7677 61.7283C15.4046 59.1526 15.3807 56.9166 15.8065 55.9322H56.4517C56.7634 55.9322 57.0162 55.6817 57.0162 55.3729C57.0162 55.064 56.7634 54.8135 56.4517 54.8135H12.9839Z" fill="#1F3148"/>
<defs>
<linearGradient id="paint0_linear_154_9649" x1="55.1605" y1="19.2552" x2="57.2421" y2="31.0871" gradientUnits="userSpaceOnUse">
<stop stop-color="#69A43E"/>
<stop offset="0.613637" stop-color="#69A43E"/>
<stop offset="1" stop-color="#5A8938"/>
</linearGradient>
<linearGradient id="paint1_linear_154_9649" x1="15.9438" y1="21.2772" x2="18.5816" y2="35.2463" gradientUnits="userSpaceOnUse">
<stop stop-color="#69A43E"/>
<stop offset="0.613637" stop-color="#69A43E"/>
<stop offset="1" stop-color="#5A8938"/>
</linearGradient>
<linearGradient id="paint2_linear_154_9649" x1="35.119" y1="0.626646" x2="37.07" y2="14.2561" gradientUnits="userSpaceOnUse">
<stop stop-color="#69A43E"/>
<stop offset="0.613637" stop-color="#69A43E"/>
<stop offset="1" stop-color="#5A8938"/>
</linearGradient>
</defs>
</svg>
